AtkinsonHyperlegibleNext-SemiBold.sfdir
StartChar: exclam
Encoding: 33 33 263
Width: 299
GlyphClass: 1
Flags: W
LayerCount: 2
Fore
SplineSet
82 495 m 1,0,-1
 82 668 l 1,1,-1
 217 668 l 1,2,-1
 217 495 l 1,3,-1
 190 224 l 1,4,-1
 108 224 l 1,5,-1
 82 495 l 1,0,-1
90 13 m 128,-1,7
 65 38 65 38 65 73 c 256,8,9
 65 108 65 108 90 133 c 128,-1,10
 115 158 115 158 150 158 c 256,11,12
 185 158 185 158 209.5 133 c 128,-1,13
 234 108 234 108 234 73 c 256,14,15
 234 38 234 38 209.5 13 c 128,-1,16
 185 -12 185 -12 150 -12 c 256,17,6
 115 -12 115 -12 90 13 c 128,-1,7
EndSplineSet
EndChar
StartChar: quotedbl
Encoding: 34 34 293
Width: 367
GlyphClass: 1
Flags: W
LayerCount: 2
Fore
SplineSet
210 668 m 1,0,-1
 327 668 l 1,1,-1
 313 439 l 1,2,-1
 224 439 l 1,3,-1
 210 668 l 1,0,-1
40 668 m 1,4,-1
 158 668 l 1,5,-1
 144 439 l 1,6,-1
 54 439 l 1,7,-1
 40 668 l 1,4,-1
EndSplineSet
EndChar
StartChar: numbersign
Encoding: 35 35 270
Width: 736
GlyphClass: 1
Flags: W
LayerCount: 2
Fore
SplineSet
158 145 m 1,0,-1
 31 145 l 1,1,-1
 48 262 l 1,2,-1
 174 262 l 1,3,-1
 195 406 l 1,4,-1
 69 406 l 1,5,-1
 85 523 l 1,6,-1
 212 523 l 1,7,-1
 233 668 l 1,8,-1
 350 668 l 1,9,-1
 329 523 l 1,10,-1
 461 523 l 1,11,-1
 482 668 l 1,12,-1
 599 668 l 1,13,-1
 579 523 l 1,14,-1
 705 523 l 1,15,-1
 689 406 l 1,16,-1
 562 406 l 1,17,-1
 541 262 l 1,18,-1
 668 262 l 1,19,-1
 651 145 l 1,20,-1
 524 145 l 1,21,-1
 504 0 l 1,22,-1
 386 0 l 1,23,-1
 406 145 l 1,24,-1
 275 145 l 1,25,-1
 255 0 l 1,26,-1
 137 0 l 1,27,-1
 158 145 l 1,0,-1
424 262 m 1,28,-1
 444 406 l 1,29,-1
 312 406 l 1,30,-1
 292 262 l 1,31,-1
 424 262 l 1,28,-1
EndSplineSet
EndChar
StartChar: dollar
Encoding: 36 36 313
Width: 605
GlyphClass: 1
Flags: W
LayerCount: 2
Fore
SplineSet
117.5 39 m 128,-1,1
 54 81 54 81 28 153 c 1,2,-1
 146 197 l 1,3,4
 157 156 157 156 190 130.5 c 128,-1,5
 223 105 223 105 270 96 c 1,6,-1
 270 293 l 1,7,-1
 236 300 l 2,8,9
 44 340 44 340 44 481 c 0,10,11
 44 564 44 564 108 616.5 c 128,-1,12
 172 669 172 669 270 678 c 1,13,-1
 270 758 l 1,14,-1
 334 758 l 1,15,-1
 334 679 l 1,16,17
 409 675 409 675 469 641 c 128,-1,18
 529 607 529 607 557 543 c 1,19,-1
 440 499 l 1,20,21
 427 529 427 529 399 547.5 c 128,-1,22
 371 566 371 566 334 572 c 1,23,-1
 334 397 l 1,24,-1
 356 391 l 1,25,26
 467 368 467 368 522 326 c 128,-1,27
 577 284 577 284 577 201 c 0,28,29
 577 140 577 140 544.5 94 c 128,-1,30
 512 48 512 48 456.5 21 c 128,-1,31
 401 -6 401 -6 334 -11 c 1,32,-1
 334 -90 l 1,33,-1
 270 -90 l 1,34,-1
 270 -10 l 1,35,0
 181 -3 181 -3 117.5 39 c 128,-1,1
416 122 m 128,-1,37
 448 146 448 146 448 188 c 0,38,39
 448 224 448 224 423.5 243.5 c 128,-1,40
 399 263 399 263 341 277 c 2,41,-1
 334 279 l 1,42,-1
 334 94 l 1,43,36
 384 98 384 98 416 122 c 128,-1,37
199.5 546.5 m 128,-1,45
 173 525 173 525 173 491 c 0,46,47
 173 461 173 461 196 441 c 128,-1,48
 219 421 219 421 259 412 c 2,49,-1
 270 410 l 1,50,-1
 270 573 l 1,51,44
 226 568 226 568 199.5 546.5 c 128,-1,45
EndSplineSet
EndChar
StartChar: percent
Encoding: 37 37 341
Width: 956
GlyphClass: 1
Flags: W
LayerCount: 2
Fore
SplineSet
655 668 m 1,0,-1
 766 668 l 1,1,-1
 299 0 l 1,2,-1
 187 0 l 1,3,-1
 655 668 l 1,0,-1
126 322.5 m 128,-1,5
 82 348 82 348 56.5 392 c 128,-1,6
 31 436 31 436 31 488 c 256,7,8
 31 540 31 540 56.5 584 c 128,-1,9
 82 628 82 628 126 654 c 128,-1,10
 170 680 170 680 222 680 c 256,11,12
 274 680 274 680 318 654 c 128,-1,13
 362 628 362 628 387.5 584 c 128,-1,14
 413 540 413 540 413 488 c 256,15,16
 413 436 413 436 387.5 392 c 128,-1,17
 362 348 362 348 318 322.5 c 128,-1,18
 274 297 274 297 222 297 c 256,19,4
 170 297 170 297 126 322.5 c 128,-1,5
286 424.5 m 128,-1,21
 312 451 312 451 312 488 c 0,22,23
 312 526 312 526 286 552.5 c 128,-1,24
 260 579 260 579 222 579 c 0,25,26
 185 579 185 579 159 552.5 c 128,-1,27
 133 526 133 526 133 488 c 0,28,29
 133 451 133 451 159 424.5 c 128,-1,30
 185 398 185 398 222 398 c 0,31,20
 260 398 260 398 286 424.5 c 128,-1,21
638 14 m 128,-1,33
 594 40 594 40 568.5 84 c 128,-1,34
 543 128 543 128 543 180 c 256,35,36
 543 232 543 232 568.5 276 c 128,-1,37
 594 320 594 320 638 346 c 128,-1,38
 682 372 682 372 734 372 c 256,39,40
 786 372 786 372 830 346 c 128,-1,41
 874 320 874 320 899.5 276 c 128,-1,42
 925 232 925 232 925 180 c 256,43,44
 925 128 925 128 899.5 84 c 128,-1,45
 874 40 874 40 830 14 c 128,-1,46
 786 -12 786 -12 734 -12 c 256,47,32
 682 -12 682 -12 638 14 c 128,-1,33
797.5 115.5 m 128,-1,49
 824 142 824 142 824 180 c 256,50,51
 824 218 824 218 798 244 c 128,-1,52
 772 270 772 270 734 270 c 0,53,54
 697 270 697 270 670.5 244 c 128,-1,55
 644 218 644 218 644 180 c 256,56,57
 644 142 644 142 670.5 115.5 c 128,-1,58
 697 89 697 89 734 89 c 256,59,48
 771 89 771 89 797.5 115.5 c 128,-1,49
EndSplineSet
EndChar
StartChar: ampersand
Encoding: 38 38 298
Width: 727
GlyphClass: 1
Flags: W
LayerCount: 2
Fore
SplineSet
162 14 m 128,-1,1
 108 41 108 41 78 86.5 c 128,-1,2
 48 132 48 132 48 185 c 0,3,4
 48 249 48 249 90 301.5 c 128,-1,5
 132 354 132 354 212 386 c 1,6,7
 146 461 146 461 146 534 c 0,8,9
 146 580 146 580 170 617 c 128,-1,10
 194 654 194 654 238 675 c 128,-1,11
 282 696 282 696 339 696 c 0,12,13
 391 696 391 696 434.5 675.5 c 128,-1,14
 478 655 478 655 503.5 617.5 c 128,-1,15
 529 580 529 580 529 533 c 0,16,17
 529 424 529 424 397 356 c 1,18,-1
 508 234 l 1,19,20
 539 293 539 293 552 360 c 1,21,-1
 665 360 l 1,22,23
 654 300 654 300 632 245.5 c 128,-1,24
 610 191 610 191 582 150 c 1,25,-1
 716 0 l 1,26,-1
 562 0 l 1,27,-1
 502 66 l 1,28,29
 401 -13 401 -13 285 -13 c 0,30,0
 216 -13 216 -13 162 14 c 128,-1,1
430 145 m 1,32,-1
 282 308 l 1,33,34
 232 289 232 289 206 259.5 c 128,-1,35
 180 230 180 230 180 192 c 0,36,37
 180 149 180 149 213.5 120.5 c 128,-1,38
 247 92 247 92 298 92 c 0,39,31
 369 92 369 92 430 145 c 1,32,-1
397 473.5 m 128,-1,41
 419 500 419 500 419 529 c 0,42,43
 419 559 419 559 396 579 c 128,-1,44
 373 599 373 599 339 599 c 0,45,46
 308 599 308 599 287 582 c 128,-1,47
 266 565 266 565 266 537 c 0,48,49
 266 513 266 513 282.5 486.5 c 128,-1,50
 299 460 299 460 333 428 c 1,51,40
 375 447 375 447 397 473.5 c 128,-1,41
EndSplineSet
EndChar
StartChar: quotesingle
Encoding: 39 39 294
Width: 198
GlyphClass: 1
Flags: W
LayerCount: 2
Fore
SplineSet
40 668 m 1,0,-1
 158 668 l 1,1,-1
 144 439 l 1,2,-1
 54 439 l 1,3,-1
 40 668 l 1,0,-1
EndSplineSet
EndChar
StartChar: parenleft
Encoding: 40 40 277
Width: 326
GlyphClass: 1
Flags: W
LayerCount: 2
Fore
SplineSet
80.5 49 m 128,-1,1
 47 162 47 162 47 273 c 256,2,3
 47 384 47 384 80.5 497 c 128,-1,4
 114 610 114 610 173 708 c 1,5,-1
 297 708 l 1,6,7
 233 612 233 612 198.5 499.5 c 128,-1,8
 164 387 164 387 164 273 c 256,9,10
 164 159 164 159 198.5 46.5 c 128,-1,11
 233 -66 233 -66 297 -162 c 1,12,-1
 173 -162 l 1,13,0
 114 -64 114 -64 80.5 49 c 128,-1,1
EndSplineSet
EndChar
StartChar: parenright
Encoding: 41 41 278
Width: 326
GlyphClass: 1
Flags: W
LayerCount: 2
Fore
SplineSet
127.5 48.5 m 128,-1,1
 162 161 162 161 162 274 c 256,2,3
 162 387 162 387 127.5 499.5 c 128,-1,4
 93 612 93 612 29 709 c 1,5,-1
 153 709 l 1,6,7
 212 611 212 611 245.5 498 c 128,-1,8
 279 385 279 385 279 274 c 256,9,10
 279 163 279 163 245.5 50 c 128,-1,11
 212 -63 212 -63 153 -161 c 1,12,-1
 29 -161 l 1,13,0
 93 -64 93 -64 127.5 48.5 c 128,-1,1
EndSplineSet
EndChar
StartChar: asterisk
Encoding: 42 42 269
Width: 485
GlyphClass: 1
Flags: W
LayerCount: 2
Fore
SplineSet
104 366 m 1,0,-1
 178 468 l 1,1,-1
 58 506 l 1,2,-1
 83 581 l 1,3,-1
 203 542 l 1,4,-1
 203 668 l 1,5,-1
 281 668 l 1,6,-1
 281 542 l 1,7,-1
 399 581 l 1,8,-1
 425 506 l 1,9,-1
 304 468 l 1,10,-1
 378 366 l 1,11,-1
 316 320 l 1,12,-1
 241 421 l 1,13,-1
 167 320 l 1,14,-1
 104 366 l 1,0,-1
EndSplineSet
EndChar
StartChar: plus
Encoding: 43 43 320
Width: 597
GlyphClass: 1
Flags: W
LayerCount: 2
Fore
SplineSet
244 193 m 1,0,-1
 46 193 l 1,1,-1
 46 303 l 1,2,-1
 244 303 l 1,3,-1
 244 496 l 1,4,-1
 353 496 l 1,5,-1
 353 303 l 1,6,-1
 552 303 l 1,7,-1
 552 193 l 1,8,-1
 353 193 l 1,9,-1
 353 0 l 1,10,-1
 244 0 l 1,11,-1
 244 193 l 1,0,-1
EndSplineSet
EndChar
StartChar: comma
Encoding: 44 44 259
Width: 256
GlyphClass: 1
Flags: W
LayerCount: 2
Fore
SplineSet
62 19.5 m 128,-1,1
 43 43 43 43 43 73 c 0,2,3
 43 108 43 108 68 133 c 128,-1,4
 93 158 93 158 128 158 c 256,5,6
 163 158 163 158 188 133 c 128,-1,7
 213 108 213 108 213 73 c 0,8,9
 213 60 213 60 207 40 c 2,10,-1
 136 -141 l 1,11,-1
 59 -141 l 1,12,-1
 110 -10 l 1,13,0
 81 -4 81 -4 62 19.5 c 128,-1,1
EndSplineSet
EndChar
StartChar: hyphen
Encoding: 45 45 273
Width: 370
GlyphClass: 1
Flags: W
LayerCount: 2
Fore
SplineSet
29 304 m 1,0,-1
 342 304 l 1,1,-1
 342 193 l 1,2,-1
 29 193 l 1,3,-1
 29 304 l 1,0,-1
EndSplineSet
EndChar
StartChar: period
Encoding: 46 46 258
Width: 256
GlyphClass: 1
Flags: W
LayerCount: 2
Fore
SplineSet
68 13 m 128,-1,1
 43 38 43 38 43 73 c 256,2,3
 43 108 43 108 68 133 c 128,-1,4
 93 158 93 158 128 158 c 256,5,6
 163 158 163 158 188 133 c 128,-1,7
 213 108 213 108 213 73 c 256,8,9
 213 38 213 38 188 13 c 128,-1,10
 163 -12 163 -12 128 -12 c 256,11,0
 93 -12 93 -12 68 13 c 128,-1,1
EndSplineSet
EndChar
StartChar: zero
Encoding: 48 48 229
Width: 657
GlyphClass: 1
Flags: W
LayerCount: 2
Fore
SplineSet
122.5 79 m 128,-1,1
 51 170 51 170 51 335 c 256,2,3
 51 500 51 500 122 590.5 c 128,-1,4
 193 681 193 681 328 681 c 256,5,6
 463 681 463 681 534.5 590.5 c 128,-1,7
 606 500 606 500 606 335 c 0,8,9
 606 171 606 171 534 79.5 c 128,-1,10
 462 -12 462 -12 328 -12 c 256,11,0
 194 -12 194 -12 122.5 79 c 128,-1,1
425 128 m 1,13,-1
 196 457 l 1,14,15
 181 405 181 405 181 335 c 0,16,17
 181 86 181 86 328 86 c 0,18,12
 388 86 388 86 425 128 c 1,13,-1
475 335 m 0,20,21
 475 447 475 447 440 515 c 128,-1,22
 405 583 405 583 328 583 c 0,23,24
 270 583 270 583 235 543 c 1,25,-1
 463 218 l 1,26,19
 475 268 475 268 475 335 c 0,20,21
EndSplineSet
Substitution2: "'tnum' Tabular Numbers in Latin lookup 10 subtable" zero.tf
AlternateSubs2: "'aalt' Access All Alternates in Latin lookup 0 subtable" zero.tf
EndChar
StartChar: two
Encoding: 50 50 231
Width: 571
GlyphClass: 5
Flags: W
LayerCount: 2
Fore
SplineSet
226 256.5 m 128,-1,1
 302 320 302 320 347.5 379 c 128,-1,2
 393 438 393 438 393 490 c 0,3,4
 393 533 393 533 364 558.5 c 128,-1,5
 335 584 335 584 288 584 c 0,6,7
 246 584 246 584 214 561.5 c 128,-1,8
 182 539 182 539 172 490 c 1,9,-1
 55 530 l 1,10,11
 78 600 78 600 141 640 c 128,-1,12
 204 680 204 680 293 680 c 0,13,14
 394 680 394 680 458 629.5 c 128,-1,15
 522 579 522 579 522 489 c 0,16,17
 522 389 522 389 437.5 299 c 128,-1,18
 353 209 353 209 192 107 c 1,19,-1
 530 107 l 1,20,-1
 530 0 l 1,21,-1
 30 0 l 1,22,-1
 30 107 l 1,23,0
 150 193 150 193 226 256.5 c 128,-1,1
EndSplineSet
Substitution2: "'tnum' Tabular Numbers in Latin lookup 10 subtable" two.tf
Substitution2: "'sups' Superscript in Latin lookup 6 subtable" uni00B2
AlternateSubs2: "'aalt' Access All Alternates in Latin lookup 0 subtable" uni00B2 two.tf
EndChar
StartChar: three
Encoding: 51 51 232
Width: 594
GlyphClass: 5
Flags: W
LayerCount: 2
Fore
SplineSet
127.5 28.5 m 128,-1,1
 62 69 62 69 37 144 c 1,2,-1
 154 184 l 1,3,4
 166 135 166 135 201 109.5 c 128,-1,5
 236 84 236 84 288 84 c 0,6,7
 343 84 343 84 376.5 112.5 c 128,-1,8
 410 141 410 141 410 190 c 0,9,10
 410 300 410 300 240 300 c 2,11,-1
 215 300 l 1,12,-1
 215 394 l 1,13,-1
 240 394 l 2,14,15
 310 394 310 394 353.5 420 c 128,-1,16
 397 446 397 446 397 495 c 0,17,18
 397 537 397 537 364.5 560.5 c 128,-1,19
 332 584 332 584 283 584 c 0,20,21
 235 584 235 584 203 560 c 128,-1,22
 171 536 171 536 161 490 c 1,23,-1
 45 530 l 1,24,25
 70 603 70 603 135.5 641.5 c 128,-1,26
 201 680 201 680 290 680 c 0,27,28
 352 680 352 680 405.5 661 c 128,-1,29
 459 642 459 642 492 602.5 c 128,-1,30
 525 563 525 563 525 504 c 0,31,32
 525 450 525 450 495 410.5 c 128,-1,33
 465 371 465 371 412 352 c 1,34,35
 475 332 475 332 507.5 289 c 128,-1,36
 540 246 540 246 540 192 c 0,37,38
 540 126 540 126 505 80 c 128,-1,39
 470 34 470 34 411.5 11 c 128,-1,40
 353 -12 353 -12 285 -12 c 0,41,0
 193 -12 193 -12 127.5 28.5 c 128,-1,1
EndSplineSet
Substitution2: "'tnum' Tabular Numbers in Latin lookup 10 subtable" three.tf
Substitution2: "'sups' Superscript in Latin lookup 6 subtable" uni00B3
AlternateSubs2: "'aalt' Access All Alternates in Latin lookup 0 subtable" uni00B3 three.tf
EndChar
StartChar: four
Encoding: 52 52 233
Width: 621
GlyphClass: 5
Flags: W
LayerCount: 2
Fore
SplineSet
357 150 m 1,0,-1
 29 150 l 1,1,-1
 29 249 l 1,2,-1
 356 668 l 1,3,-1
 482 668 l 1,4,-1
 482 263 l 1,5,-1
 586 263 l 1,6,-1
 586 150 l 1,7,-1
 482 150 l 1,8,-1
 482 0 l 1,9,-1
 357 0 l 1,10,-1
 357 150 l 1,0,-1
357 263 m 1,11,-1
 357 502 l 1,12,-1
 165 263 l 1,13,-1
 357 263 l 1,11,-1
EndSplineSet
Substitution2: "'tnum' Tabular Numbers in Latin lookup 10 subtable" four.tf
AlternateSubs2: "'aalt' Access All Alternates in Latin lookup 0 subtable" four.tf
EndChar
StartChar: five
Encoding: 53 53 234
Width: 603
GlyphClass: 1
Flags: W
LayerCount: 2
Fore
SplineSet
138 29.5 m 128,-1,1
 75 71 75 71 48 144 c 1,2,-1
 161 182 l 1,3,4
 186 84 186 84 288 84 c 0,5,6
 346 84 346 84 383 120 c 128,-1,7
 420 156 420 156 420 220 c 0,8,9
 420 286 420 286 381.5 320.5 c 128,-1,10
 343 355 343 355 289 355 c 0,11,12
 248 355 248 355 218 336 c 128,-1,13
 188 317 188 317 172 287 c 1,14,-1
 58 327 l 1,15,-1
 99 668 l 1,16,-1
 521 668 l 1,17,-1
 521 561 l 1,18,-1
 202 561 l 1,19,-1
 184 410 l 1,20,21
 208 431 208 431 245 441.5 c 128,-1,22
 282 452 282 452 322 452 c 0,23,24
 383 452 383 452 435 425 c 128,-1,25
 487 398 487 398 518.5 346 c 128,-1,26
 550 294 550 294 550 221 c 0,27,28
 550 147 550 147 515 94.5 c 128,-1,29
 480 42 480 42 421.5 15 c 128,-1,30
 363 -12 363 -12 293 -12 c 0,31,0
 201 -12 201 -12 138 29.5 c 128,-1,1
EndSplineSet
Substitution2: "'tnum' Tabular Numbers in Latin lookup 10 subtable" five.tf
AlternateSubs2: "'aalt' Access All Alternates in Latin lookup 0 subtable" five.tf
EndChar
StartChar: six
Encoding: 54 54 235
Width: 619
GlyphClass: 1
Flags: W
LayerCount: 2
Fore
SplineSet
122 75.5 m 128,-1,1
 56 163 56 163 56 311 c 0,2,3
 56 472 56 472 124 576 c 128,-1,4
 192 680 192 680 334 680 c 0,5,6
 479 680 479 680 536 572 c 1,7,-1
 421 530 l 1,8,9
 409 555 409 555 383.5 569 c 128,-1,10
 358 583 358 583 325 583 c 0,11,12
 262 583 262 583 225 529 c 128,-1,13
 188 475 188 475 186 380 c 1,14,15
 211 411 211 411 251.5 430 c 128,-1,16
 292 449 292 449 345 449 c 0,17,18
 407 449 407 449 457.5 420.5 c 128,-1,19
 508 392 508 392 537 340.5 c 128,-1,20
 566 289 566 289 566 224 c 0,21,22
 566 157 566 157 534 103 c 128,-1,23
 502 49 502 49 445 18.5 c 128,-1,24
 388 -12 388 -12 316 -12 c 0,25,0
 188 -12 188 -12 122 75.5 c 128,-1,1
403 122 m 128,-1,27
 436 158 436 158 436 218 c 0,28,29
 436 277 436 277 403 313.5 c 128,-1,30
 370 350 370 350 315 350 c 256,31,32
 260 350 260 350 226 313.5 c 128,-1,33
 192 277 192 277 192 218 c 0,34,35
 192 158 192 158 225.5 122 c 128,-1,36
 259 86 259 86 315 86 c 0,37,26
 370 86 370 86 403 122 c 128,-1,27
EndSplineSet
Substitution2: "'tnum' Tabular Numbers in Latin lookup 10 subtable" six.tf
AlternateSubs2: "'aalt' Access All Alternates in Latin lookup 0 subtable" six.tf
EndChar
StartChar: seven
Encoding: 55 55 236
Width: 530
GlyphClass: 1
Flags: W
LayerCount: 2
Fore
SplineSet
366 561 m 1,0,-1
 15 561 l 1,1,-1
 15 668 l 1,2,-1
 500 668 l 1,3,-1
 500 561 l 1,4,-1
 235 0 l 1,5,-1
 89 0 l 1,6,-1
 366 561 l 1,0,-1
EndSplineSet
Substitution2: "'tnum' Tabular Numbers in Latin lookup 10 subtable" seven.tf
AlternateSubs2: "'aalt' Access All Alternates in Latin lookup 0 subtable" seven.tf
EndChar
StartChar: eight
Encoding: 56 56 237
Width: 622
GlyphClass: 1
Flags: W
LayerCount: 2
Fore
SplineSet
176 13 m 128,-1,1
 116 38 116 38 81.5 85.5 c 128,-1,2
 47 133 47 133 47 197 c 0,3,4
 47 257 47 257 77 300 c 128,-1,5
 107 343 107 343 165 373 c 1,6,7
 122 424 122 424 122 492 c 0,8,9
 122 543 122 543 146.5 586 c 128,-1,10
 171 629 171 629 214.5 654.5 c 128,-1,11
 258 680 258 680 311 680 c 256,12,13
 364 680 364 680 407 654.5 c 128,-1,14
 450 629 450 629 474.5 586 c 128,-1,15
 499 543 499 543 499 492 c 0,16,17
 499 425 499 425 457 373 c 1,18,19
 575 313 575 313 575 197 c 0,20,21
 575 133 575 133 540.5 85.5 c 128,-1,22
 506 38 506 38 446 13 c 128,-1,23
 386 -12 386 -12 311 -12 c 256,24,0
 236 -12 236 -12 176 13 c 128,-1,1
407.5 123 m 128,-1,26
 444 152 444 152 444 200 c 256,27,28
 444 248 444 248 407.5 275.5 c 128,-1,29
 371 303 371 303 311 303 c 256,30,31
 251 303 251 303 214.5 275.5 c 128,-1,32
 178 248 178 248 178 200 c 256,33,34
 178 152 178 152 214.5 123 c 128,-1,35
 251 94 251 94 311 94 c 256,36,25
 371 94 371 94 407.5 123 c 128,-1,26
369.5 432.5 m 128,-1,38
 394 457 394 457 394 491 c 0,39,40
 394 526 394 526 369.5 550 c 128,-1,41
 345 574 345 574 311 574 c 0,42,43
 276 574 276 574 252 550 c 128,-1,44
 228 526 228 526 228 491 c 0,45,46
 228 457 228 457 252.5 432.5 c 128,-1,47
 277 408 277 408 311 408 c 256,48,37
 345 408 345 408 369.5 432.5 c 128,-1,38
EndSplineSet
Substitution2: "'tnum' Tabular Numbers in Latin lookup 10 subtable" eight.tf
AlternateSubs2: "'aalt' Access All Alternates in Latin lookup 0 subtable" eight.tf
EndChar
StartChar: nine
Encoding: 57 57 238
Width: 577
GlyphClass: 1
Flags: W
LayerCount: 2
Fore
SplineSet
283 198 m 0,1,2
 218 198 218 198 163.5 230 c 128,-1,3
 109 262 109 262 76.5 317 c 128,-1,4
 44 372 44 372 44 437 c 256,5,6
 44 502 44 502 76 557 c 128,-1,7
 108 612 108 612 163 645 c 128,-1,8
 218 678 218 678 284 678 c 0,9,10
 351 678 351 678 406.5 645.5 c 128,-1,11
 462 613 462 613 494.5 558 c 128,-1,12
 527 503 527 503 527 438 c 0,13,14
 527 395 527 395 511.5 350.5 c 128,-1,15
 496 306 496 306 463 248 c 2,16,-1
 325 0 l 1,17,-1
 189 0 l 1,18,-1
 307 199 l 1,19,0
 299 198 299 198 283 198 c 0,1,2
375 347.5 m 128,-1,21
 412 384 412 384 412 436 c 0,22,23
 412 468 412 468 396 497 c 128,-1,24
 380 526 380 526 351 544 c 128,-1,25
 322 562 322 562 285 562 c 0,26,27
 250 562 250 562 221 544.5 c 128,-1,28
 192 527 192 527 176 498.5 c 128,-1,29
 160 470 160 470 160 437 c 0,30,31
 160 401 160 401 177.5 372.5 c 128,-1,32
 195 344 195 344 224 327.5 c 128,-1,33
 253 311 253 311 286 311 c 0,34,20
 338 311 338 311 375 347.5 c 128,-1,21
EndSplineSet
Substitution2: "'tnum' Tabular Numbers in Latin lookup 10 subtable" nine.tf
AlternateSubs2: "'aalt' Access All Alternates in Latin lookup 0 subtable" nine.tf
EndChar
StartChar: less
Encoding: 60 60 327
Width: 565
GlyphClass: 1
Flags: W
LayerCount: 2
Fore
SplineSet
40 205 m 1,0,-1
 40 293 l 1,1,-1
 525 505 l 1,2,-1
 525 383 l 1,3,-1
 184 249 l 1,4,-1
 525 114 l 1,5,-1
 525 -7 l 1,6,-1
 40 205 l 1,0,-1
EndSplineSet
EndChar
StartChar: equal
Encoding: 61 61 324
Width: 616
GlyphClass: 1
Flags: W
LayerCount: 2
Fore
SplineSet
55 401 m 1,0,-1
 561 401 l 1,1,-1
 561 292 l 1,2,-1
 55 292 l 1,3,-1
 55 401 l 1,0,-1
55 215 m 1,4,-1
 561 215 l 1,5,-1
 561 106 l 1,6,-1
 55 106 l 1,7,-1
 55 215 l 1,4,-1
EndSplineSet
EndChar
StartChar: greater
Encoding: 62 62 326
Width: 565
GlyphClass: 1
Flags: W
LayerCount: 2
Fore
SplineSet
40 114 m 1,0,-1
 382 249 l 1,1,-1
 40 383 l 1,2,-1
 40 505 l 1,3,-1
 525 293 l 1,4,-1
 525 205 l 1,5,-1
 40 -7 l 1,6,-1
 40 114 l 1,0,-1
EndSplineSet
EndChar
StartChar: question
Encoding: 63 63 265
Width: 530
GlyphClass: 1
Flags: W
LayerCount: 2
Fore
SplineSet
192.5 335.5 m 128,-1,1
 218 372 218 372 288 410 c 0,2,3
 338 436 338 436 359.5 456.5 c 128,-1,4
 381 477 381 477 381 504 c 0,5,6
 381 538 381 538 350 558 c 128,-1,7
 319 578 319 578 268 578 c 0,8,9
 216 578 216 578 182.5 554.5 c 128,-1,10
 149 531 149 531 138 492 c 1,11,-1
 23 531 l 1,12,13
 45 601 45 601 112 640.5 c 128,-1,14
 179 680 179 680 273 680 c 0,15,16
 335 680 335 680 389.5 661 c 128,-1,17
 444 642 444 642 477 604 c 128,-1,18
 510 566 510 566 510 511 c 0,19,20
 510 453 510 453 478.5 412 c 128,-1,21
 447 371 447 371 384 338 c 0,22,23
 333 312 333 312 314 291 c 128,-1,24
 295 270 295 270 295 239 c 2,25,-1
 295 216 l 1,26,-1
 167 216 l 1,27,-1
 167 240 l 2,28,0
 167 299 167 299 192.5 335.5 c 128,-1,1
171 13 m 128,-1,30
 146 38 146 38 146 73 c 256,31,32
 146 108 146 108 171 133 c 128,-1,33
 196 158 196 158 231 158 c 256,34,35
 266 158 266 158 291 133 c 128,-1,36
 316 108 316 108 316 73 c 256,37,38
 316 38 316 38 291 13 c 128,-1,39
 266 -12 266 -12 231 -12 c 256,40,29
 196 -12 196 -12 171 13 c 128,-1,30
EndSplineSet
EndChar
StartChar: at
Encoding: 64 64 297
Width: 780
GlyphClass: 1
Flags: W
LayerCount: 2
Fore
SplineSet
216 -54.5 m 128,-1,1
 133 -9 133 -9 84 71.5 c 128,-1,2
 35 152 35 152 35 253 c 0,3,4
 35 352 35 352 83.5 433.5 c 128,-1,5
 132 515 132 515 215 561.5 c 128,-1,6
 298 608 298 608 398 608 c 0,7,8
 488 608 488 608 567.5 568 c 128,-1,9
 647 528 647 528 696 454 c 128,-1,10
 745 380 745 380 745 285 c 0,11,12
 745 214 745 214 721.5 166.5 c 128,-1,13
 698 119 698 119 661 96.5 c 128,-1,14
 624 74 624 74 584 74 c 0,15,16
 548 74 548 74 517.5 91.5 c 128,-1,17
 487 109 487 109 474 137 c 1,18,19
 454 104 454 104 422.5 89.5 c 128,-1,20
 391 75 391 75 355 75 c 0,21,22
 318 75 318 75 283.5 94.5 c 128,-1,23
 249 114 249 114 227.5 151 c 128,-1,24
 206 188 206 188 206 239 c 0,25,26
 206 342 206 342 265.5 390 c 128,-1,27
 325 438 325 438 412 438 c 0,28,29
 470 438 470 438 532 418 c 1,30,-1
 532 215 l 2,31,32
 532 181 532 181 548.5 164.5 c 128,-1,33
 565 148 565 148 591 148 c 0,34,35
 628 148 628 148 649.5 186 c 128,-1,36
 671 224 671 224 671 288 c 0,37,38
 671 359 671 359 634 416.5 c 128,-1,39
 597 474 597 474 534 506.5 c 128,-1,40
 471 539 471 539 397 539 c 0,41,42
 317 539 317 539 251.5 501 c 128,-1,43
 186 463 186 463 148.5 398 c 128,-1,44
 111 333 111 333 111 254 c 0,45,46
 111 173 111 173 150 107.5 c 128,-1,47
 189 42 189 42 255 5.5 c 128,-1,48
 321 -31 321 -31 398 -31 c 0,49,50
 469 -31 469 -31 533 5 c 1,51,-1
 533 -72 l 1,52,53
 468 -100 468 -100 397 -100 c 0,54,0
 299 -100 299 -100 216 -54.5 c 128,-1,1
424.5 182.5 m 128,-1,56
 448 209 448 209 448 256 c 2,57,-1
 448 356 l 1,58,59
 420 360 420 360 402 360 c 0,60,61
 299 360 299 360 299 241 c 0,62,63
 299 201 299 201 320.5 178.5 c 128,-1,64
 342 156 342 156 370 156 c 0,65,55
 401 156 401 156 424.5 182.5 c 128,-1,56
EndSplineSet
EndChar
StartChar: A
Encoding: 65 65 2
Width: 665
GlyphClass: 2
Flags: W
AnchorPoint: "Anchor-2" 658 10 basechar 0
AnchorPoint: "Anchor-1" 333 668 basechar 0
AnchorPoint: "Anchor-0" 333 0 basechar 0
LayerCount: 2
Fore
SplineSet
259 668 m 1,0,-1
 406 668 l 1,1,-1
 658 0 l 1,2,-1
 514 0 l 1,3,-1
 469 130 l 1,4,-1
 196 130 l 1,5,-1
 151 0 l 1,6,-1
 7 0 l 1,7,-1
 259 668 l 1,0,-1
432 239 m 1,8,-1
 332 529 l 1,9,-1
 232 239 l 1,10,-1
 432 239 l 1,8,-1
EndSplineSet
Substitution2: "Single Substitution lookup 15 subtable" ordfeminine
AlternateSubs2: "'aalt' Access All Alternates in Latin lookup 0 subtable" ordfeminine
EndChar
StartChar: B
Encoding: 66 66 13
Width: 636
GlyphClass: 2
Flags: W
AnchorPoint: "Anchor-1" 327 668 basechar 0
AnchorPoint: "Anchor-0" 327 0 basechar 0
LayerCount: 2
Fore
SplineSet
65 668 m 1,0,-1
 344 668 l 2,1,2
 459 668 459 668 521 622.5 c 128,-1,3
 583 577 583 577 583 495 c 0,4,5
 583 448 583 448 560 411 c 128,-1,6
 537 374 537 374 491 353 c 1,7,8
 550 332 550 332 580 291.5 c 128,-1,9
 610 251 610 251 610 195 c 0,10,11
 610 104 610 104 543 52 c 128,-1,12
 476 0 476 0 357 0 c 2,13,-1
 65 0 l 1,14,-1
 65 668 l 1,0,-1
444 136 m 128,-1,16
 473 161 473 161 473 203 c 0,17,18
 473 244 473 244 444 268 c 128,-1,19
 415 292 415 292 359 292 c 2,20,-1
 198 292 l 1,21,-1
 198 111 l 1,22,-1
 359 111 l 2,23,15
 415 111 415 111 444 136 c 128,-1,16
422 417.5 m 128,-1,25
 447 440 447 440 447 477 c 0,26,27
 447 516 447 516 421 537.5 c 128,-1,28
 395 559 395 559 346 559 c 2,29,-1
 198 559 l 1,30,-1
 198 395 l 1,31,-1
 350 395 l 2,32,24
 397 395 397 395 422 417.5 c 128,-1,25
EndSplineSet
EndChar
StartChar: C
Encoding: 67 67 14
Width: 655
GlyphClass: 2
Flags: W
AnchorPoint: "Anchor-1" 361 668 basechar 0
AnchorPoint: "Anchor-0" 358 0 basechar 0
LayerCount: 2
Fore
SplineSet
185 30.5 m 128,-1,1
 112 73 112 73 73.5 151.5 c 128,-1,2
 35 230 35 230 35 334 c 256,3,4
 35 438 35 438 75.5 516.5 c 128,-1,5
 116 595 116 595 190 637.5 c 128,-1,6
 264 680 264 680 363 680 c 0,7,8
 452 680 452 680 522 639.5 c 128,-1,9
 592 599 592 599 629 527 c 1,10,-1
 511 484 l 1,11,12
 489 526 489 526 449 548 c 128,-1,13
 409 570 409 570 358 570 c 0,14,15
 306 570 306 570 264.5 542 c 128,-1,16
 223 514 223 514 199 460.5 c 128,-1,17
 175 407 175 407 175 334 c 0,18,19
 175 260 175 260 199 207 c 128,-1,20
 223 154 223 154 265 126 c 128,-1,21
 307 98 307 98 360 98 c 0,22,23
 411 98 411 98 452.5 119.5 c 128,-1,24
 494 141 494 141 516 184 c 1,25,-1
 633 141 l 1,26,27
 594 68 594 68 521.5 28 c 128,-1,28
 449 -12 449 -12 357 -12 c 0,29,0
 258 -12 258 -12 185 30.5 c 128,-1,1
EndSplineSet
EndChar
StartChar: D
Encoding: 68 68 19
Width: 684
GlyphClass: 2
Flags: W
AnchorPoint: "Anchor-1" 328 668 basechar 0
AnchorPoint: "Anchor-0" 348 0 basechar 0
LayerCount: 2
Fore
SplineSet
65 668 m 1,0,-1
 270 668 l 2,1,2
 648 668 648 668 648 334 c 0,3,4
 648 156 648 156 548.5 78 c 128,-1,5
 449 0 449 0 270 0 c 2,6,-1
 65 0 l 1,7,-1
 65 668 l 1,0,-1
398 130 m 128,-1,9
 450 148 450 148 480.5 196.5 c 128,-1,10
 511 245 511 245 511 334 c 256,11,12
 511 423 511 423 480.5 472 c 128,-1,13
 450 521 450 521 398 539 c 128,-1,14
 346 557 346 557 271 557 c 2,15,-1
 198 557 l 1,16,-1
 198 112 l 1,17,-1
 271 112 l 2,18,8
 346 112 346 112 398 130 c 128,-1,9
EndSplineSet
EndChar
StartChar: F
Encoding: 70 70 32
Width: 562
GlyphClass: 2
Flags: W
AnchorPoint: "Anchor-1" 281 668 basechar 0
AnchorPoint: "Anchor-0" 281 0 basechar 0
LayerCount: 2
Fore
SplineSet
65 668 m 1,0,-1
 525 668 l 1,1,-1
 525 552 l 1,2,-1
 198 552 l 1,3,-1
 198 383 l 1,4,-1
 521 383 l 1,5,-1
 521 267 l 1,6,-1
 198 267 l 1,7,-1
 198 0 l 1,8,-1
 65 0 l 1,9,-1
 65 668 l 1,0,-1
EndSplineSet
EndChar
StartChar: G
Encoding: 71 71 33
Width: 712
GlyphClass: 2
Flags: W
AnchorPoint: "Anchor-1" 353 668 basechar 0
AnchorPoint: "Anchor-0" 353 0 basechar 0
LayerCount: 2
Fore
SplineSet
180.5 31 m 128,-1,1
 110 74 110 74 72.5 153 c 128,-1,2
 35 232 35 232 35 336 c 0,3,4
 35 439 35 439 76.5 517 c 128,-1,5
 118 595 118 595 193 637.5 c 128,-1,6
 268 680 268 680 366 680 c 0,7,8
 455 680 455 680 527 642 c 128,-1,9
 599 604 599 604 633 533 c 1,10,-1
 513 489 l 1,11,12
 494 526 494 526 455.5 548 c 128,-1,13
 417 570 417 570 363 570 c 0,14,15
 310 570 310 570 267 543 c 128,-1,16
 224 516 224 516 199.5 463.5 c 128,-1,17
 175 411 175 411 175 336 c 0,18,19
 175 224 175 224 226.5 161 c 128,-1,20
 278 98 278 98 363 98 c 0,21,22
 432 98 432 98 481.5 130.5 c 128,-1,23
 531 163 531 163 531 235 c 2,24,-1
 531 255 l 1,25,-1
 363 255 l 1,26,-1
 363 365 l 1,27,-1
 662 365 l 1,28,-1
 662 0 l 1,29,-1
 577 0 l 1,30,-1
 554 78 l 1,31,32
 492 -12 492 -12 347 -12 c 0,33,0
 251 -12 251 -12 180.5 31 c 128,-1,1
EndSplineSet
EndChar
StartChar: I
Encoding: 73 73 39
Width: 416
GlyphClass: 2
Flags: W
AnchorPoint: "Anchor-2" 368 10 basechar 0
AnchorPoint: "Anchor-1" 208 668 basechar 0
AnchorPoint: "Anchor-0" 208 0 basechar 0
LayerCount: 2
Fore
SplineSet
48 98 m 1,0,-1
 142 98 l 1,1,-1
 142 570 l 1,2,-1
 48 570 l 1,3,-1
 48 668 l 1,4,-1
 368 668 l 1,5,-1
 368 570 l 1,6,-1
 275 570 l 1,7,-1
 275 98 l 1,8,-1
 368 98 l 1,9,-1
 368 0 l 1,10,-1
 48 0 l 1,11,-1
 48 98 l 1,0,-1
EndSplineSet
EndChar
StartChar: J
Encoding: 74 74 48
Width: 549
GlyphClass: 2
Flags: W
AnchorPoint: "Anchor-1" 417 668 basechar 0
AnchorPoint: "Anchor-0" 270 0 basechar 0
LayerCount: 2
Fore
SplineSet
83.5 38.5 m 128,-1,1
 23 89 23 89 9 180 c 1,2,-1
 131 223 l 1,3,4
 136 165 136 165 166 129.5 c 128,-1,5
 196 94 196 94 244 94 c 0,6,7
 351 94 351 94 351 239 c 2,8,-1
 351 668 l 1,9,-1
 484 668 l 1,10,-1
 484 239 l 2,11,12
 484 119 484 119 421.5 53.5 c 128,-1,13
 359 -12 359 -12 243 -12 c 0,14,0
 144 -12 144 -12 83.5 38.5 c 128,-1,1
EndSplineSet
Substitution2: "Single Substitution lookup 14 subtable" uni004A0301
AlternateSubs2: "'aalt' Access All Alternates in Latin lookup 0 subtable" uni004A0301
EndChar
StartChar: K
Encoding: 75 75 50
Width: 655
GlyphClass: 2
Flags: W
AnchorPoint: "Anchor-1" 332 668 basechar 0
AnchorPoint: "Anchor-0" 332 0 basechar 0
LayerCount: 2
Fore
SplineSet
65 668 m 1,0,-1
 198 668 l 1,1,-1
 198 375 l 1,2,-1
 462 668 l 1,3,-1
 625 668 l 1,4,-1
 365 385 l 1,5,-1
 645 0 l 1,6,-1
 488 0 l 1,7,-1
 279 291 l 1,8,-1
 198 202 l 1,9,-1
 198 0 l 1,10,-1
 65 0 l 1,11,-1
 65 668 l 1,0,-1
EndSplineSet
EndChar
StartChar: L
Encoding: 76 76 52
Width: 549
GlyphClass: 2
Flags: W
AnchorPoint: "Anchor-3" 253 459 basechar 0
AnchorPoint: "Anchor-1" 277 668 basechar 0
AnchorPoint: "Anchor-0" 277 0 basechar 0
LayerCount: 2
Fore
SplineSet
65 668 m 1,0,-1
 198 668 l 1,1,-1
 198 116 l 1,2,-1
 533 116 l 1,3,-1
 533 0 l 1,4,-1
 65 0 l 1,5,-1
 65 668 l 1,0,-1
EndSplineSet
EndChar
StartChar: M
Encoding: 77 77 56
Width: 850
GlyphClass: 2
Flags: W
AnchorPoint: "Anchor-1" 425 668 basechar 0
AnchorPoint: "Anchor-0" 425 0 basechar 0
LayerCount: 2
Fore
SplineSet
65 668 m 1,0,-1
 271 668 l 1,1,-1
 425 163 l 1,2,-1
 580 668 l 1,3,-1
 785 668 l 1,4,-1
 785 0 l 1,5,-1
 654 0 l 1,6,-1
 654 543 l 1,7,-1
 482 0 l 1,8,-1
 367 0 l 1,9,-1
 195 543 l 1,10,-1
 195 0 l 1,11,-1
 65 0 l 1,12,-1
 65 668 l 1,0,-1
EndSplineSet
EndChar
StartChar: N
Encoding: 78 78 57
Width: 711
GlyphClass: 2
Flags: W
AnchorPoint: "Anchor-1" 356 668 basechar 0
AnchorPoint: "Anchor-0" 356 0 basechar 0
LayerCount: 2
Fore
SplineSet
65 668 m 1,0,-1
 241 668 l 1,1,-1
 517 156 l 1,2,-1
 517 668 l 1,3,-1
 647 668 l 1,4,-1
 647 0 l 1,5,-1
 470 0 l 1,6,-1
 194 513 l 1,7,-1
 194 0 l 1,8,-1
 65 0 l 1,9,-1
 65 668 l 1,0,-1
EndSplineSet
EndChar
StartChar: O
Encoding: 79 79 62
Width: 738
GlyphClass: 2
Flags: W
AnchorPoint: "Anchor-3" 722 668 basechar 0
AnchorPoint: "Anchor-2" 668 10 basechar 0
AnchorPoint: "Anchor-1" 370 668 basechar 0
AnchorPoint: "Anchor-0" 370 0 basechar 0
LayerCount: 2
Fore
SplineSet
195 31.5 m 128,-1,1
 119 75 119 75 77 153.5 c 128,-1,2
 35 232 35 232 35 334 c 256,3,4
 35 436 35 436 77 514.5 c 128,-1,5
 119 593 119 593 195 636.5 c 128,-1,6
 271 680 271 680 369 680 c 0,7,8
 468 680 468 680 543.5 636.5 c 128,-1,9
 619 593 619 593 661 514.5 c 128,-1,10
 703 436 703 436 703 334 c 256,11,12
 703 232 703 232 661 153.5 c 128,-1,13
 619 75 619 75 543.5 31.5 c 128,-1,14
 468 -12 468 -12 369 -12 c 0,15,0
 271 -12 271 -12 195 31.5 c 128,-1,1
467.5 125.5 m 128,-1,17
 512 153 512 153 537.5 206 c 128,-1,18
 563 259 563 259 563 334 c 256,19,20
 563 409 563 409 537.5 462 c 128,-1,21
 512 515 512 515 467.5 542.5 c 128,-1,22
 423 570 423 570 369 570 c 256,23,24
 315 570 315 570 271 542.5 c 128,-1,25
 227 515 227 515 201 462 c 128,-1,26
 175 409 175 409 175 334 c 256,27,28
 175 259 175 259 201 206 c 128,-1,29
 227 153 227 153 271 125.5 c 128,-1,30
 315 98 315 98 369 98 c 256,31,16
 423 98 423 98 467.5 125.5 c 128,-1,17
EndSplineSet
Substitution2: "Single Substitution lookup 15 subtable" ordmasculine
AlternateSubs2: "'aalt' Access All Alternates in Latin lookup 0 subtable" ordmasculine
EndChar
StartChar: P
Encoding: 80 80 71
Width: 619
GlyphClass: 2
Flags: W
AnchorPoint: "Anchor-1" 319 668 basechar 0
AnchorPoint: "Anchor-0" 319 0 basechar 0
LayerCount: 2
Fore
SplineSet
65 668 m 1,0,-1
 341 668 l 2,1,2
 455 668 455 668 526 615 c 128,-1,3
 597 562 597 562 597 456 c 256,4,5
 597 350 597 350 526 297 c 128,-1,6
 455 244 455 244 341 244 c 2,7,-1
 198 244 l 1,8,-1
 198 0 l 1,9,-1
 65 0 l 1,10,-1
 65 668 l 1,0,-1
425.5 381 m 128,-1,12
 458 405 458 405 458 456 c 256,13,14
 458 507 458 507 425.5 531 c 128,-1,15
 393 555 393 555 337 555 c 2,16,-1
 198 555 l 1,17,-1
 198 357 l 1,18,-1
 337 357 l 2,19,11
 393 357 393 357 425.5 381 c 128,-1,12
EndSplineSet
EndChar
StartChar: Q
Encoding: 81 81 73
Width: 748
GlyphClass: 1
Flags: W
LayerCount: 2
Fore
SplineSet
195 31.5 m 128,-1,1
 119 75 119 75 77 153.5 c 128,-1,2
 35 232 35 232 35 334 c 256,3,4
 35 436 35 436 77 514.5 c 128,-1,5
 119 593 119 593 195 636.5 c 128,-1,6
 271 680 271 680 369 680 c 0,7,8
 468 680 468 680 543.5 636.5 c 128,-1,9
 619 593 619 593 661 514.5 c 128,-1,10
 703 436 703 436 703 334 c 0,11,12
 703 221 703 221 651 136 c 1,13,-1
 764 29 l 1,14,-1
 689 -51 l 1,15,-1
 577 54 l 1,16,17
 491 -12 491 -12 369 -12 c 0,18,0
 271 -12 271 -12 195 31.5 c 128,-1,1
486 140 m 1,20,-1
 329 289 l 1,21,-1
 404 367 l 1,22,-1
 548 232 l 1,23,24
 563 282 563 282 563 334 c 0,25,26
 563 409 563 409 537.5 462 c 128,-1,27
 512 515 512 515 467.5 542.5 c 128,-1,28
 423 570 423 570 369 570 c 256,29,30
 315 570 315 570 271 542.5 c 128,-1,31
 227 515 227 515 201 462 c 128,-1,32
 175 409 175 409 175 334 c 256,33,34
 175 259 175 259 201 206 c 128,-1,35
 227 153 227 153 271 125.5 c 128,-1,36
 315 98 315 98 369 98 c 0,37,19
 438 98 438 98 486 140 c 1,20,-1
EndSplineSet
EndChar
StartChar: R
Encoding: 82 82 74
Width: 641
GlyphClass: 2
Flags: W
AnchorPoint: "Anchor-1" 322 668 basechar 0
AnchorPoint: "Anchor-0" 327 0 basechar 0
LayerCount: 2
Fore
SplineSet
65 668 m 1,0,-1
 347 668 l 2,1,2
 459 668 459 668 528.5 617 c 128,-1,3
 598 566 598 566 598 464 c 0,4,5
 598 383 598 383 552.5 335 c 128,-1,6
 507 287 507 287 429 271 c 1,7,-1
 625 0 l 1,8,-1
 467 0 l 1,9,-1
 284 261 l 1,10,-1
 198 261 l 1,11,-1
 198 0 l 1,12,-1
 65 0 l 1,13,-1
 65 668 l 1,0,-1
428 395.5 m 128,-1,15
 459 417 459 417 459 464 c 256,16,17
 459 511 459 511 428 533 c 128,-1,18
 397 555 397 555 343 555 c 2,19,-1
 198 555 l 1,20,-1
 198 374 l 1,21,-1
 343 374 l 2,22,14
 397 374 397 374 428 395.5 c 128,-1,15
EndSplineSet
EndChar
StartChar: S
Encoding: 83 83 77
Width: 605
GlyphClass: 2
Flags: W
AnchorPoint: "Anchor-1" 303 668 basechar 0
AnchorPoint: "Anchor-0" 303 0 basechar 0
LayerCount: 2
Fore
SplineSet
130 30.5 m 128,-1,1
 57 73 57 73 28 153 c 1,2,-1
 150 197 l 1,3,4
 162 150 162 150 206.5 123 c 128,-1,5
 251 96 251 96 308 96 c 0,6,7
 367 96 367 96 405.5 119 c 128,-1,8
 444 142 444 142 444 188 c 0,9,10
 444 224 444 224 416.5 244.5 c 128,-1,11
 389 265 389 265 321 280 c 2,12,-1
 236 298 l 2,13,14
 44 338 44 338 44 481 c 0,15,16
 44 540 44 540 79.5 585.5 c 128,-1,17
 115 631 115 631 176 655.5 c 128,-1,18
 237 680 237 680 311 680 c 0,19,20
 394 680 394 680 460.5 646 c 128,-1,21
 527 612 527 612 557 543 c 1,22,-1
 436 499 l 1,23,24
 420 534 420 534 384 553 c 128,-1,25
 348 572 348 572 300 572 c 0,26,27
 247 572 247 572 212 550.5 c 128,-1,28
 177 529 177 529 177 491 c 0,29,30
 177 432 177 432 265 414 c 2,31,-1
 356 394 l 2,32,33
 428 378 428 378 475 356.5 c 128,-1,34
 522 335 522 335 549.5 297.5 c 128,-1,35
 577 260 577 260 577 200 c 0,36,37
 577 134 577 134 539.5 86 c 128,-1,38
 502 38 502 38 439.5 13 c 128,-1,39
 377 -12 377 -12 304 -12 c 0,40,0
 203 -12 203 -12 130 30.5 c 128,-1,1
EndSplineSet
EndChar
StartChar: T
Encoding: 84 84 83
Width: 595
GlyphClass: 2
Flags: W
AnchorPoint: "Anchor-1" 297 668 basechar 0
AnchorPoint: "Anchor-0" 297 0 basechar 0
LayerCount: 2
Fore
SplineSet
231 552 m 1,0,-1
 13 552 l 1,1,-1
 13 668 l 1,2,-1
 582 668 l 1,3,-1
 582 552 l 1,4,-1
 364 552 l 1,5,-1
 364 0 l 1,6,-1
 231 0 l 1,7,-1
 231 552 l 1,0,-1
EndSplineSet
EndChar
StartChar: U
Encoding: 85 85 87
Width: 687
GlyphClass: 2
Flags: W
AnchorPoint: "Anchor-3" 661 668 basechar 0
AnchorPoint: "Anchor-2" 544 10 basechar 0
AnchorPoint: "Anchor-1" 344 668 basechar 0
AnchorPoint: "Anchor-0" 345 0 basechar 0
LayerCount: 2
Fore
SplineSet
128.5 60.5 m 128,-1,1
 63 133 63 133 63 287 c 2,2,-1
 63 668 l 1,3,-1
 196 668 l 1,4,-1
 196 273 l 2,5,6
 196 181 196 181 230.5 139.5 c 128,-1,7
 265 98 265 98 344 98 c 256,8,9
 423 98 423 98 457 139.5 c 128,-1,10
 491 181 491 181 491 273 c 2,11,-1
 491 668 l 1,12,-1
 624 668 l 1,13,-1
 624 287 l 2,14,15
 624 133 624 133 558.5 60.5 c 128,-1,16
 493 -12 493 -12 344 -12 c 0,17,0
 194 -12 194 -12 128.5 60.5 c 128,-1,1
EndSplineSet
EndChar
StartChar: V
Encoding: 86 86 96
Width: 631
GlyphClass: 2
Flags: W
AnchorPoint: "Anchor-1" 316 668 basechar 0
AnchorPoint: "Anchor-0" 316 0 basechar 0
LayerCount: 2
Fore
SplineSet
11 668 m 1,0,-1
 151 668 l 1,1,-1
 315 151 l 1,2,-1
 480 668 l 1,3,-1
 621 668 l 1,4,-1
 392 0 l 1,5,-1
 238 0 l 1,6,-1
 11 668 l 1,0,-1
EndSplineSet
EndChar
StartChar: W
Encoding: 87 87 97
Width: 879
GlyphClass: 2
Flags: W
AnchorPoint: "Anchor-1" 440 668 basechar 0
AnchorPoint: "Anchor-0" 440 0 basechar 0
LayerCount: 2
Fore
SplineSet
16 668 m 1,0,-1
 153 668 l 1,1,-1
 260 170 l 1,2,-1
 368 668 l 1,3,-1
 510 668 l 1,4,-1
 618 170 l 1,5,-1
 726 668 l 1,6,-1
 862 668 l 1,7,-1
 699 0 l 1,8,-1
 552 0 l 1,9,-1
 439 502 l 1,10,-1
 327 0 l 1,11,-1
 180 0 l 1,12,-1
 16 668 l 1,0,-1
EndSplineSet
EndChar
StartChar: X
Encoding: 88 88 102
Width: 669
GlyphClass: 2
Flags: W
AnchorPoint: "Anchor-1" 335 668 basechar 0
AnchorPoint: "Anchor-0" 335 0 basechar 0
LayerCount: 2
Fore
SplineSet
255 343 m 1,0,-1
 24 668 l 1,1,-1
 183 668 l 1,2,-1
 334 455 l 1,3,-1
 486 668 l 1,4,-1
 645 668 l 1,5,-1
 414 343 l 1,6,-1
 659 0 l 1,7,-1
 499 0 l 1,8,-1
 334 232 l 1,9,-1
 170 0 l 1,10,-1
 10 0 l 1,11,-1
 255 343 l 1,0,-1
EndSplineSet
EndChar
StartChar: Z
Encoding: 90 90 108
Width: 616
GlyphClass: 2
Flags: W
AnchorPoint: "Anchor-1" 308 668 basechar 0
AnchorPoint: "Anchor-0" 308 0 basechar 0
LayerCount: 2
Fore
SplineSet
37 105 m 1,0,-1
 396 552 l 1,1,-1
 52 552 l 1,2,-1
 52 668 l 1,3,-1
 564 668 l 1,4,-1
 564 563 l 1,5,-1
 207 116 l 1,6,-1
 579 116 l 1,7,-1
 579 0 l 1,8,-1
 37 0 l 1,9,-1
 37 105 l 1,0,-1
EndSplineSet
EndChar
StartChar: bracketleft
Encoding: 91 91 281
Width: 334
GlyphClass: 1
Flags: W
LayerCount: 2
Fore
SplineSet
65 708 m 1,0,-1
 301 708 l 1,1,-1
 301 608 l 1,2,-1
 174 608 l 1,3,-1
 174 -62 l 1,4,-1
 301 -62 l 1,5,-1
 301 -162 l 1,6,-1
 65 -162 l 1,7,-1
 65 708 l 1,0,-1
EndSplineSet
EndChar
StartChar: bracketright
Encoding: 93 93 282
Width: 344
GlyphClass: 1
Flags: W
LayerCount: 2
Fore
SplineSet
43 -62 m 1,0,-1
 170 -62 l 1,1,-1
 170 608 l 1,2,-1
 43 608 l 1,3,-1
 43 708 l 1,4,-1
 279 708 l 1,5,-1
 279 -162 l 1,6,-1
 43 -162 l 1,7,-1
 43 -62 l 1,0,-1
EndSplineSet
EndChar
StartChar: underscore
Encoding: 95 95 276
Width: 393
GlyphClass: 1
Flags: W
LayerCount: 2
Fore
SplineSet
-2 0 m 1,0,-1
 395 0 l 1,1,-1
 395 -109 l 1,2,-1
 -2 -109 l 1,3,-1
 -2 0 l 1,0,-1
EndSplineSet
EndChar
StartChar: a
Encoding: 97 97 112
Width: 545
GlyphClass: 2
Flags: W
AnchorPoint: "Anchor-2" 500 10 basechar 0
AnchorPoint: "Anchor-1" 270 496 basechar 0
AnchorPoint: "Anchor-0" 270 0 basechar 0
LayerCount: 2
Fore
SplineSet
75.5 27 m 128,-1,1
 26 66 26 66 26 132 c 0,2,3
 26 215 26 215 111.5 256 c 128,-1,4
 197 297 197 297 363 311 c 1,5,-1
 363 324 l 2,6,7
 363 371 363 371 338 395 c 128,-1,8
 313 419 313 419 265 419 c 0,9,10
 227 419 227 419 201.5 402 c 128,-1,11
 176 385 176 385 169 353 c 1,12,-1
 59 390 l 1,13,14
 82 444 82 444 137.5 476 c 128,-1,15
 193 508 193 508 268 508 c 0,16,17
 376 508 376 508 429 459 c 128,-1,18
 482 410 482 410 482 303 c 2,19,-1
 482 191 l 2,20,21
 482 139 482 139 487 87 c 128,-1,22
 492 35 492 35 500 0 c 1,23,-1
 384 0 l 1,24,-1
 365 63 l 1,25,26
 316 -12 316 -12 198 -12 c 0,27,0
 125 -12 125 -12 75.5 27 c 128,-1,1
363 204 m 2,29,-1
 363 230 l 1,30,31
 261 222 261 222 209.5 201 c 128,-1,32
 158 180 158 180 158 140 c 0,33,34
 158 112 158 112 180.5 95 c 128,-1,35
 203 78 203 78 240 78 c 0,36,28
 363 78 363 78 363 204 c 2,29,-1
EndSplineSet
Substitution2: "Single Substitution lookup 15 subtable" ordfeminine
AlternateSubs2: "'aalt' Access All Alternates in Latin lookup 0 subtable" ordfeminine
EndChar
StartChar: b
Encoding: 98 98 123
Width: 589
GlyphClass: 2
Flags: W
AnchorPoint: "Anchor-1" 295 496 basechar 0
AnchorPoint: "Anchor-0" 295 0 basechar 0
LayerCount: 2
Fore
SplineSet
250.5 9.5 m 128,-1,1
 209 31 209 31 186 70 c 1,2,-1
 166 0 l 1,3,-1
 60 0 l 1,4,-1
 60 708 l 1,5,-1
 186 708 l 1,6,-1
 186 424 l 1,7,8
 209 464 209 464 251 486 c 128,-1,9
 293 508 293 508 341 508 c 0,10,11
 402 508 402 508 451.5 477 c 128,-1,12
 501 446 501 446 529 387.5 c 128,-1,13
 557 329 557 329 557 250 c 0,14,15
 557 170 557 170 529 111 c 128,-1,16
 501 52 501 52 451.5 20 c 128,-1,17
 402 -12 402 -12 341 -12 c 0,18,0
 292 -12 292 -12 250.5 9.5 c 128,-1,1
390 131.5 m 128,-1,20
 424 175 424 175 424 250 c 0,21,22
 424 324 424 324 390 366 c 128,-1,23
 356 408 356 408 303 408 c 0,24,25
 248 408 248 408 214.5 367 c 128,-1,26
 181 326 181 326 181 248 c 0,27,28
 181 169 181 169 214.5 128.5 c 128,-1,29
 248 88 248 88 303 88 c 0,30,19
 356 88 356 88 390 131.5 c 128,-1,20
EndSplineSet
EndChar
StartChar: c
Encoding: 99 99 124
Width: 504
GlyphClass: 2
Flags: W
AnchorPoint: "Anchor-1" 284 496 basechar 0
AnchorPoint: "Anchor-0" 276 0 basechar 0
LayerCount: 2
Fore
SplineSet
144.5 21 m 128,-1,1
 89 54 89 54 60 113 c 128,-1,2
 31 172 31 172 31 249 c 0,3,4
 31 325 31 325 62 384 c 128,-1,5
 93 443 93 443 149.5 475.5 c 128,-1,6
 206 508 206 508 280 508 c 0,7,8
 347 508 347 508 403.5 476.5 c 128,-1,9
 460 445 460 445 489 385 c 1,10,-1
 382 346 l 1,11,12
 368 376 368 376 342 391.5 c 128,-1,13
 316 407 316 407 283 407 c 0,14,15
 231 407 231 407 196 367.5 c 128,-1,16
 161 328 161 328 161 249 c 0,17,18
 161 168 161 168 196 128.5 c 128,-1,19
 231 89 231 89 283 89 c 0,20,21
 316 89 316 89 342 103.5 c 128,-1,22
 368 118 368 118 383 143 c 1,23,-1
 489 104 l 1,24,25
 456 47 456 47 398.5 17.5 c 128,-1,26
 341 -12 341 -12 276 -12 c 0,27,0
 200 -12 200 -12 144.5 21 c 128,-1,1
EndSplineSet
EndChar
StartChar: d
Encoding: 100 100 129
Width: 588
GlyphClass: 2
Flags: W
AnchorPoint: "Anchor-3" 556 496 basechar 0
AnchorPoint: "Anchor-1" 293 796 basechar 0
AnchorPoint: "Anchor-0" 293 0 basechar 0
LayerCount: 2
Fore
SplineSet
137.5 20 m 128,-1,1
 88 52 88 52 59.5 111 c 128,-1,2
 31 170 31 170 31 250 c 0,3,4
 31 329 31 329 59.5 387.5 c 128,-1,5
 88 446 88 446 137.5 477 c 128,-1,6
 187 508 187 508 248 508 c 0,7,8
 296 508 296 508 337.5 486 c 128,-1,9
 379 464 379 464 403 424 c 1,10,-1
 403 708 l 1,11,-1
 528 708 l 1,12,-1
 528 191 l 2,13,14
 528 88 528 88 545 0 c 1,15,-1
 426 0 l 1,16,-1
 406 68 l 1,17,18
 377 28 377 28 336.5 8 c 128,-1,19
 296 -12 296 -12 248 -12 c 0,20,0
 187 -12 187 -12 137.5 20 c 128,-1,1
374 128.5 m 128,-1,22
 408 169 408 169 408 248 c 0,23,24
 408 325 408 325 374 366.5 c 128,-1,25
 340 408 340 408 286 408 c 256,26,27
 232 408 232 408 198 366 c 128,-1,28
 164 324 164 324 164 250 c 0,29,30
 164 175 164 175 198 131.5 c 128,-1,31
 232 88 232 88 286 88 c 256,32,21
 340 88 340 88 374 128.5 c 128,-1,22
EndSplineSet
EndChar
StartChar: e
Encoding: 101 101 133
Width: 557
GlyphClass: 2
Flags: W
AnchorPoint: "Anchor-2" 459 10 basechar 0
AnchorPoint: "Anchor-1" 293 496 basechar 0
AnchorPoint: "Anchor-0" 280 0 basechar 0
LayerCount: 2
Fore
SplineSet
154 20.5 m 128,-1,1
 95 53 95 53 63 112 c 128,-1,2
 31 171 31 171 31 249 c 0,3,4
 31 326 31 326 65 385 c 128,-1,5
 99 444 99 444 157.5 476 c 128,-1,6
 216 508 216 508 287 508 c 0,7,8
 361 508 361 508 417 473 c 128,-1,9
 473 438 473 438 503 377.5 c 128,-1,10
 533 317 533 317 533 242 c 0,11,12
 533 224 533 224 532 215 c 1,13,-1
 156 215 l 1,14,15
 166 149 166 149 203.5 119 c 128,-1,16
 241 89 241 89 289 89 c 0,17,18
 362 89 362 89 396 131 c 1,19,-1
 501 94 l 1,20,21
 467 43 467 43 412 15.5 c 128,-1,22
 357 -12 357 -12 292 -12 c 0,23,0
 213 -12 213 -12 154 20.5 c 128,-1,1
375.5 379 m 128,-1,25
 342 411 342 411 290 411 c 0,26,27
 239 411 239 411 203 384 c 128,-1,28
 167 357 167 357 156 297 c 1,29,-1
 412 297 l 1,30,24
 409 347 409 347 375.5 379 c 128,-1,25
EndSplineSet
EndChar
StartChar: f
Encoding: 102 102 142
Width: 352
GlyphClass: 2
Flags: W
AnchorPoint: "Anchor-1" 176 796 basechar 0
AnchorPoint: "Anchor-0" 176 0 basechar 0
LayerCount: 2
Fore
SplineSet
95 399 m 1,0,-1
 12 399 l 1,1,-1
 12 496 l 1,2,-1
 95 496 l 1,3,-1
 95 573 l 2,4,5
 95 630 95 630 111 661 c 128,-1,6
 127 692 127 692 163 705 c 128,-1,7
 199 718 199 718 263 718 c 2,8,-1
 326 718 l 1,9,-1
 326 617 l 1,10,-1
 280 617 l 2,11,12
 243 617 243 617 231.5 607 c 128,-1,13
 220 597 220 597 220 565 c 2,14,-1
 220 496 l 1,15,-1
 326 496 l 1,16,-1
 326 399 l 1,17,-1
 220 399 l 1,18,-1
 220 0 l 1,19,-1
 95 0 l 1,20,-1
 95 399 l 1,0,-1
EndSplineSet
EndChar
StartChar: g
Encoding: 103 103 143
Width: 584
GlyphClass: 2
Flags: W
AnchorPoint: "Anchor-1" 293 496 basechar 0
AnchorPoint: "Anchor-0" 293 -251 basechar 0
LayerCount: 2
Fore
SplineSet
161 -171.5 m 128,-1,1
 103 -144 103 -144 77 -85 c 1,2,-1
 183 -42 l 1,3,4
 196 -70 196 -70 224 -85 c 128,-1,5
 252 -100 252 -100 292 -100 c 0,6,7
 340 -100 340 -100 370.5 -74 c 128,-1,8
 401 -48 401 -48 401 9 c 2,9,-1
 401 95 l 1,10,11
 372 56 372 56 332 35 c 128,-1,12
 292 14 292 14 244 14 c 0,13,14
 188 14 188 14 139.5 43.5 c 128,-1,15
 91 73 91 73 61 128.5 c 128,-1,16
 31 184 31 184 31 258 c 0,17,18
 31 338 31 338 60.5 394.5 c 128,-1,19
 90 451 90 451 138 479.5 c 128,-1,20
 186 508 186 508 241 508 c 0,21,22
 292 508 292 508 333 486 c 128,-1,23
 374 464 374 464 401 424 c 1,24,-1
 422 496 l 1,25,-1
 526 496 l 1,26,-1
 526 26 l 2,27,28
 526 -87 526 -87 462.5 -143 c 128,-1,29
 399 -199 399 -199 287 -199 c 0,30,0
 219 -199 219 -199 161 -171.5 c 128,-1,1
372.5 149 m 128,-1,32
 406 184 406 184 406 260 c 0,33,34
 406 337 406 337 372.5 372.5 c 128,-1,35
 339 408 339 408 285 408 c 256,36,37
 231 408 231 408 197 370.5 c 128,-1,38
 163 333 163 333 163 263 c 0,39,40
 163 192 163 192 197 153 c 128,-1,41
 231 114 231 114 285 114 c 256,42,31
 339 114 339 114 372.5 149 c 128,-1,32
EndSplineSet
EndChar
StartChar: h
Encoding: 104 104 147
Width: 566
GlyphClass: 2
Flags: W
AnchorPoint: "Anchor-1" 284 796 basechar 0
AnchorPoint: "Anchor-0" 284 0 basechar 0
LayerCount: 2
Fore
SplineSet
60 708 m 1,0,-1
 186 708 l 1,1,-1
 186 426 l 1,2,3
 206 461 206 461 246 484.5 c 128,-1,4
 286 508 286 508 342 508 c 0,5,6
 431 508 431 508 469 457 c 128,-1,7
 507 406 507 406 507 307 c 2,8,-1
 507 0 l 1,9,-1
 382 0 l 1,10,-1
 382 274 l 2,11,12
 382 317 382 317 376.5 345 c 128,-1,13
 371 373 371 373 351.5 390.5 c 128,-1,14
 332 408 332 408 293 408 c 0,15,16
 240 408 240 408 213 370.5 c 128,-1,17
 186 333 186 333 186 260 c 2,18,-1
 186 0 l 1,19,-1
 60 0 l 1,20,-1
 60 708 l 1,0,-1
EndSplineSet
EndChar
StartChar: k
Encoding: 107 107 161
Width: 540
GlyphClass: 2
Flags: W
AnchorPoint: "Anchor-1" 271 796 basechar 0
AnchorPoint: "Anchor-0" 271 0 basechar 0
LayerCount: 2
Fore
SplineSet
60 708 m 1,0,-1
 186 708 l 1,1,-1
 186 294 l 1,2,-1
 365 496 l 1,3,-1
 514 496 l 1,4,-1
 324 290 l 1,5,-1
 533 0 l 1,6,-1
 383 0 l 1,7,-1
 240 200 l 1,8,-1
 186 141 l 1,9,-1
 186 0 l 1,10,-1
 60 0 l 1,11,-1
 60 708 l 1,0,-1
EndSplineSet
EndChar
StartChar: l
Encoding: 108 108 163
Width: 304
GlyphClass: 2
Flags: W
AnchorPoint: "Anchor-3" 210 497 basechar 0
AnchorPoint: "Anchor-1" 142 796 basechar 0
AnchorPoint: "Anchor-0" 148 0 basechar 0
LayerCount: 2
Fore
SplineSet
114.5 10.5 m 128,-1,1
 84 21 84 21 70.5 49 c 128,-1,2
 57 77 57 77 57 131 c 2,3,-1
 57 708 l 1,4,-1
 182 708 l 1,5,-1
 182 160 l 2,6,7
 182 126 182 126 194.5 115 c 128,-1,8
 207 104 207 104 245 104 c 2,9,-1
 284 104 l 1,10,-1
 284 0 l 1,11,-1
 203 0 l 2,12,0
 145 0 145 0 114.5 10.5 c 128,-1,1
EndSplineSet
EndChar
StartChar: m
Encoding: 109 109 167
Width: 872
GlyphClass: 2
Flags: W
AnchorPoint: "Anchor-1" 437 496 basechar 0
AnchorPoint: "Anchor-0" 437 0 basechar 0
LayerCount: 2
Fore
SplineSet
60 496 m 1,0,-1
 166 496 l 1,1,-1
 186 426 l 1,2,3
 206 461 206 461 244.5 484.5 c 128,-1,4
 283 508 283 508 335 508 c 0,5,6
 445 508 445 508 481 423 c 1,7,8
 510 465 510 465 553.5 486.5 c 128,-1,9
 597 508 597 508 650 508 c 0,10,11
 738 508 738 508 776 457 c 128,-1,12
 814 406 814 406 814 307 c 2,13,-1
 814 0 l 1,14,-1
 689 0 l 1,15,-1
 689 274 l 2,16,17
 689 339 689 339 672 373.5 c 128,-1,18
 655 408 655 408 600 408 c 0,19,20
 551 408 551 408 525.5 372 c 128,-1,21
 500 336 500 336 500 265 c 2,22,-1
 500 0 l 1,23,-1
 374 0 l 1,24,-1
 374 274 l 2,25,26
 374 339 374 339 357.5 373.5 c 128,-1,27
 341 408 341 408 288 408 c 0,28,29
 238 408 238 408 212 371 c 128,-1,30
 186 334 186 334 186 263 c 2,31,-1
 186 0 l 1,32,-1
 60 0 l 1,33,-1
 60 496 l 1,0,-1
EndSplineSet
EndChar
StartChar: n
Encoding: 110 110 168
Width: 566
GlyphClass: 2
Flags: W
AnchorPoint: "Anchor-1" 284 496 basechar 0
AnchorPoint: "Anchor-0" 284 0 basechar 0
LayerCount: 2
Fore
SplineSet
60 496 m 1,0,-1
 166 496 l 1,1,-1
 186 426 l 1,2,3
 206 461 206 461 246 484.5 c 128,-1,4
 286 508 286 508 342 508 c 0,5,6
 431 508 431 508 469 457 c 128,-1,7
 507 406 507 406 507 307 c 2,8,-1
 507 0 l 1,9,-1
 382 0 l 1,10,-1
 382 274 l 2,11,12
 382 317 382 317 376.5 345 c 128,-1,13
 371 373 371 373 351.5 390.5 c 128,-1,14
 332 408 332 408 293 408 c 0,15,16
 240 408 240 408 213 370.5 c 128,-1,17
 186 333 186 333 186 260 c 2,18,-1
 186 0 l 1,19,-1
 60 0 l 1,20,-1
 60 496 l 1,0,-1
EndSplineSet
EndChar
StartChar: o
Encoding: 111 111 173
Width: 569
GlyphClass: 2
Flags: W
AnchorPoint: "Anchor-3" 546 496 basechar 0
AnchorPoint: "Anchor-2" 510 10 basechar 0
AnchorPoint: "Anchor-1" 284 496 basechar 0
AnchorPoint: "Anchor-0" 284 0 basechar 0
LayerCount: 2
Fore
SplineSet
159.5 16.5 m 128,-1,1
 102 45 102 45 66.5 103.5 c 128,-1,2
 31 162 31 162 31 248 c 0,3,4
 31 333 31 333 66.5 392 c 128,-1,5
 102 451 102 451 159.5 479.5 c 128,-1,6
 217 508 217 508 284 508 c 256,7,8
 351 508 351 508 409 479.5 c 128,-1,9
 467 451 467 451 502.5 392 c 128,-1,10
 538 333 538 333 538 248 c 0,11,12
 538 162 538 162 502.5 103.5 c 128,-1,13
 467 45 467 45 409 16.5 c 128,-1,14
 351 -12 351 -12 284 -12 c 256,15,0
 217 -12 217 -12 159.5 16.5 c 128,-1,1
373 128 m 128,-1,17
 408 167 408 167 408 248 c 0,18,19
 408 328 408 328 373 367.5 c 128,-1,20
 338 407 338 407 284 407 c 0,21,22
 231 407 231 407 196 367.5 c 128,-1,23
 161 328 161 328 161 248 c 0,24,25
 161 167 161 167 196 128 c 128,-1,26
 231 89 231 89 284 89 c 0,27,16
 338 89 338 89 373 128 c 128,-1,17
EndSplineSet
Substitution2: "Single Substitution lookup 15 subtable" ordmasculine
AlternateSubs2: "'aalt' Access All Alternates in Latin lookup 0 subtable" ordmasculine
EndChar
StartChar: q
Encoding: 113 113 184
Width: 593
GlyphClass: 2
Flags: W
AnchorPoint: "Anchor-1" 298 496 basechar 0
AnchorPoint: "Anchor-0" 298 0 basechar 0
LayerCount: 2
Fore
SplineSet
447 -137.5 m 128,-1,1
 403 -103 403 -103 403 -18 c 2,2,-1
 403 72 l 1,3,4
 381 32 381 32 338.5 10 c 128,-1,5
 296 -12 296 -12 248 -12 c 0,6,7
 187 -12 187 -12 137.5 19 c 128,-1,8
 88 50 88 50 59.5 109 c 128,-1,9
 31 168 31 168 31 247 c 256,10,11
 31 326 31 326 59.5 385 c 128,-1,12
 88 444 88 444 137.5 476 c 128,-1,13
 187 508 187 508 248 508 c 0,14,15
 296 508 296 508 337.5 486 c 128,-1,16
 379 464 379 464 403 424 c 1,17,-1
 424 496 l 1,18,-1
 528 496 l 1,19,-1
 528 14 l 2,20,21
 528 -22 528 -22 541.5 -40 c 128,-1,22
 555 -58 555 -58 593 -58 c 0,23,24
 625 -58 625 -58 655 -48 c 1,25,-1
 655 -158 l 1,26,27
 617 -172 617 -172 560 -172 c 0,28,0
 491 -172 491 -172 447 -137.5 c 128,-1,1
374 129.5 m 128,-1,30
 408 171 408 171 408 249 c 256,31,32
 408 327 408 327 374 367.5 c 128,-1,33
 340 408 340 408 286 408 c 256,34,35
 232 408 232 408 198 365 c 128,-1,36
 164 322 164 322 164 247 c 256,37,38
 164 172 164 172 198 130 c 128,-1,39
 232 88 232 88 286 88 c 256,40,29
 340 88 340 88 374 129.5 c 128,-1,30
EndSplineSet
EndChar
StartChar: r
Encoding: 114 114 185
Width: 369
GlyphClass: 2
Flags: W
AnchorPoint: "Anchor-1" 208 496 basechar 0
AnchorPoint: "Anchor-0" 182 0 basechar 0
LayerCount: 2
Fore
SplineSet
60 496 m 1,0,-1
 157 496 l 1,1,-1
 184 405 l 1,2,3
 233 511 233 511 351 508 c 1,4,-1
 351 381 l 1,5,6
 343 382 343 382 327 382 c 0,7,8
 254 382 254 382 220 346 c 128,-1,9
 186 310 186 310 186 236 c 2,10,-1
 186 0 l 1,11,-1
 60 0 l 1,12,-1
 60 496 l 1,0,-1
EndSplineSet
EndChar
StartChar: s
Encoding: 115 115 188
Width: 499
GlyphClass: 2
Flags: W
AnchorPoint: "Anchor-1" 253 496 basechar 0
AnchorPoint: "Anchor-0" 256 0 basechar 0
LayerCount: 2
Fore
SplineSet
110.5 20 m 128,-1,1
 48 53 48 53 22 113 c 1,2,-1
 132 154 l 1,3,4
 141 120 141 120 175.5 101 c 128,-1,5
 210 82 210 82 255 82 c 0,6,7
 297 82 297 82 326.5 98 c 128,-1,8
 356 114 356 114 356 141 c 0,9,10
 356 164 356 164 336 177 c 128,-1,11
 316 190 316 190 269 199 c 2,12,-1
 194 214 l 2,13,14
 38 243 38 243 38 356 c 0,15,16
 38 403 38 403 67 437.5 c 128,-1,17
 96 472 96 472 145 490 c 128,-1,18
 194 508 194 508 251 508 c 0,19,20
 324 508 324 508 380.5 481 c 128,-1,21
 437 454 437 454 463 398 c 1,22,-1
 354 358 l 1,23,24
 342 386 342 386 314 400 c 128,-1,25
 286 414 286 414 247 414 c 0,26,27
 206 414 206 414 182.5 400 c 128,-1,28
 159 386 159 386 159 362 c 0,29,30
 159 342 159 342 175 331 c 128,-1,31
 191 320 191 320 229 312 c 2,32,-1
 306 297 l 2,33,34
 395 280 395 280 436.5 247 c 128,-1,35
 478 214 478 214 478 149 c 0,36,37
 478 74 478 74 414 30.5 c 128,-1,38
 350 -13 350 -13 254 -13 c 0,39,0
 173 -13 173 -13 110.5 20 c 128,-1,1
EndSplineSet
EndChar
StartChar: t
Encoding: 116 116 194
Width: 363
GlyphClass: 2
Flags: W
AnchorPoint: "Anchor-3" 242 550 basechar 0
AnchorPoint: "Anchor-1" 177 496 basechar 0
AnchorPoint: "Anchor-0" 207 0 basechar 0
LayerCount: 2
Fore
SplineSet
153.5 10.5 m 128,-1,1
 123 21 123 21 110 49.5 c 128,-1,2
 97 78 97 78 97 134 c 2,3,-1
 97 399 l 1,4,-1
 14 399 l 1,5,-1
 14 496 l 1,6,-1
 97 496 l 1,7,-1
 97 620 l 1,8,-1
 222 620 l 1,9,-1
 222 496 l 1,10,-1
 328 496 l 1,11,-1
 328 399 l 1,12,-1
 222 399 l 1,13,-1
 222 164 l 2,14,15
 222 126 222 126 233.5 115 c 128,-1,16
 245 104 245 104 281 104 c 2,17,-1
 328 104 l 1,18,-1
 328 0 l 1,19,-1
 242 0 l 2,20,0
 184 0 184 0 153.5 10.5 c 128,-1,1
EndSplineSet
EndChar
StartChar: u
Encoding: 117 117 198
Width: 560
GlyphClass: 2
Flags: W
AnchorPoint: "Anchor-3" 538 496 basechar 0
AnchorPoint: "Anchor-2" 500 10 basechar 0
AnchorPoint: "Anchor-1" 280 496 basechar 0
AnchorPoint: "Anchor-0" 280 0 basechar 0
LayerCount: 2
Fore
SplineSet
96.5 39.5 m 128,-1,1
 58 91 58 91 58 191 c 2,2,-1
 58 496 l 1,3,-1
 184 496 l 1,4,-1
 184 224 l 2,5,6
 184 180 184 180 189.5 152 c 128,-1,7
 195 124 195 124 214 106.5 c 128,-1,8
 233 89 233 89 271 89 c 0,9,10
 324 89 324 89 349 123.5 c 128,-1,11
 374 158 374 158 374 231 c 2,12,-1
 374 496 l 1,13,-1
 500 496 l 1,14,-1
 500 0 l 1,15,-1
 395 0 l 1,16,-1
 374 71 l 1,17,18
 350 31 350 31 315.5 9.5 c 128,-1,19
 281 -12 281 -12 225 -12 c 0,20,0
 135 -12 135 -12 96.5 39.5 c 128,-1,1
EndSplineSet
EndChar
StartChar: w
Encoding: 119 119 208
Width: 726
GlyphClass: 2
Flags: W
AnchorPoint: "Anchor-1" 363 496 basechar 0
AnchorPoint: "Anchor-0" 363 0 basechar 0
LayerCount: 2
Fore
SplineSet
15 496 m 1,0,-1
 142 496 l 1,1,-1
 224 148 l 1,2,-1
 302 496 l 1,3,-1
 424 496 l 1,4,-1
 501 148 l 1,5,-1
 584 496 l 1,6,-1
 711 496 l 1,7,-1
 580 0 l 1,8,-1
 449 0 l 1,9,-1
 363 373 l 1,10,-1
 277 0 l 1,11,-1
 146 0 l 1,12,-1
 15 496 l 1,0,-1
EndSplineSet
EndChar
StartChar: x
Encoding: 120 120 213
Width: 525
GlyphClass: 2
Flags: W
AnchorPoint: "Anchor-1" 263 496 basechar 0
AnchorPoint: "Anchor-0" 263 0 basechar 0
LayerCount: 2
Fore
SplineSet
193 257 m 1,0,-1
 23 496 l 1,1,-1
 162 496 l 1,2,-1
 263 355 l 1,3,-1
 362 496 l 1,4,-1
 502 496 l 1,5,-1
 332 257 l 1,6,-1
 515 0 l 1,7,-1
 375 0 l 1,8,-1
 263 159 l 1,9,-1
 150 0 l 1,10,-1
 10 0 l 1,11,-1
 193 257 l 1,0,-1
EndSplineSet
EndChar
StartChar: y
Encoding: 121 121 214
Width: 503
GlyphClass: 2
Flags: W
AnchorPoint: "Anchor-1" 252 496 basechar 0
AnchorPoint: "Anchor-0" 252 0 basechar 0
LayerCount: 2
Fore
SplineSet
61 -66 m 1,0,-1
 98 -66 l 2,1,2
 130 -66 130 -66 146.5 -62.5 c 128,-1,3
 163 -59 163 -59 172.5 -48 c 128,-1,4
 182 -37 182 -37 191 -13 c 2,5,-1
 196 1 l 1,6,-1
 10 496 l 1,7,-1
 145 496 l 1,8,-1
 254 159 l 1,9,-1
 358 496 l 1,10,-1
 493 496 l 1,11,-1
 309 -9 l 2,12,13
 286 -72 286 -72 264 -103.5 c 128,-1,14
 242 -135 242 -135 208 -148.5 c 128,-1,15
 174 -162 174 -162 114 -162 c 2,16,-1
 61 -162 l 1,17,-1
 61 -66 l 1,0,-1
EndSplineSet
EndChar
StartChar: z
Encoding: 122 122 219
Width: 494
GlyphClass: 2
Flags: W
AnchorPoint: "Anchor-1" 247 496 basechar 0
AnchorPoint: "Anchor-0" 247 0 basechar 0
LayerCount: 2
Fore
SplineSet
34 103 m 1,0,-1
 300 393 l 1,1,-1
 46 393 l 1,2,-1
 46 496 l 1,3,-1
 458 496 l 1,4,-1
 458 393 l 1,5,-1
 192 103 l 1,6,-1
 470 103 l 1,7,-1
 470 0 l 1,8,-1
 34 0 l 1,9,-1
 34 103 l 1,0,-1
EndSplineSet
EndChar
StartChar: braceleft
Encoding: 123 123 279
Width: 372
GlyphClass: 1
Flags: W
LayerCount: 2
Fore
SplineSet
155.5 -128 m 128,-1,1
 121 -94 121 -94 121 -17 c 2,2,-1
 121 126 l 2,3,4
 121 178 121 178 102.5 199 c 128,-1,5
 84 220 84 220 29 221 c 1,6,-1
 29 325 l 1,7,8
 84 326 84 326 102.5 347 c 128,-1,9
 121 368 121 368 121 420 c 2,10,-1
 121 563 l 2,11,12
 121 640 121 640 155.5 674 c 128,-1,13
 190 708 190 708 276 708 c 2,14,-1
 338 708 l 1,15,-1
 338 607 l 1,16,-1
 294 607 l 2,17,18
 264 607 264 607 253 598 c 128,-1,19
 242 589 242 589 242 562 c 2,20,-1
 242 401 l 2,21,22
 242 346 242 346 222 317.5 c 128,-1,23
 202 289 202 289 155 276 c 1,24,-1
 155 270 l 1,25,26
 202 257 202 257 222 228.5 c 128,-1,27
 242 200 242 200 242 145 c 2,28,-1
 242 -16 l 2,29,30
 242 -43 242 -43 253 -52 c 128,-1,31
 264 -61 264 -61 294 -61 c 2,32,-1
 338 -61 l 1,33,-1
 338 -162 l 1,34,-1
 276 -162 l 2,35,0
 190 -162 190 -162 155.5 -128 c 128,-1,1
EndSplineSet
EndChar
StartChar: bar
Encoding: 124 124 305
Width: 250
GlyphClass: 1
Flags: W
LayerCount: 2
Fore
SplineSet
65 838 m 1,0,-1
 185 838 l 1,1,-1
 185 -162 l 1,2,-1
 65 -162 l 1,3,-1
 65 838 l 1,0,-1
EndSplineSet
EndChar
StartChar: braceright
Encoding: 125 125 280
Width: 372
GlyphClass: 1
Flags: W
LayerCount: 2
Fore
SplineSet
34 -61 m 1,0,-1
 78 -61 l 2,1,2
 108 -61 108 -61 119 -52 c 128,-1,3
 130 -43 130 -43 130 -16 c 2,4,-1
 130 145 l 2,5,6
 130 200 130 200 150 228.5 c 128,-1,7
 170 257 170 257 217 270 c 1,8,-1
 217 276 l 1,9,10
 170 289 170 289 150 317.5 c 128,-1,11
 130 346 130 346 130 401 c 2,12,-1
 130 562 l 2,13,14
 130 589 130 589 119 598 c 128,-1,15
 108 607 108 607 78 607 c 2,16,-1
 34 607 l 1,17,-1
 34 708 l 1,18,-1
 96 708 l 2,19,20
 182 708 182 708 216.5 674 c 128,-1,21
 251 640 251 640 251 563 c 2,22,-1
 251 420 l 2,23,24
 251 368 251 368 269.5 347 c 128,-1,25
 288 326 288 326 343 325 c 1,26,-1
 343 221 l 1,27,28
 288 220 288 220 269.5 199 c 128,-1,29
 251 178 251 178 251 126 c 2,30,-1
 251 -17 l 2,31,32
 251 -94 251 -94 216.5 -128 c 128,-1,33
 182 -162 182 -162 96 -162 c 2,34,-1
 34 -162 l 1,35,-1
 34 -61 l 1,0,-1
EndSplineSet
EndChar
StartChar: asciitilde
Encoding: 126 126 333
Width: 542
GlyphClass: 1
Flags: W
LayerCount: 2
Fore
SplineSet
74.5 302.5 m 128,-1,1
 104 342 104 342 168 342 c 0,2,3
 195 342 195 342 218.5 333.5 c 128,-1,4
 242 325 242 325 279 308 c 0,5,6
 306 294 306 294 325 287 c 128,-1,7
 344 280 344 280 362 280 c 0,8,9
 388 280 388 280 400.5 298.5 c 128,-1,10
 413 317 413 317 412 361 c 1,11,-1
 503 331 l 1,12,13
 497 255 497 255 467 215 c 128,-1,14
 437 175 437 175 374 175 c 0,15,16
 347 175 347 175 322.5 184 c 128,-1,17
 298 193 298 193 263 210 c 0,18,19
 232 225 232 225 215 231.5 c 128,-1,20
 198 238 198 238 180 238 c 0,21,22
 154 238 154 238 141.5 219.5 c 128,-1,23
 129 201 129 201 130 157 c 1,24,-1
 39 187 l 1,25,0
 45 263 45 263 74.5 302.5 c 128,-1,1
EndSplineSet
EndChar
StartChar: exclamdown
Encoding: 161 161 264
Width: 299
GlyphClass: 1
Flags: W
LayerCount: 2
Fore
SplineSet
82 3 m 1,0,-1
 108 274 l 1,1,-1
 191 274 l 1,2,-1
 217 3 l 1,3,-1
 217 -170 l 1,4,-1
 82 -170 l 1,5,-1
 82 3 l 1,0,-1
89.5 365 m 128,-1,7
 65 390 65 390 65 425 c 256,8,9
 65 460 65 460 89.5 485 c 128,-1,10
 114 510 114 510 149 510 c 256,11,12
 184 510 184 510 209 485 c 128,-1,13
 234 460 234 460 234 425 c 256,14,15
 234 390 234 390 209 365 c 128,-1,16
 184 340 184 340 149 340 c 256,17,6
 114 340 114 340 89.5 365 c 128,-1,7
EndSplineSet
EndChar
StartChar: cent
Encoding: 162 162 311
Width: 504
GlyphClass: 1
Flags: W
LayerCount: 2
Fore
SplineSet
87 70 m 128,-1,1
 31 140 31 140 31 249 c 0,2,3
 31 354 31 354 88.5 423.5 c 128,-1,4
 146 493 146 493 243 505 c 1,5,-1
 243 586 l 1,6,-1
 307 586 l 1,7,-1
 307 506 l 1,8,9
 367 501 367 501 415 469.5 c 128,-1,10
 463 438 463 438 489 384 c 1,11,-1
 382 346 l 1,12,13
 371 370 371 370 351.5 385 c 128,-1,14
 332 400 332 400 307 404 c 1,15,-1
 307 91 l 1,16,17
 332 95 332 95 351.5 108.5 c 128,-1,18
 371 122 371 122 383 142 c 1,19,-1
 489 104 l 1,20,21
 461 54 461 54 412.5 24.5 c 128,-1,22
 364 -5 364 -5 307 -11 c 1,23,-1
 307 -90 l 1,24,-1
 243 -90 l 1,25,-1
 243 -11 l 1,26,0
 143 0 143 0 87 70 c 128,-1,1
183.5 348.5 m 128,-1,28
 161 311 161 311 161 249 c 0,29,30
 161 186 161 186 183.5 148 c 128,-1,31
 206 110 206 110 243 96 c 1,32,-1
 243 399 l 1,33,27
 206 386 206 386 183.5 348.5 c 128,-1,28
EndSplineSet
EndChar
StartChar: sterling
Encoding: 163 163 316
Width: 628
GlyphClass: 1
Flags: W
LayerCount: 2
Fore
SplineSet
159.5 147.5 m 128,-1,1
 194 184 194 184 194 241 c 0,2,3
 194 272 194 272 178 304 c 1,4,-1
 67 304 l 1,5,-1
 67 369 l 1,6,-1
 146 369 l 1,7,8
 126 408 126 408 114.5 440 c 128,-1,9
 103 472 103 472 103 506 c 0,10,11
 103 588 103 588 171.5 633.5 c 128,-1,12
 240 679 240 679 343 679 c 0,13,14
 428 679 428 679 490.5 641.5 c 128,-1,15
 553 604 553 604 579 538 c 1,16,-1
 464 498 l 1,17,18
 453 539 453 539 419.5 558.5 c 128,-1,19
 386 578 386 578 342 578 c 0,20,21
 295 578 295 578 265 556.5 c 128,-1,22
 235 535 235 535 235 497 c 0,23,24
 235 476 235 476 241.5 455.5 c 128,-1,25
 248 435 248 435 260 412.5 c 128,-1,26
 272 390 272 390 283 369 c 1,27,-1
 460 369 l 1,28,-1
 460 304 l 1,29,-1
 313 304 l 1,30,31
 324 278 324 278 324 248 c 0,32,33
 324 168 324 168 223 105 c 1,34,35
 255 122 255 122 297 122 c 0,36,37
 325 122 325 122 375 108 c 0,38,39
 394 103 394 103 413.5 99 c 128,-1,40
 433 95 433 95 450 95 c 0,41,42
 500 95 500 95 555 123 c 1,43,-1
 592 21 l 1,44,45
 523 -12 523 -12 446 -12 c 0,46,47
 422 -12 422 -12 400.5 -7.5 c 128,-1,48
 379 -3 379 -3 344 7 c 0,49,50
 311 16 311 16 290.5 20.5 c 128,-1,51
 270 25 270 25 247 25 c 0,52,53
 182 25 182 25 113 -12 c 1,54,-1
 68 85 l 1,55,0
 125 111 125 111 159.5 147.5 c 128,-1,1
EndSplineSet
EndChar
StartChar: currency
Encoding: 164 164 312
Width: 590
GlyphClass: 1
Flags: W
LayerCount: 2
Fore
SplineSet
53 125 m 1,0,-1
 120 192 l 1,1,2
 76 250 76 250 76 321 c 256,3,4
 76 392 76 392 120 450 c 1,5,-1
 53 517 l 1,6,-1
 99 562 l 1,7,-1
 165 496 l 1,8,9
 223 539 223 539 295 539 c 256,10,11
 367 539 367 539 424 496 c 1,12,-1
 491 562 l 1,13,-1
 537 517 l 1,14,-1
 470 450 l 1,15,16
 513 393 513 393 513 321 c 256,17,18
 513 249 513 249 470 192 c 1,19,-1
 537 125 l 1,20,-1
 491 80 l 1,21,-1
 424 146 l 1,22,23
 367 103 367 103 295 103 c 256,24,25
 223 103 223 103 165 146 c 1,26,-1
 99 80 l 1,27,-1
 53 125 l 1,0,-1
377 240 m 128,-1,29
 411 274 411 274 411 321 c 256,30,31
 411 368 411 368 377 402 c 128,-1,32
 343 436 343 436 295 436 c 256,33,34
 247 436 247 436 213 402 c 128,-1,35
 179 368 179 368 179 321 c 256,36,37
 179 274 179 274 213 240 c 128,-1,38
 247 206 247 206 295 206 c 256,39,28
 343 206 343 206 377 240 c 128,-1,29
EndSplineSet
EndChar
StartChar: yen
Encoding: 165 165 317
Width: 631
GlyphClass: 1
Flags: W
LayerCount: 2
Fore
SplineSet
250 79 m 1,0,-1
 112 79 l 1,1,-1
 112 144 l 1,2,-1
 250 144 l 1,3,-1
 250 216 l 1,4,-1
 112 216 l 1,5,-1
 112 281 l 1,6,-1
 236 281 l 1,7,-1
 0 668 l 1,8,-1
 152 668 l 1,9,-1
 315 385 l 1,10,-1
 478 668 l 1,11,-1
 631 668 l 1,12,-1
 395 281 l 1,13,-1
 519 281 l 1,14,-1
 519 216 l 1,15,-1
 382 216 l 1,16,-1
 382 144 l 1,17,-1
 519 144 l 1,18,-1
 519 79 l 1,19,-1
 382 79 l 1,20,-1
 382 0 l 1,21,-1
 250 0 l 1,22,-1
 250 79 l 1,0,-1
EndSplineSet
EndChar
StartChar: brokenbar
Encoding: 166 166 306
Width: 250
GlyphClass: 1
Flags: W
LayerCount: 2
Fore
SplineSet
65 233 m 1,0,-1
 185 233 l 1,1,-1
 185 -162 l 1,2,-1
 65 -162 l 1,3,-1
 65 233 l 1,0,-1
65 838 m 1,4,-1
 185 838 l 1,5,-1
 185 443 l 1,6,-1
 65 443 l 1,7,-1
 65 838 l 1,4,-1
EndSplineSet
EndChar
StartChar: section
Encoding: 167 167 300
Width: 548
GlyphClass: 1
Flags: W
LayerCount: 2
Fore
SplineSet
136.5 -137.5 m 128,-1,1
 83 -102 83 -102 62 -39 c 1,2,-1
 173 0 l 1,3,4
 193 -74 193 -74 270 -74 c 0,5,6
 307 -74 307 -74 330 -58 c 128,-1,7
 353 -42 353 -42 353 -18 c 0,8,9
 353 4 353 4 333 22 c 128,-1,10
 313 40 313 40 270 62 c 2,11,-1
 164 114 l 2,12,13
 91 151 91 151 56.5 190.5 c 128,-1,14
 22 230 22 230 22 286 c 0,15,16
 22 363 22 363 114 419 c 1,17,18
 71 462 71 462 71 517 c 0,19,20
 71 565 71 565 98.5 602.5 c 128,-1,21
 126 640 126 640 174 660.5 c 128,-1,22
 222 681 222 681 281 681 c 0,23,24
 359 681 359 681 412.5 645.5 c 128,-1,25
 466 610 466 610 487 546 c 1,26,-1
 376 508 l 1,27,28
 356 582 356 582 279 582 c 0,29,30
 242 582 242 582 219 565.5 c 128,-1,31
 196 549 196 549 196 526 c 0,32,33
 196 504 196 504 216 486 c 128,-1,34
 236 468 236 468 279 445 c 2,35,-1
 386 393 l 2,36,37
 459 356 459 356 493 316.5 c 128,-1,38
 527 277 527 277 527 221 c 0,39,40
 527 144 527 144 435 89 c 1,41,42
 478 46 478 46 478 -9 c 0,43,44
 478 -57 478 -57 450.5 -94.5 c 128,-1,45
 423 -132 423 -132 375 -152.5 c 128,-1,46
 327 -173 327 -173 268 -173 c 0,47,0
 190 -173 190 -173 136.5 -137.5 c 128,-1,1
392 178.5 m 128,-1,49
 405 193 405 193 405 213 c 0,50,51
 405 237 405 237 386.5 253.5 c 128,-1,52
 368 270 368 270 329 291 c 2,53,-1
 196 358 l 1,54,55
 170 344 170 344 157 329.5 c 128,-1,56
 144 315 144 315 144 295 c 0,57,58
 144 271 144 271 162.5 253.5 c 128,-1,59
 181 236 181 236 220 217 c 2,60,-1
 353 150 l 1,61,48
 379 164 379 164 392 178.5 c 128,-1,49
EndSplineSet
EndChar
StartChar: copyright
Encoding: 169 169 301
Width: 798
GlyphClass: 1
Flags: W
LayerCount: 2
Fore
SplineSet
225 33.5 m 128,-1,1
 145 80 145 80 98.5 160 c 128,-1,2
 52 240 52 240 52 334 c 256,3,4
 52 428 52 428 98.5 508 c 128,-1,5
 145 588 145 588 225 634.5 c 128,-1,6
 305 681 305 681 399 681 c 256,7,8
 493 681 493 681 573 634.5 c 128,-1,9
 653 588 653 588 699.5 508 c 128,-1,10
 746 428 746 428 746 334 c 256,11,12
 746 240 746 240 699.5 160 c 128,-1,13
 653 80 653 80 573 33.5 c 128,-1,14
 493 -13 493 -13 399 -13 c 256,15,0
 305 -13 305 -13 225 33.5 c 128,-1,1
268 194.5 m 128,-1,17
 220 246 220 246 220 335 c 0,18,19
 220 423 220 423 270 474.5 c 128,-1,20
 320 526 320 526 402 526 c 0,21,22
 454 526 454 526 495 503.5 c 128,-1,23
 536 481 536 481 558 437 c 1,24,-1
 476 406 l 1,25,26
 457 450 457 450 405 450 c 0,27,28
 367 450 367 450 343 422 c 128,-1,29
 319 394 319 394 319 335 c 0,30,31
 319 275 319 275 343 247 c 128,-1,32
 367 219 367 219 405 219 c 0,33,34
 457 219 457 219 477 256 c 1,35,-1
 558 227 l 1,36,37
 534 186 534 186 492.5 164.5 c 128,-1,38
 451 143 451 143 401 143 c 0,39,16
 316 143 316 143 268 194.5 c 128,-1,17
539.5 90.5 m 128,-1,41
 604 128 604 128 641.5 192.5 c 128,-1,42
 679 257 679 257 679 334 c 256,43,44
 679 411 679 411 641.5 475.5 c 128,-1,45
 604 540 604 540 539.5 577.5 c 128,-1,46
 475 615 475 615 399 615 c 256,47,48
 323 615 323 615 258.5 577.5 c 128,-1,49
 194 540 194 540 156.5 475.5 c 128,-1,50
 119 411 119 411 119 334 c 256,51,52
 119 257 119 257 156.5 192.5 c 128,-1,53
 194 128 194 128 258.5 90.5 c 128,-1,54
 323 53 323 53 399 53 c 256,55,40
 475 53 475 53 539.5 90.5 c 128,-1,41
EndSplineSet
EndChar
StartChar: ordfeminine
Encoding: 170 170 223
Width: 386
GlyphClass: 1
Flags: W
LayerCount: 2
Fore
SplineSet
81 418 m 128,-1,1
 53 442 53 442 53 478 c 0,2,3
 53 518 53 518 79 539.5 c 128,-1,4
 105 561 105 561 141 568.5 c 128,-1,5
 177 576 177 576 238 582 c 1,6,7
 238 604 238 604 228.5 615.5 c 128,-1,8
 219 627 219 627 193 627 c 0,9,10
 175 627 175 627 162.5 620.5 c 128,-1,11
 150 614 150 614 147 600 c 1,12,-1
 70 626 l 1,13,14
 83 657 83 657 117 672.5 c 128,-1,15
 151 688 151 688 202 688 c 0,16,17
 262 688 262 688 293.5 661.5 c 128,-1,18
 325 635 325 635 325 574 c 2,19,-1
 325 506 l 2,20,21
 325 449 325 449 333 400 c 1,22,-1
 259 400 l 1,23,-1
 249 436 l 1,24,25
 237 416 237 416 213 405 c 128,-1,26
 189 394 189 394 157 394 c 0,27,0
 109 394 109 394 81 418 c 128,-1,1
224.5 472.5 m 128,-1,29
 240 487 240 487 240 511 c 2,30,-1
 240 526 l 1,31,32
 185 523 185 523 164.5 513.5 c 128,-1,33
 144 504 144 504 144 486 c 0,34,35
 144 473 144 473 154 465.5 c 128,-1,36
 164 458 164 458 183 458 c 0,37,28
 209 458 209 458 224.5 472.5 c 128,-1,29
EndSplineSet
EndChar
StartChar: logicalnot
Encoding: 172 172 332
Width: 612
GlyphClass: 1
Flags: W
LayerCount: 2
Fore
SplineSet
449 304 m 1,0,-1
 53 304 l 1,1,-1
 53 412 l 1,2,-1
 559 412 l 1,3,-1
 559 69 l 1,4,-1
 449 69 l 1,5,-1
 449 304 l 1,0,-1
EndSplineSet
EndChar
StartChar: registered
Encoding: 174 174 302
Width: 798
GlyphClass: 1
Flags: W
LayerCount: 2
Fore
SplineSet
225 33.5 m 128,-1,1
 145 80 145 80 98.5 160 c 128,-1,2
 52 240 52 240 52 334 c 256,3,4
 52 428 52 428 98.5 508 c 128,-1,5
 145 588 145 588 225 634.5 c 128,-1,6
 305 681 305 681 399 681 c 256,7,8
 493 681 493 681 573 634.5 c 128,-1,9
 653 588 653 588 699.5 508 c 128,-1,10
 746 428 746 428 746 334 c 256,11,12
 746 240 746 240 699.5 160 c 128,-1,13
 653 80 653 80 573 33.5 c 128,-1,14
 493 -13 493 -13 399 -13 c 256,15,0
 305 -13 305 -13 225 33.5 c 128,-1,1
539.5 90.5 m 128,-1,17
 604 128 604 128 641.5 192.5 c 128,-1,18
 679 257 679 257 679 334 c 256,19,20
 679 411 679 411 641.5 475.5 c 128,-1,21
 604 540 604 540 539.5 577.5 c 128,-1,22
 475 615 475 615 399 615 c 256,23,24
 323 615 323 615 258.5 577.5 c 128,-1,25
 194 540 194 540 156.5 475.5 c 128,-1,26
 119 411 119 411 119 334 c 256,27,28
 119 257 119 257 156.5 192.5 c 128,-1,29
 194 128 194 128 258.5 90.5 c 128,-1,30
 323 53 323 53 399 53 c 256,31,16
 475 53 475 53 539.5 90.5 c 128,-1,17
251 529 m 1,32,-1
 396 529 l 2,33,34
 473 529 473 529 514.5 503.5 c 128,-1,35
 556 478 556 478 556 414 c 0,36,37
 556 376 556 376 534 348.5 c 128,-1,38
 512 321 512 321 469 310 c 1,39,-1
 576 162 l 1,40,-1
 477 162 l 1,41,-1
 375 300 l 1,42,-1
 339 300 l 1,43,-1
 339 162 l 1,44,-1
 251 162 l 1,45,-1
 251 529 l 1,32,-1
447.5 378.5 m 128,-1,47
 465 389 465 389 465 413 c 0,48,49
 465 439 465 439 446.5 449 c 128,-1,50
 428 459 428 459 392 459 c 2,51,-1
 339 459 l 1,52,-1
 339 368 l 1,53,-1
 394 368 l 2,54,46
 430 368 430 368 447.5 378.5 c 128,-1,47
EndSplineSet
EndChar
StartChar: degree
Encoding: 176 176 304
Width: 384
GlyphClass: 1
Flags: W
LayerCount: 2
Fore
SplineSet
116 396.5 m 128,-1,1
 81 417 81 417 60.5 452 c 128,-1,2
 40 487 40 487 40 528 c 256,3,4
 40 569 40 569 60.5 604 c 128,-1,5
 81 639 81 639 116 659.5 c 128,-1,6
 151 680 151 680 192 680 c 256,7,8
 233 680 233 680 268 659.5 c 128,-1,9
 303 639 303 639 323.5 604 c 128,-1,10
 344 569 344 569 344 528 c 256,11,12
 344 487 344 487 323.5 452 c 128,-1,13
 303 417 303 417 268 396.5 c 128,-1,14
 233 376 233 376 192 376 c 256,15,0
 151 376 151 376 116 396.5 c 128,-1,1
244 476.5 m 128,-1,17
 265 498 265 498 265 528 c 0,18,19
 265 559 265 559 244 580 c 128,-1,20
 223 601 223 601 192 601 c 0,21,22
 162 601 162 601 140.5 580 c 128,-1,23
 119 559 119 559 119 528 c 0,24,25
 119 498 119 498 140.5 476.5 c 128,-1,26
 162 455 162 455 192 455 c 0,27,16
 223 455 223 455 244 476.5 c 128,-1,17
EndSplineSet
EndChar
StartChar: plusminus
Encoding: 177 177 330
Width: 603
GlyphClass: 1
Flags: W
LayerCount: 2
Fore
SplineSet
247 278 m 1,0,-1
 53 278 l 1,1,-1
 53 375 l 1,2,-1
 247 375 l 1,3,-1
 247 496 l 1,4,-1
 356 496 l 1,5,-1
 356 375 l 1,6,-1
 550 375 l 1,7,-1
 550 278 l 1,8,-1
 356 278 l 1,9,-1
 356 158 l 1,10,-1
 247 158 l 1,11,-1
 247 278 l 1,0,-1
53 109 m 1,12,-1
 550 109 l 1,13,-1
 550 0 l 1,14,-1
 53 0 l 1,15,-1
 53 109 l 1,12,-1
EndSplineSet
EndChar
StartChar: uni00B2
Encoding: 178 178 254
Width: 397
GlyphClass: 1
Flags: W
LayerCount: 2
Fore
SplineSet
203.5 593.5 m 128,-1,1
 251 638 251 638 251 677 c 0,2,3
 251 697 251 697 237.5 708.5 c 128,-1,4
 224 720 224 720 202 720 c 256,5,6
 180 720 180 720 164.5 707 c 128,-1,7
 149 694 149 694 145 671 c 1,8,-1
 64 698 l 1,9,10
 78 740 78 740 115 763 c 128,-1,11
 152 786 152 786 206 786 c 0,12,13
 266 786 266 786 303.5 759 c 128,-1,14
 341 732 341 732 341 681 c 0,15,16
 341 629 341 629 299.5 583.5 c 128,-1,17
 258 538 258 538 171 479 c 1,18,-1
 344 479 l 1,19,-1
 344 403 l 1,20,-1
 53 403 l 1,21,-1
 53 474 l 1,22,0
 156 549 156 549 203.5 593.5 c 128,-1,1
EndSplineSet
EndChar
StartChar: uni00B3
Encoding: 179 179 255
Width: 401
GlyphClass: 1
Flags: W
LayerCount: 2
Fore
SplineSet
107 418.5 m 128,-1,1
 69 441 69 441 53 481 c 1,2,-1
 133 508 l 1,3,4
 140 487 140 487 157 475 c 128,-1,5
 174 463 174 463 199 463 c 0,6,7
 225 463 225 463 241 477 c 128,-1,8
 257 491 257 491 257 512 c 0,9,10
 257 564 257 564 161 560 c 1,11,-1
 161 633 l 1,12,13
 207 632 207 632 228 643 c 128,-1,14
 249 654 249 654 249 678 c 0,15,16
 249 699 249 699 234 709.5 c 128,-1,17
 219 720 219 720 197 720 c 0,18,19
 174 720 174 720 158.5 709.5 c 128,-1,20
 143 699 143 699 136 679 c 1,21,-1
 58 706 l 1,22,23
 74 745 74 745 111 765.5 c 128,-1,24
 148 786 148 786 201 786 c 0,25,26
 260 786 260 786 299.5 759.5 c 128,-1,27
 339 733 339 733 339 684 c 0,28,29
 339 657 339 657 324.5 635 c 128,-1,30
 310 613 310 613 288 601 c 1,31,32
 316 591 316 591 332 566.5 c 128,-1,33
 348 542 348 542 348 511 c 0,34,35
 348 459 348 459 306 427.5 c 128,-1,36
 264 396 264 396 202 396 c 0,37,0
 145 396 145 396 107 418.5 c 128,-1,1
EndSplineSet
EndChar
StartChar: paragraph
Encoding: 182 182 299
Width: 518
GlyphClass: 1
Flags: W
LayerCount: 2
Fore
SplineSet
72 361 m 128,-1,1
 31 412 31 412 31 479 c 0,2,3
 31 530 31 530 56.5 573.5 c 128,-1,4
 82 617 82 617 125.5 642.5 c 128,-1,5
 169 668 169 668 220 668 c 2,6,-1
 492 668 l 1,7,-1
 492 601 l 1,8,-1
 448 601 l 1,9,-1
 448 -162 l 1,10,-1
 358 -162 l 1,11,-1
 358 601 l 1,12,-1
 265 601 l 1,13,-1
 265 -162 l 1,14,-1
 176 -162 l 1,15,-1
 176 295 l 1,16,0
 113 310 113 310 72 361 c 128,-1,1
EndSplineSet
EndChar
StartChar: uni00B9
Encoding: 185 185 253
Width: 277
GlyphClass: 1
Flags: W
LayerCount: 2
Fore
SplineSet
137 661 m 1,0,-1
 53 661 l 1,1,-1
 53 732 l 1,2,3
 97 731 97 731 121.5 742 c 128,-1,4
 146 753 146 753 154 779 c 1,5,-1
 224 779 l 1,6,-1
 224 403 l 1,7,-1
 137 403 l 1,8,-1
 137 661 l 1,0,-1
EndSplineSet
EndChar
StartChar: ordmasculine
Encoding: 186 186 224
Width: 397
GlyphClass: 1
Flags: W
LayerCount: 2
Fore
SplineSet
94 431.5 m 128,-1,1
 52 469 52 469 52 541 c 256,2,3
 52 613 52 613 94 650.5 c 128,-1,4
 136 688 136 688 199 688 c 256,5,6
 262 688 262 688 303.5 650.5 c 128,-1,7
 345 613 345 613 345 541 c 256,8,9
 345 469 345 469 303.5 431.5 c 128,-1,10
 262 394 262 394 199 394 c 256,11,0
 136 394 136 394 94 431.5 c 128,-1,1
239.5 482.5 m 128,-1,13
 255 503 255 503 255 541 c 256,14,15
 255 579 255 579 239.5 599.5 c 128,-1,16
 224 620 224 620 199 620 c 0,17,18
 173 620 173 620 157.5 599.5 c 128,-1,19
 142 579 142 579 142 541 c 256,20,21
 142 503 142 503 157.5 482.5 c 128,-1,22
 173 462 173 462 199 462 c 0,23,12
 224 462 224 462 239.5 482.5 c 128,-1,13
EndSplineSet
EndChar
StartChar: guillemotright
Encoding: 187 187 290
Width: 627
GlyphClass: 1
Flags: W
LayerCount: 2
Fore
SplineSet
431 250 m 1,0,-1
 282 460 l 1,1,-1
 426 460 l 1,2,-1
 574 250 l 1,3,-1
 426 40 l 1,4,-1
 282 40 l 1,5,-1
 431 250 l 1,0,-1
202 250 m 1,6,-1
 53 460 l 1,7,-1
 198 460 l 1,8,-1
 346 250 l 1,9,-1
 198 40 l 1,10,-1
 53 40 l 1,11,-1
 202 250 l 1,6,-1
EndSplineSet
EndChar
StartChar: onequarter
Encoding: 188 188 251
Width: 839
GlyphClass: 3
Flags: W
LayerCount: 2
Fore
SplineSet
580 668 m 1,0,-1
 692 668 l 1,1,-1
 224 0 l 1,2,-1
 112 0 l 1,3,-1
 580 668 l 1,0,-1
137 550 m 1,4,-1
 53 550 l 1,5,-1
 53 622 l 1,6,7
 96 622 96 622 120.5 631 c 128,-1,8
 145 640 145 640 154 668 c 1,9,-1
 225 668 l 1,10,-1
 225 293 l 1,11,-1
 137 293 l 1,12,-1
 137 550 l 1,4,-1
637 154 m 1,13,-1
 637 269 l 1,14,-1
 545 154 l 1,15,-1
 637 154 l 1,13,-1
637 79 m 1,16,-1
 454 79 l 1,17,-1
 454 147 l 1,18,-1
 637 375 l 1,19,-1
 725 375 l 1,20,-1
 725 154 l 1,21,-1
 786 154 l 1,22,-1
 786 79 l 1,23,-1
 725 79 l 1,24,-1
 725 0 l 1,25,-1
 637 0 l 1,26,-1
 637 79 l 1,16,-1
EndSplineSet
Ligature2: "'frac' Diagonal Fractions in Latin lookup 7 subtable" one slash four
EndChar
StartChar: onehalf
Encoding: 189 189 250
Width: 844
GlyphClass: 3
Flags: W
LayerCount: 2
Fore
SplineSet
580 668 m 1,0,-1
 692 668 l 1,1,-1
 224 0 l 1,2,-1
 112 0 l 1,3,-1
 580 668 l 1,0,-1
137 550 m 1,4,-1
 53 550 l 1,5,-1
 53 622 l 1,6,7
 96 622 96 622 120.5 631 c 128,-1,8
 145 640 145 640 154 668 c 1,9,-1
 225 668 l 1,10,-1
 225 293 l 1,11,-1
 137 293 l 1,12,-1
 137 550 l 1,4,-1
613.5 156 m 128,-1,14
 651 186 651 186 674.5 215.5 c 128,-1,15
 698 245 698 245 698 271 c 0,16,17
 698 293 698 293 685 305 c 128,-1,18
 672 317 672 317 650 317 c 0,19,20
 627 317 627 317 611 304.5 c 128,-1,21
 595 292 595 292 591 268 c 1,22,-1
 511 295 l 1,23,24
 525 336 525 336 562 359 c 128,-1,25
 599 382 599 382 653 382 c 0,26,27
 713 382 713 382 750.5 355 c 128,-1,28
 788 328 788 328 788 278 c 0,29,30
 788 225 788 225 747 179.5 c 128,-1,31
 706 134 706 134 619 76 c 1,32,-1
 791 76 l 1,33,-1
 791 0 l 1,34,-1
 501 0 l 1,35,-1
 501 70 l 1,36,13
 576 126 576 126 613.5 156 c 128,-1,14
EndSplineSet
Ligature2: "'frac' Diagonal Fractions in Latin lookup 7 subtable" one slash two
EndChar
StartChar: threequarters
Encoding: 190 190 252
Width: 907
GlyphClass: 3
Flags: W
LayerCount: 2
Fore
SplineSet
649 668 m 1,0,-1
 760 668 l 1,1,-1
 293 0 l 1,2,-1
 181 0 l 1,3,-1
 649 668 l 1,0,-1
106.5 312.5 m 128,-1,5
 69 335 69 335 53 375 c 1,6,-1
 133 401 l 1,7,8
 140 380 140 380 157 368 c 128,-1,9
 174 356 174 356 198 356 c 0,10,11
 225 356 225 356 241 369 c 128,-1,12
 257 382 257 382 257 403 c 0,13,14
 257 431 257 431 234.5 443 c 128,-1,15
 212 455 212 455 161 454 c 1,16,-1
 161 525 l 1,17,18
 208 524 208 524 228.5 535.5 c 128,-1,19
 249 547 249 547 249 572 c 0,20,21
 249 591 249 591 233.5 602 c 128,-1,22
 218 613 218 613 197 613 c 0,23,24
 175 613 175 613 159 602 c 128,-1,25
 143 591 143 591 136 571 c 1,26,-1
 58 598 l 1,27,28
 74 637 74 637 111 658 c 128,-1,29
 148 679 148 679 203 679 c 0,30,31
 261 679 261 679 300 652 c 128,-1,32
 339 625 339 625 339 577 c 0,33,34
 339 549 339 549 324.5 527 c 128,-1,35
 310 505 310 505 288 494 c 1,36,37
 316 484 316 484 332 460 c 128,-1,38
 348 436 348 436 348 404 c 0,39,40
 348 350 348 350 304.5 320 c 128,-1,41
 261 290 261 290 197 290 c 0,42,4
 144 290 144 290 106.5 312.5 c 128,-1,5
705 79 m 1,43,-1
 523 79 l 1,44,-1
 523 147 l 1,45,-1
 706 375 l 1,46,-1
 793 375 l 1,47,-1
 793 154 l 1,48,-1
 854 154 l 1,49,-1
 854 79 l 1,50,-1
 793 79 l 1,51,-1
 793 0 l 1,52,-1
 705 0 l 1,53,-1
 705 79 l 1,43,-1
705 154 m 1,54,-1
 705 269 l 1,55,-1
 614 154 l 1,56,-1
 705 154 l 1,54,-1
EndSplineSet
Ligature2: "'frac' Diagonal Fractions in Latin lookup 7 subtable" three slash four
EndChar
StartChar: questiondown
Encoding: 191 191 266
Width: 507
GlyphClass: 1
Flags: W
LayerCount: 2
Fore
SplineSet
140.5 -163 m 128,-1,1
 86 -144 86 -144 53 -106 c 128,-1,2
 20 -68 20 -68 20 -13 c 0,3,4
 20 45 20 45 51.5 86 c 128,-1,5
 83 127 83 127 146 160 c 0,6,7
 197 186 197 186 216 207 c 128,-1,8
 235 228 235 228 235 259 c 2,9,-1
 235 282 l 1,10,-1
 363 282 l 1,11,-1
 363 258 l 2,12,13
 363 199 363 199 337.5 162.5 c 128,-1,14
 312 126 312 126 242 88 c 0,15,16
 192 62 192 62 170.5 41.5 c 128,-1,17
 149 21 149 21 149 -6 c 0,18,19
 149 -40 149 -40 180 -60 c 128,-1,20
 211 -80 211 -80 262 -80 c 0,21,22
 314 -80 314 -80 347.5 -56.5 c 128,-1,23
 381 -33 381 -33 392 6 c 1,24,-1
 507 -33 l 1,25,26
 485 -103 485 -103 418 -142.5 c 128,-1,27
 351 -182 351 -182 257 -182 c 0,28,0
 195 -182 195 -182 140.5 -163 c 128,-1,1
239 365 m 128,-1,30
 214 390 214 390 214 425 c 256,31,32
 214 460 214 460 239 485 c 128,-1,33
 264 510 264 510 299 510 c 256,34,35
 334 510 334 510 359 485 c 128,-1,36
 384 460 384 460 384 425 c 256,37,38
 384 390 384 390 359 365 c 128,-1,39
 334 340 334 340 299 340 c 256,40,29
 264 340 264 340 239 365 c 128,-1,30
EndSplineSet
EndChar
StartChar: Aring
Encoding: 197 197 10
Width: 665
GlyphClass: 2
Flags: W
AnchorPoint: "Anchor-2" 658 10 basechar 0
AnchorPoint: "Anchor-1" 333 852 basechar 0
AnchorPoint: "Anchor-0" 333 0 basechar 0
LayerCount: 2
Fore
SplineSet
219.5 679.5 m 128,-1,1
 209 703 209 703 209 729 c 0,2,3
 209 780 209 780 245 816 c 128,-1,4
 281 852 281 852 333 852 c 0,5,6
 384 852 384 852 420 816 c 128,-1,7
 456 780 456 780 456 729 c 0,8,9
 456 703 456 703 445.5 680 c 128,-1,10
 435 657 435 657 417 640 c 1,11,-1
 658 0 l 1,12,-1
 514 0 l 1,13,-1
 469 130 l 1,14,-1
 196 130 l 1,15,-1
 151 0 l 1,16,-1
 7 0 l 1,17,-1
 248 640 l 1,18,0
 230 656 230 656 219.5 679.5 c 128,-1,1
432 239 m 1,19,-1
 332 529 l 1,20,-1
 232 239 l 1,21,-1
 432 239 l 1,19,-1
367 694.5 m 128,-1,23
 381 709 381 709 381 729 c 256,24,25
 381 749 381 749 367 763.5 c 128,-1,26
 353 778 353 778 333 778 c 0,27,28
 312 778 312 778 298 763.5 c 128,-1,29
 284 749 284 749 284 729 c 256,30,31
 284 709 284 709 298 694.5 c 128,-1,32
 312 680 312 680 333 680 c 0,33,22
 353 680 353 680 367 694.5 c 128,-1,23
EndSplineSet
EndChar
StartChar: AE
Encoding: 198 198 12
Width: 947
GlyphClass: 2
Flags: W
AnchorPoint: "Anchor-1" 504 668 basechar 0
AnchorPoint: "Anchor-0" 504 0 basechar 0
LayerCount: 2
Fore
SplineSet
375 668 m 1,0,-1
 912 668 l 1,1,-1
 912 552 l 1,2,-1
 584 552 l 1,3,-1
 584 402 l 1,4,-1
 790 402 l 1,5,-1
 790 285 l 1,6,-1
 584 285 l 1,7,-1
 584 116 l 1,8,-1
 912 116 l 1,9,-1
 912 0 l 1,10,-1
 451 0 l 1,11,-1
 451 130 l 1,12,-1
 218 130 l 1,13,-1
 147 0 l 1,14,-1
 0 0 l 1,15,-1
 375 668 l 1,0,-1
451 239 m 1,16,-1
 451 561 l 1,17,-1
 277 239 l 1,18,-1
 451 239 l 1,16,-1
EndSplineSet
EndChar
StartChar: Ccedilla
Encoding: 199 199 17
Width: 655
GlyphClass: 2
Flags: W
AnchorPoint: "Anchor-1" 361 668 basechar 0
LayerCount: 2
Fore
SplineSet
262 -170 m 1,1,-1
 277 -126 l 1,2,3
 307 -139 307 -139 337 -139 c 0,4,5
 359 -139 359 -139 371.5 -131 c 128,-1,6
 384 -123 384 -123 384 -109 c 0,7,8
 384 -97 384 -97 374.5 -89.5 c 128,-1,9
 365 -82 365 -82 347 -82 c 0,10,11
 335 -82 335 -82 318 -87 c 0,12,13
 307 -91 307 -91 299 -85 c 128,-1,14
 291 -79 291 -79 291 -69 c 0,15,16
 291 -63 291 -63 294 -58 c 2,17,-1
 323 -11 l 1,18,19
 233 -4 233 -4 168.5 40.5 c 128,-1,20
 104 85 104 85 69.5 160.5 c 128,-1,21
 35 236 35 236 35 334 c 0,22,23
 35 438 35 438 75.5 516.5 c 128,-1,24
 116 595 116 595 190 637.5 c 128,-1,25
 264 680 264 680 363 680 c 0,26,27
 452 680 452 680 522 639.5 c 128,-1,28
 592 599 592 599 629 527 c 1,29,-1
 511 484 l 1,30,31
 489 526 489 526 449 548 c 128,-1,32
 409 570 409 570 358 570 c 0,33,34
 306 570 306 570 264.5 542 c 128,-1,35
 223 514 223 514 199 460.5 c 128,-1,36
 175 407 175 407 175 334 c 0,37,38
 175 260 175 260 199 207 c 128,-1,39
 223 154 223 154 265 126 c 128,-1,40
 307 98 307 98 360 98 c 0,41,42
 411 98 411 98 452.5 119.5 c 128,-1,43
 494 141 494 141 516 184 c 1,44,-1
 633 141 l 1,45,46
 596 72 596 72 528.5 32.5 c 128,-1,47
 461 -7 461 -7 375 -11 c 1,48,-1
 353 -47 l 1,49,50
 373 -43 373 -43 386 -43 c 0,51,52
 419 -43 419 -43 442 -60 c 128,-1,53
 465 -77 465 -77 465 -106 c 0,54,55
 465 -142 465 -142 432.5 -163.5 c 128,-1,56
 400 -185 400 -185 350 -185 c 0,57,0
 304 -185 304 -185 262 -170 c 1,1,-1
EndSplineSet
EndChar
StartChar: multiply
Encoding: 215 215 322
Width: 535
GlyphClass: 1
Flags: W
LayerCount: 2
Fore
SplineSet
48 106 m 1,0,-1
 191 249 l 1,1,-1
 46 392 l 1,2,-1
 124 471 l 1,3,-1
 268 326 l 1,4,-1
 411 471 l 1,5,-1
 489 392 l 1,6,-1
 345 249 l 1,7,-1
 487 106 l 1,8,-1
 410 29 l 1,9,-1
 268 172 l 1,10,-1
 125 29 l 1,11,-1
 48 106 l 1,0,-1
EndSplineSet
EndChar
StartChar: Oslash
Encoding: 216 216 68
Width: 738
GlyphClass: 2
Flags: W
AnchorPoint: "Anchor-3" 722 668 basechar 0
AnchorPoint: "Anchor-1" 370 668 basechar 0
AnchorPoint: "Anchor-0" 370 0 basechar 0
LayerCount: 2
Fore
SplineSet
168 50 m 1,1,-1
 117 -10 l 1,2,-1
 68 32 l 1,3,-1
 119 93 l 1,4,5
 79 139 79 139 57 200.5 c 128,-1,6
 35 262 35 262 35 334 c 0,7,8
 35 436 35 436 77 514.5 c 128,-1,9
 119 593 119 593 195 636.5 c 128,-1,10
 271 680 271 680 369 680 c 0,11,12
 487 680 487 680 571 618 c 1,13,-1
 621 677 l 1,14,-1
 670 635 l 1,15,-1
 619 575 l 1,16,17
 659 529 659 529 681 467.5 c 128,-1,18
 703 406 703 406 703 334 c 0,19,20
 703 232 703 232 661 153.5 c 128,-1,21
 619 75 619 75 543.5 31.5 c 128,-1,22
 468 -12 468 -12 369 -12 c 0,23,0
 252 -12 252 -12 168 50 c 1,1,-1
467.5 125.5 m 128,-1,25
 512 153 512 153 537.5 206 c 128,-1,26
 563 259 563 259 563 334 c 0,27,28
 563 418 563 418 531 473 c 1,29,-1
 248 143 l 1,30,31
 298 98 298 98 369 98 c 0,32,24
 423 98 423 98 467.5 125.5 c 128,-1,25
207 194 m 1,34,-1
 490 525 l 1,35,36
 441 570 441 570 369 570 c 0,37,38
 315 570 315 570 271 542.5 c 128,-1,39
 227 515 227 515 201 462 c 128,-1,40
 175 409 175 409 175 334 c 0,41,33
 175 253 175 253 207 194 c 1,34,-1
EndSplineSet
EndChar
StartChar: Thorn
Encoding: 222 222 72
Width: 619
GlyphClass: 2
Flags: W
AnchorPoint: "Anchor-1" 311 668 basechar 0
AnchorPoint: "Anchor-0" 311 0 basechar 0
LayerCount: 2
Fore
SplineSet
65 668 m 1,0,-1
 198 668 l 1,1,-1
 198 553 l 1,2,-1
 341 553 l 2,3,4
 455 553 455 553 526 500 c 128,-1,5
 597 447 597 447 597 341 c 256,6,7
 597 235 597 235 526 182 c 128,-1,8
 455 129 455 129 341 129 c 2,9,-1
 198 129 l 1,10,-1
 198 0 l 1,11,-1
 65 0 l 1,12,-1
 65 668 l 1,0,-1
425.5 266 m 128,-1,14
 458 290 458 290 458 341 c 256,15,16
 458 392 458 392 425.5 415.5 c 128,-1,17
 393 439 393 439 337 439 c 2,18,-1
 198 439 l 1,19,-1
 198 242 l 1,20,-1
 337 242 l 2,21,13
 393 242 393 242 425.5 266 c 128,-1,14
EndSplineSet
EndChar
StartChar: germandbls
Encoding: 223 223 193
Width: 611
GlyphClass: 1
Flags: W
LayerCount: 2
Fore
SplineSet
317 94 m 0,1,2
 377 94 377 94 416.5 122 c 128,-1,3
 456 150 456 150 456 210 c 0,4,5
 456 274 456 274 408 309 c 128,-1,6
 360 344 360 344 284 344 c 2,7,-1
 271 344 l 1,8,-1
 271 445 l 1,9,10
 329 444 329 444 357 463 c 128,-1,11
 385 482 385 482 385 517 c 0,12,13
 385 548 385 548 362 566.5 c 128,-1,14
 339 585 339 585 296 585 c 0,15,16
 241 585 241 585 216 555 c 128,-1,17
 191 525 191 525 191 460 c 2,18,-1
 191 0 l 1,19,-1
 65 0 l 1,20,-1
 65 466 l 2,21,22
 65 577 65 577 122.5 628.5 c 128,-1,23
 180 680 180 680 294 680 c 0,24,25
 383 680 383 680 439.5 637.5 c 128,-1,26
 496 595 496 595 496 521 c 0,27,28
 496 482 496 482 478.5 451.5 c 128,-1,29
 461 421 461 421 432 405 c 1,30,31
 501 389 501 389 543.5 335.5 c 128,-1,32
 586 282 586 282 586 205 c 0,33,34
 586 95 586 95 517 41.5 c 128,-1,35
 448 -12 448 -12 340 -12 c 0,36,37
 315 -12 315 -12 291 -9 c 1,38,-1
 257 101 l 1,39,0
 290 94 290 94 317 94 c 0,1,2
EndSplineSet
EndChar
StartChar: ae
Encoding: 230 230 122
Width: 875
GlyphClass: 2
Flags: W
AnchorPoint: "Anchor-1" 440 496 basechar 0
AnchorPoint: "Anchor-0" 440 0 basechar 0
LayerCount: 2
Fore
SplineSet
79.5 27.5 m 128,-1,1
 26 67 26 67 26 133 c 0,2,3
 26 215 26 215 112 256 c 128,-1,4
 198 297 198 297 363 297 c 1,5,-1
 363 324 l 2,6,7
 363 371 363 371 338 395 c 128,-1,8
 313 419 313 419 265 419 c 0,9,10
 228 419 228 419 202.5 402 c 128,-1,11
 177 385 177 385 169 353 c 1,12,-1
 60 390 l 1,13,14
 83 444 83 444 138.5 476 c 128,-1,15
 194 508 194 508 269 508 c 0,16,17
 387 508 387 508 436 440 c 1,18,19
 468 472 468 472 512.5 490 c 128,-1,20
 557 508 557 508 606 508 c 0,21,22
 684 508 684 508 741.5 469 c 128,-1,23
 799 430 799 430 827.5 363.5 c 128,-1,24
 856 297 856 297 851 216 c 1,25,-1
 477 216 l 1,26,27
 486 147 486 147 522.5 118 c 128,-1,28
 559 89 559 89 608 89 c 0,29,30
 680 89 680 89 714 131 c 1,31,-1
 819 94 l 1,32,33
 785 43 785 43 730 15.5 c 128,-1,34
 675 -12 675 -12 610 -12 c 0,35,36
 544 -12 544 -12 493.5 11.5 c 128,-1,37
 443 35 443 35 411 79 c 1,38,39
 383 34 383 34 332 11 c 128,-1,40
 281 -12 281 -12 212 -12 c 0,41,0
 133 -12 133 -12 79.5 27.5 c 128,-1,1
330.5 108 m 128,-1,43
 363 138 363 138 363 210 c 2,44,-1
 363 216 l 1,45,46
 255 216 255 216 206.5 197.5 c 128,-1,47
 158 179 158 179 158 140 c 0,48,49
 158 112 158 112 180 95 c 128,-1,50
 202 78 202 78 241 78 c 0,51,42
 298 78 298 78 330.5 108 c 128,-1,43
694 379 m 128,-1,53
 660 411 660 411 608 411 c 0,54,55
 559 411 559 411 523.5 384 c 128,-1,56
 488 357 488 357 478 297 c 1,57,-1
 730 297 l 1,58,52
 728 347 728 347 694 379 c 128,-1,53
EndSplineSet
EndChar
StartChar: ccedilla
Encoding: 231 231 127
Width: 504
GlyphClass: 2
Flags: W
AnchorPoint: "Anchor-1" 284 496 basechar 0
LayerCount: 2
Fore
SplineSet
180 -170 m 1,1,-1
 195 -126 l 1,2,3
 225 -139 225 -139 255 -139 c 0,4,5
 278 -139 278 -139 290.5 -131 c 128,-1,6
 303 -123 303 -123 303 -109 c 0,7,8
 303 -97 303 -97 293 -89.5 c 128,-1,9
 283 -82 283 -82 265 -82 c 0,10,11
 253 -82 253 -82 236 -87 c 0,12,13
 225 -91 225 -91 217 -85 c 128,-1,14
 209 -79 209 -79 209 -69 c 0,15,16
 209 -63 209 -63 212 -58 c 2,17,-1
 241 -10 l 1,18,19
 142 0 142 0 86.5 70.5 c 128,-1,20
 31 141 31 141 31 249 c 0,21,22
 31 325 31 325 62 384 c 128,-1,23
 93 443 93 443 149.5 475.5 c 128,-1,24
 206 508 206 508 280 508 c 0,25,26
 347 508 347 508 403.5 476.5 c 128,-1,27
 460 445 460 445 489 385 c 1,28,-1
 382 346 l 1,29,30
 368 376 368 376 342 391.5 c 128,-1,31
 316 407 316 407 283 407 c 0,32,33
 231 407 231 407 196 367.5 c 128,-1,34
 161 328 161 328 161 249 c 0,35,36
 161 168 161 168 196 128.5 c 128,-1,37
 231 89 231 89 283 89 c 0,38,39
 316 89 316 89 342 103.5 c 128,-1,40
 368 118 368 118 383 143 c 1,41,-1
 489 104 l 1,42,43
 458 50 458 50 406 21 c 128,-1,44
 354 -8 354 -8 293 -11 c 1,45,-1
 272 -47 l 1,46,47
 290 -43 290 -43 304 -43 c 0,48,49
 337 -43 337 -43 360 -60 c 128,-1,50
 383 -77 383 -77 383 -106 c 0,51,52
 383 -142 383 -142 350.5 -163.5 c 128,-1,53
 318 -185 318 -185 268 -185 c 0,54,0
 224 -185 224 -185 180 -170 c 1,1,-1
EndSplineSet
EndChar
StartChar: eth
Encoding: 240 240 132
Width: 582
GlyphClass: 2
Flags: W
AnchorPoint: "Anchor-1" 291 796 basechar 0
AnchorPoint: "Anchor-0" 291 0 basechar 0
LayerCount: 2
Fore
SplineSet
152 17.5 m 128,-1,1
 95 47 95 47 63 99.5 c 128,-1,2
 31 152 31 152 31 219 c 0,3,4
 31 285 31 285 61 337.5 c 128,-1,5
 91 390 91 390 142.5 419.5 c 128,-1,6
 194 449 194 449 255 449 c 0,7,8
 355 449 355 449 411 383 c 1,9,10
 407 501 407 501 344 558 c 1,11,-1
 277 491 l 1,12,-1
 234 534 l 1,13,-1
 292 592 l 1,14,15
 245 615 245 615 169 615 c 1,16,-1
 169 719 l 1,17,18
 293 719 293 719 372 672 c 1,19,-1
 424 724 l 1,20,-1
 467 681 l 1,21,-1
 423 637 l 1,22,23
 477 593 477 593 509 508 c 128,-1,24
 541 423 541 423 541 317 c 0,25,26
 541 169 541 169 479 78.5 c 128,-1,27
 417 -12 417 -12 283 -12 c 0,28,0
 209 -12 209 -12 152 17.5 c 128,-1,1
371.5 121.5 m 128,-1,30
 405 158 405 158 405 218 c 256,31,32
 405 278 405 278 371.5 314.5 c 128,-1,33
 338 351 338 351 283 351 c 0,34,35
 227 351 227 351 194 314 c 128,-1,36
 161 277 161 277 161 218 c 0,37,38
 161 158 161 158 194 121.5 c 128,-1,39
 227 85 227 85 283 85 c 0,40,29
 338 85 338 85 371.5 121.5 c 128,-1,30
EndSplineSet
EndChar
StartChar: divide
Encoding: 247 247 323
Width: 597
GlyphClass: 1
Flags: W
LayerCount: 2
Fore
SplineSet
46 303 m 1,0,-1
 552 303 l 1,1,-1
 552 193 l 1,2,-1
 46 193 l 1,3,-1
 46 303 l 1,0,-1
247.5 19.5 m 128,-1,5
 226 41 226 41 226 72 c 0,6,7
 226 102 226 102 247.5 123.5 c 128,-1,8
 269 145 269 145 299 145 c 0,9,10
 330 145 330 145 351 123.5 c 128,-1,11
 372 102 372 102 372 72 c 0,12,13
 372 41 372 41 351 19.5 c 128,-1,14
 330 -2 330 -2 299 -2 c 0,15,4
 269 -2 269 -2 247.5 19.5 c 128,-1,5
247.5 372 m 128,-1,17
 226 393 226 393 226 424 c 256,18,19
 226 455 226 455 247.5 476.5 c 128,-1,20
 269 498 269 498 299 498 c 0,21,22
 330 498 330 498 351 476.5 c 128,-1,23
 372 455 372 455 372 424 c 256,24,25
 372 393 372 393 351 372 c 128,-1,26
 330 351 330 351 299 351 c 0,27,16
 269 351 269 351 247.5 372 c 128,-1,17
EndSplineSet
EndChar
StartChar: oslash
Encoding: 248 248 179
Width: 569
GlyphClass: 2
Flags: W
AnchorPoint: "Anchor-3" 546 496 basechar 0
AnchorPoint: "Anchor-1" 284 496 basechar 0
AnchorPoint: "Anchor-0" 284 0 basechar 0
LayerCount: 2
Fore
SplineSet
207.5 -1.5 m 128,-1,1
 170 9 170 9 139 29 c 1,2,-1
 96 -20 l 1,3,-1
 47 22 l 1,4,-1
 90 71 l 1,5,6
 31 140 31 140 31 248 c 0,7,8
 31 333 31 333 66.5 392 c 128,-1,9
 102 451 102 451 159.5 479.5 c 128,-1,10
 217 508 217 508 284 508 c 0,11,12
 366 508 366 508 430 467 c 1,13,-1
 473 516 l 1,14,-1
 522 474 l 1,15,-1
 479 425 l 1,16,17
 538 356 538 356 538 248 c 0,18,19
 538 162 538 162 502.5 103.5 c 128,-1,20
 467 45 467 45 409 16.5 c 128,-1,21
 351 -12 351 -12 284 -12 c 0,22,0
 245 -12 245 -12 207.5 -1.5 c 128,-1,1
373 128 m 128,-1,24
 408 167 408 167 408 248 c 0,25,26
 408 294 408 294 394 327 c 1,27,-1
 211 113 l 1,28,29
 243 89 243 89 284 89 c 0,30,23
 338 89 338 89 373 128 c 128,-1,24
174 169 m 1,32,-1
 358 383 l 1,33,34
 327 407 327 407 284 407 c 0,35,36
 231 407 231 407 196 367.5 c 128,-1,37
 161 328 161 328 161 248 c 0,38,31
 161 199 161 199 174 169 c 1,32,-1
EndSplineSet
EndChar
StartChar: thorn
Encoding: 254 254 183
Width: 589
GlyphClass: 2
Flags: W
AnchorPoint: "Anchor-1" 295 496 basechar 0
AnchorPoint: "Anchor-0" 295 0 basechar 0
LayerCount: 2
Fore
SplineSet
60 708 m 1,0,-1
 186 708 l 1,1,-1
 186 424 l 1,2,3
 209 463 209 463 251 485.5 c 128,-1,4
 293 508 293 508 341 508 c 0,5,6
 402 508 402 508 451.5 476 c 128,-1,7
 501 444 501 444 529 385 c 128,-1,8
 557 326 557 326 557 247 c 256,9,10
 557 168 557 168 529 109 c 128,-1,11
 501 50 501 50 451.5 19 c 128,-1,12
 402 -12 402 -12 341 -12 c 0,13,14
 293 -12 293 -12 251 10 c 128,-1,15
 209 32 209 32 186 72 c 1,16,-1
 186 -162 l 1,17,-1
 60 -162 l 1,18,-1
 60 708 l 1,0,-1
390 130 m 128,-1,20
 424 172 424 172 424 247 c 0,21,22
 424 321 424 321 390 364.5 c 128,-1,23
 356 408 356 408 303 408 c 0,24,25
 248 408 248 408 214.5 367.5 c 128,-1,26
 181 327 181 327 181 249 c 256,27,28
 181 171 181 171 214.5 129.5 c 128,-1,29
 248 88 248 88 303 88 c 0,30,19
 356 88 356 88 390 130 c 128,-1,20
EndSplineSet
EndChar
StartChar: Aogonek
Encoding: 260 260 9
Width: 665
GlyphClass: 2
Flags: W
AnchorPoint: "Anchor-1" 333 668 basechar 0
AnchorPoint: "Anchor-0" 333 0 basechar 0
LayerCount: 2
Fore
SplineSet
494 -148.5 m 128,-1,1
 462 -123 462 -123 462 -87 c 0,2,3
 462 -58 462 -58 478.5 -36 c 128,-1,4
 495 -14 495 -14 526 1 c 1,5,-1
 514 1 l 1,6,-1
 469 130 l 1,7,-1
 196 130 l 1,8,-1
 151 0 l 1,9,-1
 7 0 l 1,10,-1
 259 668 l 1,11,-1
 406 668 l 1,12,-1
 658 0 l 1,13,14
 620 -9 620 -9 593 -27.5 c 128,-1,15
 566 -46 566 -46 566 -70 c 0,16,17
 566 -88 566 -88 579.5 -96.5 c 128,-1,18
 593 -105 593 -105 613 -105 c 0,19,20
 636 -105 636 -105 658 -96 c 1,21,-1
 658 -163 l 1,22,23
 645 -168 645 -168 624.5 -171 c 128,-1,24
 604 -174 604 -174 587 -174 c 0,25,0
 526 -174 526 -174 494 -148.5 c 128,-1,1
432 239 m 1,26,-1
 332 529 l 1,27,-1
 232 239 l 1,28,-1
 432 239 l 1,26,-1
EndSplineSet
EndChar
StartChar: aogonek
Encoding: 261 261 119
Width: 545
GlyphClass: 2
Flags: W
AnchorPoint: "Anchor-1" 270 496 basechar 0
AnchorPoint: "Anchor-0" 270 0 basechar 0
LayerCount: 2
Fore
SplineSet
335 -147.5 m 128,-1,1
 304 -121 304 -121 304 -87 c 0,2,3
 304 -28 304 -28 381 9 c 1,4,-1
 365 63 l 1,5,6
 316 -12 316 -12 198 -12 c 0,7,8
 125 -12 125 -12 75.5 27 c 128,-1,9
 26 66 26 66 26 132 c 0,10,11
 26 215 26 215 111.5 256 c 128,-1,12
 197 297 197 297 363 311 c 1,13,-1
 363 324 l 2,14,15
 363 371 363 371 338 395 c 128,-1,16
 313 419 313 419 265 419 c 0,17,18
 227 419 227 419 201.5 402 c 128,-1,19
 176 385 176 385 169 353 c 1,20,-1
 59 390 l 1,21,22
 82 444 82 444 137.5 476 c 128,-1,23
 193 508 193 508 268 508 c 0,24,25
 376 508 376 508 429 459 c 128,-1,26
 482 410 482 410 482 303 c 2,27,-1
 482 191 l 2,28,29
 482 139 482 139 487 87 c 128,-1,30
 492 35 492 35 500 0 c 1,31,32
 453 -12 453 -12 430.5 -31 c 128,-1,33
 408 -50 408 -50 408 -70 c 0,34,35
 408 -88 408 -88 421.5 -96.5 c 128,-1,36
 435 -105 435 -105 455 -105 c 256,37,38
 475 -105 475 -105 500 -96 c 1,39,-1
 500 -163 l 1,40,41
 486 -168 486 -168 465 -171 c 128,-1,42
 444 -174 444 -174 427 -174 c 0,43,0
 366 -174 366 -174 335 -147.5 c 128,-1,1
363 204 m 2,45,-1
 363 230 l 1,46,47
 261 222 261 222 209.5 201 c 128,-1,48
 158 180 158 180 158 140 c 0,49,50
 158 112 158 112 180.5 95 c 128,-1,51
 203 78 203 78 240 78 c 0,52,44
 363 78 363 78 363 204 c 2,45,-1
EndSplineSet
EndChar
StartChar: Dcroat
Encoding: 272 272 21
Width: 704
GlyphClass: 1
Flags: W
LayerCount: 2
Fore
SplineSet
85 291 m 1,0,-1
 18 291 l 1,1,-1
 18 401 l 1,2,-1
 85 401 l 1,3,-1
 85 668 l 1,4,-1
 290 668 l 2,5,6
 668 668 668 668 668 334 c 0,7,8
 668 156 668 156 568.5 78 c 128,-1,9
 469 0 469 0 290 0 c 2,10,-1
 85 0 l 1,11,-1
 85 291 l 1,0,-1
418 130 m 128,-1,13
 470 148 470 148 500.5 196.5 c 128,-1,14
 531 245 531 245 531 334 c 256,15,16
 531 423 531 423 500.5 472 c 128,-1,17
 470 521 470 521 418 539 c 128,-1,18
 366 557 366 557 291 557 c 2,19,-1
 218 557 l 1,20,-1
 218 401 l 1,21,-1
 375 401 l 1,22,-1
 375 291 l 1,23,-1
 218 291 l 1,24,-1
 218 112 l 1,25,-1
 291 112 l 2,26,12
 366 112 366 112 418 130 c 128,-1,13
EndSplineSet
EndChar
StartChar: dcroat
Encoding: 273 273 131
Width: 588
GlyphClass: 1
Flags: W
LayerCount: 2
Fore
SplineSet
137.5 20 m 128,-1,1
 88 52 88 52 59.5 111 c 128,-1,2
 31 170 31 170 31 250 c 0,3,4
 31 329 31 329 59.5 387.5 c 128,-1,5
 88 446 88 446 137.5 477 c 128,-1,6
 187 508 187 508 248 508 c 0,7,8
 296 508 296 508 337.5 486 c 128,-1,9
 379 464 379 464 403 424 c 1,10,-1
 403 546 l 1,11,-1
 260 546 l 1,12,-1
 260 620 l 1,13,-1
 403 620 l 1,14,-1
 403 708 l 1,15,-1
 528 708 l 1,16,-1
 528 620 l 1,17,-1
 614 620 l 1,18,-1
 614 546 l 1,19,-1
 528 546 l 1,20,-1
 528 191 l 2,21,22
 528 88 528 88 545 0 c 1,23,-1
 426 0 l 1,24,-1
 406 68 l 1,25,26
 377 28 377 28 336.5 8 c 128,-1,27
 296 -12 296 -12 248 -12 c 0,28,0
 187 -12 187 -12 137.5 20 c 128,-1,1
374 128.5 m 128,-1,30
 408 169 408 169 408 248 c 0,31,32
 408 325 408 325 374 366.5 c 128,-1,33
 340 408 340 408 286 408 c 256,34,35
 232 408 232 408 198 366 c 128,-1,36
 164 324 164 324 164 250 c 0,37,38
 164 175 164 175 198 131.5 c 128,-1,39
 232 88 232 88 286 88 c 256,40,29
 340 88 340 88 374 128.5 c 128,-1,30
EndSplineSet
EndChar
StartChar: Eogonek
Encoding: 280 280 31
Width: 590
GlyphClass: 2
Flags: W
AnchorPoint: "Anchor-1" 288 668 basechar 0
AnchorPoint: "Anchor-0" 296 0 basechar 0
LayerCount: 2
Fore
SplineSet
65 668 m 1,0,-1
 551 668 l 1,1,-1
 551 552 l 1,2,-1
 198 552 l 1,3,-1
 198 402 l 1,4,-1
 433 402 l 1,5,-1
 433 285 l 1,6,-1
 198 285 l 1,7,-1
 198 116 l 1,8,-1
 555 116 l 1,9,-1
 555 0 l 1,10,11
 517 -9 517 -9 490 -27.5 c 128,-1,12
 463 -46 463 -46 463 -70 c 0,13,14
 463 -88 463 -88 476.5 -96.5 c 128,-1,15
 490 -105 490 -105 510 -105 c 0,16,17
 533 -105 533 -105 555 -96 c 1,18,-1
 555 -163 l 1,19,20
 542 -168 542 -168 521 -171 c 128,-1,21
 500 -174 500 -174 484 -174 c 0,22,23
 423 -174 423 -174 391 -148.5 c 128,-1,24
 359 -123 359 -123 359 -87 c 0,25,26
 359 -30 359 -30 421 0 c 1,27,-1
 65 0 l 1,28,-1
 65 668 l 1,0,-1
EndSplineSet
EndChar
StartChar: eogonek
Encoding: 281 281 141
Width: 557
GlyphClass: 2
Flags: W
AnchorPoint: "Anchor-1" 293 496 basechar 0
AnchorPoint: "Anchor-0" 280 0 basechar 0
LayerCount: 2
Fore
SplineSet
293 -147.5 m 128,-1,1
 263 -121 263 -121 263 -81 c 0,2,3
 263 -42 263 -42 287 -11 c 1,4,5
 211 -11 211 -11 153 21 c 128,-1,6
 95 53 95 53 63 112 c 128,-1,7
 31 171 31 171 31 249 c 0,8,9
 31 326 31 326 65 385 c 128,-1,10
 99 444 99 444 157.5 476 c 128,-1,11
 216 508 216 508 287 508 c 0,12,13
 361 508 361 508 417 473 c 128,-1,14
 473 438 473 438 503 377.5 c 128,-1,15
 533 317 533 317 533 242 c 0,16,17
 533 224 533 224 532 215 c 1,18,-1
 156 215 l 1,19,20
 166 149 166 149 203.5 119 c 128,-1,21
 241 89 241 89 289 89 c 0,22,23
 362 89 362 89 396 131 c 1,24,-1
 501 94 l 1,25,26
 473 51 473 51 426 23 c 0,27,28
 367 -16 367 -16 367 -63 c 0,29,30
 367 -85 367 -85 380.5 -95 c 128,-1,31
 394 -105 394 -105 414 -105 c 0,32,33
 437 -105 437 -105 459 -96 c 1,34,-1
 459 -163 l 1,35,36
 445 -168 445 -168 424 -171 c 128,-1,37
 403 -174 403 -174 386 -174 c 0,38,0
 323 -174 323 -174 293 -147.5 c 128,-1,1
375.5 379 m 128,-1,40
 342 411 342 411 290 411 c 0,41,42
 239 411 239 411 203 384 c 128,-1,43
 167 357 167 357 156 297 c 1,44,-1
 412 297 l 1,45,39
 409 347 409 347 375.5 379 c 128,-1,40
EndSplineSet
EndChar
StartChar: Hbar
Encoding: 294 294 38
Width: 699
GlyphClass: 1
Flags: W
LayerCount: 2
Fore
SplineSet
65 503 m 1,0,-1
 11 503 l 1,1,-1
 11 591 l 1,2,-1
 65 591 l 1,3,-1
 65 668 l 1,4,-1
 198 668 l 1,5,-1
 198 591 l 1,6,-1
 502 591 l 1,7,-1
 502 668 l 1,8,-1
 635 668 l 1,9,-1
 635 591 l 1,10,-1
 688 591 l 1,11,-1
 688 503 l 1,12,-1
 635 503 l 1,13,-1
 635 0 l 1,14,-1
 502 0 l 1,15,-1
 502 285 l 1,16,-1
 198 285 l 1,17,-1
 198 0 l 1,18,-1
 65 0 l 1,19,-1
 65 503 l 1,0,-1
502 402 m 1,20,-1
 502 503 l 1,21,-1
 198 503 l 1,22,-1
 198 402 l 1,23,-1
 502 402 l 1,20,-1
EndSplineSet
EndChar
StartChar: hbar
Encoding: 295 295 148
Width: 566
GlyphClass: 1
Flags: W
LayerCount: 2
Fore
SplineSet
60 546 m 1,0,-1
 -25 546 l 1,1,-1
 -25 620 l 1,2,-1
 60 620 l 1,3,-1
 60 708 l 1,4,-1
 186 708 l 1,5,-1
 186 620 l 1,6,-1
 328 620 l 1,7,-1
 328 546 l 1,8,-1
 186 546 l 1,9,-1
 186 426 l 1,10,11
 206 461 206 461 246 484.5 c 128,-1,12
 286 508 286 508 342 508 c 0,13,14
 431 508 431 508 469 457 c 128,-1,15
 507 406 507 406 507 307 c 2,16,-1
 507 0 l 1,17,-1
 382 0 l 1,18,-1
 382 274 l 2,19,20
 382 317 382 317 376.5 345 c 128,-1,21
 371 373 371 373 351.5 390.5 c 128,-1,22
 332 408 332 408 293 408 c 0,23,24
 240 408 240 408 213 370.5 c 128,-1,25
 186 333 186 333 186 260 c 2,26,-1
 186 0 l 1,27,-1
 60 0 l 1,28,-1
 60 546 l 1,0,-1
EndSplineSet
EndChar
StartChar: Iogonek
Encoding: 302 302 47
Width: 416
GlyphClass: 2
Flags: W
AnchorPoint: "Anchor-1" 208 668 basechar 0
AnchorPoint: "Anchor-0" 208 0 basechar 0
LayerCount: 2
Fore
SplineSet
48 98 m 1,0,-1
 142 98 l 1,1,-1
 142 570 l 1,2,-1
 48 570 l 1,3,-1
 48 668 l 1,4,-1
 368 668 l 1,5,-1
 368 570 l 1,6,-1
 275 570 l 1,7,-1
 275 98 l 1,8,-1
 368 98 l 1,9,-1
 368 0 l 1,10,11
 330 -9 330 -9 303 -27.5 c 128,-1,12
 276 -46 276 -46 276 -70 c 0,13,14
 276 -88 276 -88 289.5 -96.5 c 128,-1,15
 303 -105 303 -105 323 -105 c 0,16,17
 346 -105 346 -105 368 -96 c 1,18,-1
 368 -163 l 1,19,20
 356 -168 356 -168 335 -171 c 128,-1,21
 314 -174 314 -174 297 -174 c 0,22,23
 236 -174 236 -174 204 -148.5 c 128,-1,24
 172 -123 172 -123 172 -87 c 0,25,26
 172 -30 172 -30 234 0 c 1,27,-1
 48 0 l 1,28,-1
 48 98 l 1,0,-1
EndSplineSet
EndChar
StartChar: iogonek
Encoding: 303 303 156
Width: 288
GlyphClass: 2
Flags: W
AnchorPoint: "Anchor-1" 155 741 basechar 0
AnchorPoint: "Anchor-0" 129 0 basechar 0
LayerCount: 2
Fore
SplineSet
99 606 m 128,-1,1
 76 629 76 629 76 662 c 256,2,3
 76 695 76 695 99 718 c 128,-1,4
 122 741 122 741 155 741 c 256,5,6
 188 741 188 741 211 718 c 128,-1,7
 234 695 234 695 234 662 c 256,8,9
 234 629 234 629 211 606 c 128,-1,10
 188 583 188 583 155 583 c 256,11,0
 122 583 122 583 99 606 c 128,-1,1
61 -147.5 m 128,-1,13
 30 -121 30 -121 30 -87 c 0,14,15
 30 -30 30 -30 99 5 c 1,16,-1
 99 400 l 1,17,-1
 22 400 l 1,18,-1
 22 496 l 1,19,-1
 226 496 l 1,20,-1
 226 0 l 1,21,22
 179 -12 179 -12 156.5 -30.5 c 128,-1,23
 134 -49 134 -49 134 -70 c 0,24,25
 134 -88 134 -88 147 -96.5 c 128,-1,26
 160 -105 160 -105 181 -105 c 0,27,28
 201 -105 201 -105 226 -96 c 1,29,-1
 226 -163 l 1,30,31
 212 -168 212 -168 190.5 -171 c 128,-1,32
 169 -174 169 -174 153 -174 c 0,33,12
 92 -174 92 -174 61 -147.5 c 128,-1,13
EndSplineSet
EndChar
StartChar: dotlessi
Encoding: 305 305 150
Width: 288
GlyphClass: 2
Flags: W
AnchorPoint: "Anchor-2" 226 10 basechar 0
AnchorPoint: "Anchor-1" 155 496 basechar 0
AnchorPoint: "Anchor-0" 129 0 basechar 0
LayerCount: 2
Fore
SplineSet
99 400 m 1,0,-1
 22 400 l 1,1,-1
 22 496 l 1,2,-1
 226 496 l 1,3,-1
 226 0 l 1,4,-1
 99 0 l 1,5,-1
 99 400 l 1,0,-1
EndSplineSet
EndChar
StartChar: Lslash
Encoding: 321 321 55
Width: 579
GlyphClass: 1
Flags: W
LayerCount: 2
Fore
SplineSet
95 234 m 1,0,-1
 10 184 l 1,1,-1
 10 289 l 1,2,-1
 95 339 l 1,3,-1
 95 668 l 1,4,-1
 228 668 l 1,5,-1
 228 419 l 1,6,-1
 395 518 l 1,7,-1
 395 413 l 1,8,-1
 228 314 l 1,9,-1
 228 116 l 1,10,-1
 563 116 l 1,11,-1
 563 0 l 1,12,-1
 95 0 l 1,13,-1
 95 234 l 1,0,-1
EndSplineSet
EndChar
StartChar: lslash
Encoding: 322 322 166
Width: 335
GlyphClass: 1
Flags: W
LayerCount: 2
Fore
SplineSet
134.5 10.5 m 128,-1,1
 104 21 104 21 90.5 49 c 128,-1,2
 77 77 77 77 77 131 c 2,3,-1
 77 259 l 1,4,-1
 26 230 l 1,5,-1
 26 328 l 1,6,-1
 77 357 l 1,7,-1
 77 708 l 1,8,-1
 202 708 l 1,9,-1
 202 428 l 1,10,-1
 297 481 l 1,11,-1
 297 384 l 1,12,-1
 202 330 l 1,13,-1
 202 164 l 2,14,15
 202 138 202 138 206.5 126 c 128,-1,16
 211 114 211 114 223.5 109 c 128,-1,17
 236 104 236 104 263 104 c 2,18,-1
 304 104 l 1,19,-1
 304 0 l 1,20,-1
 223 0 l 2,21,0
 165 0 165 0 134.5 10.5 c 128,-1,1
EndSplineSet
EndChar
StartChar: OE
Encoding: 338 338 70
Width: 1019
GlyphClass: 2
Flags: W
AnchorPoint: "Anchor-1" 515 668 basechar 0
AnchorPoint: "Anchor-0" 515 0 basechar 0
LayerCount: 2
Fore
SplineSet
184.5 31.5 m 128,-1,1
 113 75 113 75 74 153.5 c 128,-1,2
 35 232 35 232 35 334 c 256,3,4
 35 436 35 436 74 514.5 c 128,-1,5
 113 593 113 593 184.5 636.5 c 128,-1,6
 256 680 256 680 348 680 c 0,7,8
 401 680 401 680 446.5 663.5 c 128,-1,9
 492 647 492 647 527 615 c 1,10,-1
 527 668 l 1,11,-1
 980 668 l 1,12,-1
 980 552 l 1,13,-1
 653 552 l 1,14,-1
 653 402 l 1,15,-1
 862 402 l 1,16,-1
 862 285 l 1,17,-1
 653 285 l 1,18,-1
 653 116 l 1,19,-1
 984 116 l 1,20,-1
 984 0 l 1,21,-1
 527 0 l 1,22,-1
 527 53 l 1,23,24
 492 21 492 21 446.5 4.5 c 128,-1,25
 401 -12 401 -12 348 -12 c 0,26,0
 256 -12 256 -12 184.5 31.5 c 128,-1,1
478 157 m 128,-1,28
 527 216 527 216 527 334 c 256,29,30
 527 452 527 452 478 511 c 128,-1,31
 429 570 429 570 351 570 c 0,32,33
 274 570 274 570 224.5 511 c 128,-1,34
 175 452 175 452 175 334 c 256,35,36
 175 216 175 216 224.5 157 c 128,-1,37
 274 98 274 98 351 98 c 0,38,27
 429 98 429 98 478 157 c 128,-1,28
EndSplineSet
EndChar
StartChar: oe
Encoding: 339 339 181
Width: 933
GlyphClass: 2
Flags: W
AnchorPoint: "Anchor-1" 467 496 basechar 0
AnchorPoint: "Anchor-0" 467 0 basechar 0
LayerCount: 2
Fore
SplineSet
555.5 10.5 m 128,-1,1
 506 33 506 33 472 75 c 1,2,3
 438 32 438 32 389 10 c 128,-1,4
 340 -12 340 -12 284 -12 c 0,5,6
 217 -12 217 -12 159.5 16.5 c 128,-1,7
 102 45 102 45 66.5 104 c 128,-1,8
 31 163 31 163 31 248 c 256,9,10
 31 333 31 333 66.5 392 c 128,-1,11
 102 451 102 451 159.5 479.5 c 128,-1,12
 217 508 217 508 284 508 c 0,13,14
 340 508 340 508 389.5 486 c 128,-1,15
 439 464 439 464 473 421 c 1,16,17
 508 463 508 463 557 485.5 c 128,-1,18
 606 508 606 508 664 508 c 0,19,20
 743 508 743 508 800.5 469 c 128,-1,21
 858 430 858 430 886.5 363.5 c 128,-1,22
 915 297 915 297 909 215 c 1,23,-1
 533 215 l 1,24,25
 542 149 542 149 580 119 c 128,-1,26
 618 89 618 89 666 89 c 0,27,28
 738 89 738 89 772 131 c 1,29,-1
 877 94 l 1,30,31
 843 43 843 43 788 15.5 c 128,-1,32
 733 -12 733 -12 668 -12 c 0,33,0
 605 -12 605 -12 555.5 10.5 c 128,-1,1
372.5 128.5 m 128,-1,35
 407 168 407 168 407 248 c 0,36,37
 407 329 407 329 372.5 368 c 128,-1,38
 338 407 338 407 284 407 c 0,39,40
 231 407 231 407 196 367.5 c 128,-1,41
 161 328 161 328 161 248 c 256,42,43
 161 168 161 168 195.5 128.5 c 128,-1,44
 230 89 230 89 284 89 c 256,45,34
 338 89 338 89 372.5 128.5 c 128,-1,35
752 379 m 128,-1,47
 718 411 718 411 666 411 c 0,48,49
 615 411 615 411 579 384 c 128,-1,50
 543 357 543 357 532 297 c 1,51,-1
 788 297 l 1,52,46
 786 347 786 347 752 379 c 128,-1,47
EndSplineSet
EndChar
StartChar: Scedilla
Encoding: 350 350 80
Width: 605
GlyphClass: 2
Flags: W
AnchorPoint: "Anchor-1" 303 668 basechar 0
LayerCount: 2
Fore
SplineSet
207 -170 m 1,1,-1
 222 -126 l 1,2,3
 252 -139 252 -139 282 -139 c 0,4,5
 304 -139 304 -139 316.5 -131 c 128,-1,6
 329 -123 329 -123 329 -109 c 0,7,8
 329 -97 329 -97 319.5 -89.5 c 128,-1,9
 310 -82 310 -82 292 -82 c 0,10,11
 280 -82 280 -82 262 -87 c 0,12,13
 251 -91 251 -91 243 -84.5 c 128,-1,14
 235 -78 235 -78 235 -68 c 0,15,16
 235 -63 235 -63 238 -58 c 2,17,-1
 268 -10 l 1,18,19
 180 -3 180 -3 117 39 c 128,-1,20
 54 81 54 81 28 153 c 1,21,-1
 150 197 l 1,22,23
 162 150 162 150 206.5 123 c 128,-1,24
 251 96 251 96 308 96 c 0,25,26
 367 96 367 96 405.5 119 c 128,-1,27
 444 142 444 142 444 188 c 0,28,29
 444 224 444 224 416.5 244.5 c 128,-1,30
 389 265 389 265 321 280 c 2,31,-1
 236 298 l 2,32,33
 44 338 44 338 44 481 c 0,34,35
 44 540 44 540 79.5 585.5 c 128,-1,36
 115 631 115 631 176 655.5 c 128,-1,37
 237 680 237 680 311 680 c 0,38,39
 394 680 394 680 460.5 646 c 128,-1,40
 527 612 527 612 557 543 c 1,41,-1
 436 499 l 1,42,43
 420 534 420 534 384 553 c 128,-1,44
 348 572 348 572 300 572 c 0,45,46
 247 572 247 572 212 550.5 c 128,-1,47
 177 529 177 529 177 491 c 0,48,49
 177 432 177 432 265 414 c 2,50,-1
 356 394 l 2,51,52
 428 378 428 378 475 356.5 c 128,-1,53
 522 335 522 335 549.5 297.5 c 128,-1,54
 577 260 577 260 577 200 c 0,55,56
 577 137 577 137 542 90 c 128,-1,57
 507 43 507 43 448.5 17 c 128,-1,58
 390 -9 390 -9 320 -12 c 1,59,-1
 298 -47 l 1,60,61
 318 -43 318 -43 331 -43 c 0,62,63
 364 -43 364 -43 387 -60 c 128,-1,64
 410 -77 410 -77 410 -106 c 0,65,66
 410 -142 410 -142 377.5 -163.5 c 128,-1,67
 345 -185 345 -185 295 -185 c 0,68,0
 249 -185 249 -185 207 -170 c 1,1,-1
EndSplineSet
Substitution2: "'locl' Localized Forms in Latin lookup 4 subtable" uni0218
AlternateSubs2: "'aalt' Access All Alternates in Latin lookup 0 subtable" uni0218
EndChar
StartChar: scedilla
Encoding: 351 351 191
Width: 499
GlyphClass: 2
Flags: W
AnchorPoint: "Anchor-1" 253 496 basechar 0
LayerCount: 2
Fore
SplineSet
163 -170 m 1,1,-1
 178 -126 l 1,2,3
 208 -139 208 -139 238 -139 c 0,4,5
 260 -139 260 -139 272.5 -131 c 128,-1,6
 285 -123 285 -123 285 -109 c 0,7,8
 285 -97 285 -97 275.5 -89.5 c 128,-1,9
 266 -82 266 -82 248 -82 c 0,10,11
 236 -82 236 -82 219 -87 c 0,12,13
 208 -91 208 -91 199.5 -84.5 c 128,-1,14
 191 -78 191 -78 191 -68 c 0,15,16
 191 -63 191 -63 194 -58 c 2,17,-1
 223 -12 l 1,18,19
 152 -6 152 -6 98.5 26.5 c 128,-1,20
 45 59 45 59 22 113 c 1,21,-1
 132 154 l 1,22,23
 141 120 141 120 175.5 101 c 128,-1,24
 210 82 210 82 255 82 c 0,25,26
 297 82 297 82 326.5 98 c 128,-1,27
 356 114 356 114 356 141 c 0,28,29
 356 164 356 164 336 177 c 128,-1,30
 316 190 316 190 269 199 c 2,31,-1
 194 214 l 2,32,33
 38 243 38 243 38 356 c 0,34,35
 38 403 38 403 67 437.5 c 128,-1,36
 96 472 96 472 145 490 c 128,-1,37
 194 508 194 508 251 508 c 0,38,39
 324 508 324 508 380.5 481 c 128,-1,40
 437 454 437 454 463 398 c 1,41,-1
 354 358 l 1,42,43
 342 386 342 386 314 400 c 128,-1,44
 286 414 286 414 247 414 c 0,45,46
 206 414 206 414 182.5 400 c 128,-1,47
 159 386 159 386 159 362 c 0,48,49
 159 342 159 342 175 331 c 128,-1,50
 191 320 191 320 229 312 c 2,51,-1
 306 297 l 2,52,53
 395 280 395 280 436.5 247 c 128,-1,54
 478 214 478 214 478 149 c 0,55,56
 478 79 478 79 421.5 36 c 128,-1,57
 365 -7 365 -7 276 -12 c 1,58,-1
 254 -47 l 1,59,60
 274 -43 274 -43 287 -43 c 0,61,62
 320 -43 320 -43 343 -60 c 128,-1,63
 366 -77 366 -77 366 -106 c 0,64,65
 366 -142 366 -142 333.5 -163.5 c 128,-1,66
 301 -185 301 -185 251 -185 c 0,67,0
 205 -185 205 -185 163 -170 c 1,1,-1
EndSplineSet
Substitution2: "'locl' Localized Forms in Latin lookup 4 subtable" uni0219
AlternateSubs2: "'aalt' Access All Alternates in Latin lookup 0 subtable" uni0219
EndChar
StartChar: uni0162
Encoding: 354 354 85
Width: 595
GlyphClass: 2
Flags: W
AnchorPoint: "Anchor-1" 297 668 basechar 0
LayerCount: 2
Fore
SplineSet
231 552 m 1,0,-1
 13 552 l 1,1,-1
 13 668 l 1,2,-1
 582 668 l 1,3,-1
 582 552 l 1,4,-1
 364 552 l 1,5,-1
 364 0 l 1,6,-1
 324 0 l 1,7,-1
 295 -47 l 1,8,9
 315 -43 315 -43 328 -43 c 0,10,11
 361 -43 361 -43 384 -60 c 128,-1,12
 407 -77 407 -77 407 -106 c 0,13,14
 407 -142 407 -142 374.5 -163.5 c 128,-1,15
 342 -185 342 -185 292 -185 c 0,16,17
 246 -185 246 -185 204 -170 c 1,18,-1
 219 -126 l 1,19,20
 249 -139 249 -139 279 -139 c 0,21,22
 301 -139 301 -139 313.5 -131 c 128,-1,23
 326 -123 326 -123 326 -109 c 0,24,25
 326 -97 326 -97 316.5 -89.5 c 128,-1,26
 307 -82 307 -82 289 -82 c 0,27,28
 277 -82 277 -82 259 -87 c 0,29,30
 248 -91 248 -91 240 -84.5 c 128,-1,31
 232 -78 232 -78 232 -68 c 0,32,33
 232 -63 232 -63 235 -58 c 2,34,-1
 271 0 l 1,35,-1
 231 0 l 1,36,-1
 231 552 l 1,0,-1
EndSplineSet
Substitution2: "'locl' Localized Forms in Latin lookup 4 subtable" uni021A
AlternateSubs2: "'aalt' Access All Alternates in Latin lookup 0 subtable" uni021A
EndChar
StartChar: uni0163
Encoding: 355 355 196
Width: 363
GlyphClass: 2
Flags: W
AnchorPoint: "Anchor-3" 242 550 basechar 0
AnchorPoint: "Anchor-1" 177 496 basechar 0
LayerCount: 2
Fore
SplineSet
111 -170 m 1,1,-1
 126 -126 l 1,2,3
 156 -139 156 -139 186 -139 c 0,4,5
 209 -139 209 -139 221.5 -131 c 128,-1,6
 234 -123 234 -123 234 -109 c 0,7,8
 234 -97 234 -97 224 -89.5 c 128,-1,9
 214 -82 214 -82 196 -82 c 0,10,11
 184 -82 184 -82 167 -87 c 0,12,13
 156 -91 156 -91 148 -85 c 128,-1,14
 140 -79 140 -79 140 -69 c 0,15,16
 140 -63 140 -63 143 -58 c 2,17,-1
 181 4 l 1,18,19
 134 12 134 12 115.5 40 c 128,-1,20
 97 68 97 68 97 134 c 2,21,-1
 97 399 l 1,22,-1
 14 399 l 1,23,-1
 14 496 l 1,24,-1
 97 496 l 1,25,-1
 97 620 l 1,26,-1
 222 620 l 1,27,-1
 222 496 l 1,28,-1
 328 496 l 1,29,-1
 328 399 l 1,30,-1
 222 399 l 1,31,-1
 222 164 l 2,32,33
 222 126 222 126 233.5 115 c 128,-1,34
 245 104 245 104 281 104 c 2,35,-1
 328 104 l 1,36,-1
 328 0 l 1,37,-1
 242 0 l 1,38,-1
 232 0 l 1,39,-1
 203 -47 l 1,40,41
 221 -43 221 -43 235 -43 c 0,42,43
 268 -43 268 -43 291 -60 c 128,-1,44
 314 -77 314 -77 314 -106 c 0,45,46
 314 -143 314 -143 281.5 -164 c 128,-1,47
 249 -185 249 -185 199 -185 c 0,48,0
 155 -185 155 -185 111 -170 c 1,1,-1
EndSplineSet
Substitution2: "'locl' Localized Forms in Latin lookup 4 subtable" uni021B
AlternateSubs2: "'aalt' Access All Alternates in Latin lookup 0 subtable" uni021B
EndChar
StartChar: Uring
Encoding: 366 366 95
Width: 687
GlyphClass: 2
Flags: W
AnchorPoint: "Anchor-3" 661 668 basechar 0
AnchorPoint: "Anchor-2" 544 10 basechar 0
AnchorPoint: "Anchor-1" 344 908 basechar 0
AnchorPoint: "Anchor-0" 345 0 basechar 0
LayerCount: 2
Fore
SplineSet
128.5 60.5 m 128,-1,1
 63 133 63 133 63 287 c 2,2,-1
 63 668 l 1,3,-1
 196 668 l 1,4,-1
 196 273 l 2,5,6
 196 181 196 181 230.5 139.5 c 128,-1,7
 265 98 265 98 344 98 c 256,8,9
 423 98 423 98 457 139.5 c 128,-1,10
 491 181 491 181 491 273 c 2,11,-1
 491 668 l 1,12,-1
 624 668 l 1,13,-1
 624 287 l 2,14,15
 624 133 624 133 558.5 60.5 c 128,-1,16
 493 -12 493 -12 344 -12 c 0,17,0
 194 -12 194 -12 128.5 60.5 c 128,-1,1
257 698 m 128,-1,19
 221 734 221 734 221 785 c 256,20,21
 221 836 221 836 257 872 c 128,-1,22
 293 908 293 908 344 908 c 256,23,24
 395 908 395 908 431 872 c 128,-1,25
 467 836 467 836 467 785 c 256,26,27
 467 734 467 734 431 698 c 128,-1,28
 395 662 395 662 344 662 c 256,29,18
 293 662 293 662 257 698 c 128,-1,19
378.5 750.5 m 128,-1,31
 393 765 393 765 393 785 c 256,32,33
 393 805 393 805 378.5 819.5 c 128,-1,34
 364 834 364 834 344 834 c 256,35,36
 324 834 324 834 309.5 819.5 c 128,-1,37
 295 805 295 805 295 785 c 256,38,39
 295 765 295 765 309.5 750.5 c 128,-1,40
 324 736 324 736 344 736 c 256,41,30
 364 736 364 736 378.5 750.5 c 128,-1,31
EndSplineSet
EndChar
StartChar: Uogonek
Encoding: 370 370 94
Width: 687
GlyphClass: 2
Flags: W
AnchorPoint: "Anchor-3" 661 668 basechar 0
AnchorPoint: "Anchor-1" 344 668 basechar 0
AnchorPoint: "Anchor-0" 345 0 basechar 0
LayerCount: 2
Fore
SplineSet
377.5 -147.5 m 128,-1,1
 347 -121 347 -121 347 -81 c 0,2,3
 347 -43 347 -43 372 -11 c 1,4,5
 269 -14 269 -14 201.5 12.5 c 128,-1,6
 134 39 134 39 98.5 105.5 c 128,-1,7
 63 172 63 172 63 287 c 2,8,-1
 63 668 l 1,9,-1
 196 668 l 1,10,-1
 196 273 l 2,11,12
 196 181 196 181 230.5 139.5 c 128,-1,13
 265 98 265 98 344 98 c 256,14,15
 423 98 423 98 457 139.5 c 128,-1,16
 491 181 491 181 491 273 c 2,17,-1
 491 668 l 1,18,-1
 624 668 l 1,19,-1
 624 287 l 2,20,21
 624 187 624 187 597 122.5 c 128,-1,22
 570 58 570 58 514 25 c 0,23,24
 487 9 487 9 469.5 -14 c 128,-1,25
 452 -37 452 -37 452 -63 c 0,26,27
 452 -85 452 -85 465 -95 c 128,-1,28
 478 -105 478 -105 499 -105 c 0,29,30
 521 -105 521 -105 543 -96 c 1,31,-1
 543 -163 l 1,32,33
 529 -168 529 -168 508 -171 c 128,-1,34
 487 -174 487 -174 471 -174 c 0,35,0
 408 -174 408 -174 377.5 -147.5 c 128,-1,1
EndSplineSet
EndChar
StartChar: uogonek
Encoding: 371 371 205
Width: 560
GlyphClass: 2
Flags: W
AnchorPoint: "Anchor-3" 538 496 basechar 0
AnchorPoint: "Anchor-1" 280 496 basechar 0
AnchorPoint: "Anchor-0" 280 0 basechar 0
LayerCount: 2
Fore
SplineSet
96.5 39.5 m 128,-1,1
 58 91 58 91 58 191 c 2,2,-1
 58 496 l 1,3,-1
 184 496 l 1,4,-1
 184 224 l 2,5,6
 184 180 184 180 189.5 152 c 128,-1,7
 195 124 195 124 214 106.5 c 128,-1,8
 233 89 233 89 271 89 c 0,9,10
 324 89 324 89 349 123.5 c 128,-1,11
 374 158 374 158 374 231 c 2,12,-1
 374 496 l 1,13,-1
 500 496 l 1,14,-1
 500 0 l 1,15,16
 453 -12 453 -12 430.5 -31 c 128,-1,17
 408 -50 408 -50 408 -70 c 0,18,19
 408 -88 408 -88 421.5 -96.5 c 128,-1,20
 435 -105 435 -105 455 -105 c 256,21,22
 475 -105 475 -105 500 -96 c 1,23,-1
 500 -163 l 1,24,25
 486 -168 486 -168 465 -171 c 128,-1,26
 444 -174 444 -174 427 -174 c 0,27,28
 366 -174 366 -174 335 -147.5 c 128,-1,29
 304 -121 304 -121 304 -87 c 256,30,31
 304 -53 304 -53 328 -28 c 128,-1,32
 352 -3 352 -3 391 13 c 1,33,-1
 374 71 l 1,34,35
 350 31 350 31 315.5 9.5 c 128,-1,36
 281 -12 281 -12 225 -12 c 0,37,0
 135 -12 135 -12 96.5 39.5 c 128,-1,1
EndSplineSet
EndChar
StartChar: florin
Encoding: 402 402 295
Width: 362
GlyphClass: 1
Flags: W
LayerCount: 2
Fore
SplineSet
22 -164 m 1,1,-1
 22 -54 l 1,2,3
 39 -57 39 -57 50 -57 c 0,4,5
 79 -57 79 -57 92 -39.5 c 128,-1,6
 105 -22 105 -22 105 14 c 2,7,-1
 105 400 l 1,8,-1
 22 400 l 1,9,-1
 22 496 l 1,10,-1
 105 496 l 1,11,-1
 105 575 l 2,12,13
 105 631 105 631 121 662 c 128,-1,14
 137 693 137 693 173 706.5 c 128,-1,15
 209 720 209 720 273 720 c 2,16,-1
 336 720 l 1,17,-1
 336 619 l 1,18,-1
 290 619 l 2,19,20
 253 619 253 619 241.5 609 c 128,-1,21
 230 599 230 599 230 567 c 2,22,-1
 230 496 l 1,23,-1
 336 496 l 1,24,-1
 336 400 l 1,25,-1
 230 400 l 1,26,-1
 230 -20 l 2,27,28
 230 -100 230 -100 192.5 -136.5 c 128,-1,29
 155 -173 155 -173 91 -173 c 0,30,0
 57 -173 57 -173 22 -164 c 1,1,-1
EndSplineSet
EndChar
StartChar: uni0237
Encoding: 567 567 159
Width: 255
GlyphClass: 2
Flags: W
AnchorPoint: "Anchor-1" 130 496 basechar 0
AnchorPoint: "Anchor-0" 128 -251 basechar 0
LayerCount: 2
Fore
SplineSet
-66 -60 m 1,0,-1
 -12 -60 l 2,1,2
 21 -60 21 -60 38 -54.5 c 128,-1,3
 55 -49 55 -49 61.5 -34.5 c 128,-1,4
 68 -20 68 -20 68 8 c 2,5,-1
 68 496 l 1,6,-1
 193 496 l 1,7,-1
 193 -8 l 2,8,9
 193 -94 193 -94 148 -128 c 128,-1,10
 103 -162 103 -162 8 -162 c 2,11,-1
 -66 -162 l 1,12,-1
 -66 -60 l 1,0,-1
EndSplineSet
EndChar
StartChar: uni02C9
Encoding: 713 713 374
Width: 376
GlyphClass: 1
Flags: W
LayerCount: 2
Fore
SplineSet
43 656 m 1,0,-1
 333 656 l 1,1,-1
 333 570 l 1,2,-1
 43 570 l 1,3,-1
 43 656 l 1,0,-1
EndSplineSet
EndChar
StartChar: gravecomb
Encoding: 768 768 349
Width: 0
GlyphClass: 4
Flags: W
AnchorPoint: "Anchor-5" 188 719 basemark 0
AnchorPoint: "Anchor-5" 188 496 mark 0
AnchorPoint: "Anchor-1" 188 496 mark 0
LayerCount: 2
Fore
SplineSet
51 645.5 m 128,-1,1
 43 658 43 658 43 672 c 0,2,3
 43 692 43 692 56 705 c 128,-1,4
 69 718 69 718 90 718 c 0,5,6
 106 718 106 718 117.5 711 c 128,-1,7
 129 704 129 704 142 687 c 2,8,-1
 233 573 l 1,9,-1
 137 573 l 1,10,-1
 81 616 l 2,11,0
 59 633 59 633 51 645.5 c 128,-1,1
EndSplineSet
Substitution2: "Single Substitution lookup 13 subtable" gravecomb.case
Substitution2: "'case' Case-Sensitive Forms in Latin lookup 11 subtable" gravecomb.case
AlternateSubs2: "'aalt' Access All Alternates in Latin lookup 0 subtable" gravecomb.case
EndChar
StartChar: acutecomb
Encoding: 769 769 351
Width: 0
GlyphClass: 4
Flags: W
AnchorPoint: "Anchor-5" 88 719 basemark 0
AnchorPoint: "Anchor-5" 88 496 mark 0
AnchorPoint: "Anchor-1" 88 496 mark 0
LayerCount: 2
Fore
SplineSet
159.5 711 m 128,-1,1
 171 718 171 718 186 718 c 0,2,3
 207 718 207 718 220 705 c 128,-1,4
 233 692 233 692 233 672 c 0,5,6
 233 658 233 658 225 645.5 c 128,-1,7
 217 633 217 633 195 616 c 2,8,-1
 139 573 l 1,9,-1
 43 573 l 1,10,-1
 134 687 l 2,11,0
 148 704 148 704 159.5 711 c 128,-1,1
EndSplineSet
Substitution2: "Single Substitution lookup 13 subtable" acutecomb.case
Substitution2: "'case' Case-Sensitive Forms in Latin lookup 11 subtable" acutecomb.case
AlternateSubs2: "'aalt' Access All Alternates in Latin lookup 0 subtable" acutecomb.case
EndChar
StartChar: uni0302
Encoding: 770 770 356
Width: 0
GlyphClass: 4
Flags: W
AnchorPoint: "Anchor-5" 226 714 basemark 0
AnchorPoint: "Anchor-5" 226 496 mark 0
AnchorPoint: "Anchor-1" 226 496 mark 0
LayerCount: 2
Fore
SplineSet
226 714 m 256,1,2
 254 714 254 714 276 694 c 2,3,-1
 409 574 l 1,4,-1
 294 574 l 1,5,-1
 226 635 l 1,6,-1
 158 574 l 1,7,-1
 43 574 l 1,8,-1
 176 694 l 2,9,0
 198 714 198 714 226 714 c 256,1,2
EndSplineSet
Substitution2: "Single Substitution lookup 13 subtable" uni0302.case
Substitution2: "'case' Case-Sensitive Forms in Latin lookup 11 subtable" uni0302.case
AlternateSubs2: "'aalt' Access All Alternates in Latin lookup 0 subtable" uni0302.case
EndChar
StartChar: tildecomb
Encoding: 771 771 364
Width: 0
GlyphClass: 4
Flags: W
AnchorPoint: "Anchor-5" 220 686 basemark 0
AnchorPoint: "Anchor-5" 220 496 mark 0
AnchorPoint: "Anchor-1" 220 496 mark 0
LayerCount: 2
Fore
SplineSet
250.5 577.5 m 128,-1,1
 233 584 233 584 212 595 c 0,2,3
 200 601 200 601 188 606 c 128,-1,4
 176 611 176 611 165 611 c 0,5,6
 148 611 148 611 136.5 601.5 c 128,-1,7
 125 592 125 592 123 575 c 1,8,-1
 43 575 l 1,9,10
 52 629 52 629 82.5 657.5 c 128,-1,11
 113 686 113 686 161 686 c 0,12,13
 183 686 183 686 199 680 c 128,-1,14
 215 674 215 674 235 662 c 0,15,16
 252 653 252 653 262 648.5 c 128,-1,17
 272 644 272 644 285 644 c 0,18,19
 299 644 299 644 308 649 c 128,-1,20
 317 654 317 654 326 666 c 0,21,22
 342 685 342 685 359 685 c 0,23,24
 375 685 375 685 386 674.5 c 128,-1,25
 397 664 397 664 397 649 c 0,26,27
 397 632 397 632 382 613.5 c 128,-1,28
 367 595 367 595 342.5 583 c 128,-1,29
 318 571 318 571 292 571 c 0,30,0
 268 571 268 571 250.5 577.5 c 128,-1,1
EndSplineSet
Substitution2: "Single Substitution lookup 13 subtable" tildecomb.case
Substitution2: "'case' Case-Sensitive Forms in Latin lookup 11 subtable" tildecomb.case
AlternateSubs2: "'aalt' Access All Alternates in Latin lookup 0 subtable" tildecomb.case
EndChar
StartChar: uni0304
Encoding: 772 772 366
Width: 0
GlyphClass: 4
Flags: W
AnchorPoint: "Anchor-5" 188 668 basemark 0
AnchorPoint: "Anchor-5" 188 496 mark 0
AnchorPoint: "Anchor-1" 188 496 mark 0
LayerCount: 2
Fore
SplineSet
43 668 m 1,0,-1
 333 668 l 1,1,-1
 333 582 l 1,2,-1
 43 582 l 1,3,-1
 43 668 l 1,0,-1
EndSplineSet
Substitution2: "Single Substitution lookup 13 subtable" uni0304.case
Substitution2: "'case' Case-Sensitive Forms in Latin lookup 11 subtable" uni0304.case
AlternateSubs2: "'aalt' Access All Alternates in Latin lookup 0 subtable" uni0304.case
EndChar
StartChar: uni0306
Encoding: 774 774 360
Width: 0
GlyphClass: 4
Flags: W
AnchorPoint: "Anchor-5" 190 689 basemark 0
AnchorPoint: "Anchor-5" 190 496 mark 0
AnchorPoint: "Anchor-1" 190 496 mark 0
LayerCount: 2
Fore
SplineSet
91 599.5 m 128,-1,1
 53 634 53 634 43 689 c 1,2,-1
 121 689 l 1,3,4
 127 669 127 669 145.5 655.5 c 128,-1,5
 164 642 164 642 189 642 c 0,6,7
 213 642 213 642 232.5 656 c 128,-1,8
 252 670 252 670 257 689 c 1,9,-1
 336 689 l 1,10,11
 326 634 326 634 287 599.5 c 128,-1,12
 248 565 248 565 189 565 c 0,13,0
 129 565 129 565 91 599.5 c 128,-1,1
EndSplineSet
Substitution2: "Single Substitution lookup 13 subtable" uni0306.case
Substitution2: "'case' Case-Sensitive Forms in Latin lookup 11 subtable" uni0306.case
AlternateSubs2: "'aalt' Access All Alternates in Latin lookup 0 subtable" uni0306.case
EndChar
StartChar: uni0307
Encoding: 775 775 346
Width: 0
GlyphClass: 4
Flags: W
AnchorPoint: "Anchor-5" 110 713 basemark 0
AnchorPoint: "Anchor-5" 110 496 mark 0
AnchorPoint: "Anchor-1" 110 496 mark 0
LayerCount: 2
Fore
SplineSet
62.5 598.5 m 128,-1,1
 43 618 43 618 43 646 c 256,2,3
 43 674 43 674 62.5 693.5 c 128,-1,4
 82 713 82 713 110 713 c 256,5,6
 138 713 138 713 157.5 693.5 c 128,-1,7
 177 674 177 674 177 646 c 256,8,9
 177 618 177 618 157.5 598.5 c 128,-1,10
 138 579 138 579 110 579 c 256,11,0
 82 579 82 579 62.5 598.5 c 128,-1,1
EndSplineSet
Substitution2: "Single Substitution lookup 13 subtable" uni0307.case
Substitution2: "'case' Case-Sensitive Forms in Latin lookup 11 subtable" uni0307.case
AlternateSubs2: "'aalt' Access All Alternates in Latin lookup 0 subtable" uni0307.case
EndChar
StartChar: uni0308
Encoding: 776 776 344
Width: 0
GlyphClass: 4
Flags: W
AnchorPoint: "Anchor-5" 208 713 basemark 0
AnchorPoint: "Anchor-5" 208 496 mark 0
AnchorPoint: "Anchor-1" 208 496 mark 0
LayerCount: 2
Fore
SplineSet
259.5 598.5 m 128,-1,1
 240 618 240 618 240 646 c 256,2,3
 240 674 240 674 259.5 693.5 c 128,-1,4
 279 713 279 713 306 713 c 0,5,6
 334 713 334 713 353.5 693.5 c 128,-1,7
 373 674 373 674 373 646 c 256,8,9
 373 618 373 618 353.5 598.5 c 128,-1,10
 334 579 334 579 306 579 c 0,11,0
 279 579 279 579 259.5 598.5 c 128,-1,1
62.5 598.5 m 128,-1,13
 43 618 43 618 43 646 c 256,14,15
 43 674 43 674 62.5 693.5 c 128,-1,16
 82 713 82 713 110 713 c 256,17,18
 138 713 138 713 157.5 693.5 c 128,-1,19
 177 674 177 674 177 646 c 256,20,21
 177 618 177 618 157.5 598.5 c 128,-1,22
 138 579 138 579 110 579 c 256,23,12
 82 579 82 579 62.5 598.5 c 128,-1,13
EndSplineSet
Substitution2: "Single Substitution lookup 13 subtable" uni0308.case
Substitution2: "'case' Case-Sensitive Forms in Latin lookup 11 subtable" uni0308.case
AlternateSubs2: "'aalt' Access All Alternates in Latin lookup 0 subtable" uni0308.case
EndChar
StartChar: uni030A
Encoding: 778 778 362
Width: 0
GlyphClass: 4
Flags: W
AnchorPoint: "Anchor-5" 167 791 basemark 0
AnchorPoint: "Anchor-5" 167 496 mark 0
AnchorPoint: "Anchor-1" 167 496 mark 0
LayerCount: 2
Fore
SplineSet
79 581.5 m 128,-1,1
 43 617 43 617 43 668 c 256,2,3
 43 719 43 719 79 754.5 c 128,-1,4
 115 790 115 790 166 790 c 256,5,6
 217 790 217 790 253 754.5 c 128,-1,7
 289 719 289 719 289 668 c 256,8,9
 289 617 289 617 253 581.5 c 128,-1,10
 217 546 217 546 166 546 c 256,11,0
 115 546 115 546 79 581.5 c 128,-1,1
200.5 632.5 m 128,-1,13
 215 647 215 647 215 668 c 256,14,15
 215 689 215 689 200.5 703.5 c 128,-1,16
 186 718 186 718 166 718 c 256,17,18
 146 718 146 718 131.5 703.5 c 128,-1,19
 117 689 117 689 117 668 c 256,20,21
 117 647 117 647 131.5 632.5 c 128,-1,22
 146 618 146 618 166 618 c 256,23,12
 186 618 186 618 200.5 632.5 c 128,-1,13
EndSplineSet
Substitution2: "Single Substitution lookup 13 subtable" uni030A.case
Substitution2: "'case' Case-Sensitive Forms in Latin lookup 11 subtable" uni030A.case
AlternateSubs2: "'aalt' Access All Alternates in Latin lookup 0 subtable" uni030A.case
EndChar
StartChar: uni030B
Encoding: 779 779 353
Width: 0
GlyphClass: 4
Flags: W
AnchorPoint: "Anchor-5" 276 718 basemark 0
AnchorPoint: "Anchor-5" 181 496 mark 0
AnchorPoint: "Anchor-1" 181 496 mark 0
LayerCount: 2
Fore
SplineSet
159.5 711 m 128,-1,1
 171 718 171 718 186 718 c 0,2,3
 207 718 207 718 220 705 c 128,-1,4
 233 692 233 692 233 674 c 0,5,6
 233 660 233 660 224 646.5 c 128,-1,7
 215 633 215 633 194 616 c 2,8,-1
 138 573 l 1,9,-1
 43 573 l 1,10,-1
 134 687 l 2,11,0
 148 704 148 704 159.5 711 c 128,-1,1
341 711 m 128,-1,13
 352 718 352 718 368 718 c 0,14,15
 389 718 389 718 401.5 705.5 c 128,-1,16
 414 693 414 693 414 674 c 0,17,18
 414 660 414 660 405 646.5 c 128,-1,19
 396 633 396 633 375 616 c 2,20,-1
 319 573 l 1,21,-1
 225 573 l 1,22,-1
 316 687 l 2,23,12
 330 704 330 704 341 711 c 128,-1,13
EndSplineSet
Substitution2: "Single Substitution lookup 13 subtable" uni030B.case
Substitution2: "'case' Case-Sensitive Forms in Latin lookup 11 subtable" uni030B.case
AlternateSubs2: "'aalt' Access All Alternates in Latin lookup 0 subtable" uni030B.case
EndChar
StartChar: uni0312
Encoding: 786 786 368
Width: 0
GlyphClass: 4
Flags: W
AnchorPoint: "Anchor-5" 141 774 basemark 0
AnchorPoint: "Anchor-5" 128 496 mark 0
AnchorPoint: "Anchor-1" 128 496 mark 0
LayerCount: 2
Fore
SplineSet
43 665 m 0,1,2
 43 713 43 713 83.5 743.5 c 128,-1,3
 124 774 124 774 192 774 c 1,4,-1
 240 733 l 1,5,6
 197 733 197 733 169 717.5 c 128,-1,7
 141 702 141 702 141 669 c 0,8,9
 141 648 141 648 157.5 631 c 128,-1,10
 174 614 174 614 202 607 c 1,11,-1
 116 572 l 1,12,0
 43 605 43 605 43 665 c 0,1,2
EndSplineSet
EndChar
StartChar: uni0326
Encoding: 806 806 369
Width: 0
GlyphClass: 4
Flags: W
AnchorPoint: "Anchor-4" 149 -251 basemark 0
AnchorPoint: "Anchor-4" 149 0 mark 0
AnchorPoint: "Anchor-0" 149 0 mark 0
LayerCount: 2
Fore
SplineSet
114 -194.5 m 128,-1,1
 142 -179 142 -179 142 -146 c 0,2,3
 142 -125 142 -125 125.5 -108 c 128,-1,4
 109 -91 109 -91 81 -84 c 1,5,-1
 167 -49 l 1,6,7
 240 -82 240 -82 240 -142 c 0,8,9
 240 -190 240 -190 199.5 -220.5 c 128,-1,10
 159 -251 159 -251 90 -251 c 1,11,-1
 43 -210 l 1,12,0
 86 -210 86 -210 114 -194.5 c 128,-1,1
EndSplineSet
EndChar
StartChar: uni0327
Encoding: 807 807 370
Width: 0
GlyphClass: 4
Flags: W
AnchorPoint: "Anchor-4" 139 -185 basemark 0
AnchorPoint: "Anchor-4" 139 0 mark 0
AnchorPoint: "Anchor-0" 139 0 mark 0
LayerCount: 2
Fore
SplineSet
43 -170 m 1,1,-1
 58 -126 l 1,2,3
 88 -139 88 -139 118 -139 c 0,4,5
 141 -139 141 -139 153.5 -131 c 128,-1,6
 166 -123 166 -123 166 -109 c 0,7,8
 166 -97 166 -97 156 -89.5 c 128,-1,9
 146 -82 146 -82 128 -82 c 0,10,11
 116 -82 116 -82 99 -87 c 0,12,13
 88 -91 88 -91 80 -85 c 128,-1,14
 72 -79 72 -79 72 -69 c 0,15,16
 72 -63 72 -63 75 -58 c 2,17,-1
 126 25 l 1,18,-1
 165 2 l 1,19,-1
 135 -47 l 1,20,21
 153 -43 153 -43 167 -43 c 0,22,23
 200 -43 200 -43 223 -60 c 128,-1,24
 246 -77 246 -77 246 -106 c 0,25,26
 246 -142 246 -142 213.5 -163.5 c 128,-1,27
 181 -185 181 -185 131 -185 c 0,28,0
 87 -185 87 -185 43 -170 c 1,1,-1
EndSplineSet
EndChar
StartChar: uni0328
Encoding: 808 808 371
Width: 0
GlyphClass: 4
Flags: W
AnchorPoint: "Anchor-2" 239 10 mark 0
LayerCount: 2
Fore
SplineSet
74 -147.5 m 128,-1,1
 43 -121 43 -121 43 -87 c 0,2,3
 43 -51 43 -51 69.5 -25.5 c 128,-1,4
 96 0 96 0 138 16 c 1,5,-1
 239 0 l 1,6,7
 192 -12 192 -12 169.5 -31 c 128,-1,8
 147 -50 147 -50 147 -70 c 0,9,10
 147 -88 147 -88 160.5 -96.5 c 128,-1,11
 174 -105 174 -105 194 -105 c 256,12,13
 214 -105 214 -105 239 -96 c 1,14,-1
 239 -163 l 1,15,16
 225 -168 225 -168 204 -171 c 128,-1,17
 183 -174 183 -174 166 -174 c 0,18,0
 105 -174 105 -174 74 -147.5 c 128,-1,1
EndSplineSet
Substitution2: "Single Substitution lookup 13 subtable" uni0328.case
Substitution2: "'case' Case-Sensitive Forms in Latin lookup 11 subtable" uni0328.case
AlternateSubs2: "'aalt' Access All Alternates in Latin lookup 0 subtable" uni0328.case
EndChar
StartChar: uni0394
Encoding: 916 916 225
Width: 665
GlyphClass: 1
Flags: W
LayerCount: 2
Fore
SplineSet
259 668 m 1,0,-1
 406 668 l 1,1,-1
 658 0 l 1,2,-1
 7 0 l 1,3,-1
 259 668 l 1,0,-1
477 110 m 1,4,-1
 332 529 l 1,5,-1
 188 110 l 1,6,-1
 477 110 l 1,4,-1
EndSplineSet
EndChar
StartChar: uni03A9
Encoding: 937 937 226
Width: 657
GlyphClass: 1
Flags: W
LayerCount: 2
Fore
SplineSet
35 102 m 1,0,-1
 178 102 l 1,1,-1
 178 135 l 1,2,3
 113 175 113 175 74 241.5 c 128,-1,4
 35 308 35 308 35 386 c 0,5,6
 35 466 35 466 74.5 533.5 c 128,-1,7
 114 601 114 601 181 640.5 c 128,-1,8
 248 680 248 680 328 680 c 256,9,10
 408 680 408 680 475 640.5 c 128,-1,11
 542 601 542 601 581.5 533.5 c 128,-1,12
 621 466 621 466 621 386 c 0,13,14
 621 308 621 308 582.5 241.5 c 128,-1,15
 544 175 544 175 479 135 c 1,16,-1
 479 102 l 1,17,-1
 621 102 l 1,18,-1
 621 0 l 1,19,-1
 366 0 l 1,20,-1
 366 203 l 1,21,22
 432 217 432 217 475.5 269 c 128,-1,23
 519 321 519 321 519 389 c 0,24,25
 519 441 519 441 493.5 485 c 128,-1,26
 468 529 468 529 424 554.5 c 128,-1,27
 380 580 380 580 328 580 c 256,28,29
 276 580 276 580 232.5 554.5 c 128,-1,30
 189 529 189 529 163.5 485 c 128,-1,31
 138 441 138 441 138 389 c 0,32,33
 138 321 138 321 181.5 269 c 128,-1,34
 225 217 225 217 291 203 c 1,35,-1
 291 0 l 1,36,-1
 35 0 l 1,37,-1
 35 102 l 1,0,-1
EndSplineSet
EndChar
StartChar: uni03BC
Encoding: 956 956 227
Width: 589
GlyphClass: 1
Flags: W
LayerCount: 2
Fore
SplineSet
60 496 m 1,0,-1
 186 496 l 1,1,-1
 186 215 l 2,2,3
 186 147 186 147 204.5 118 c 128,-1,4
 223 89 223 89 272 89 c 0,5,6
 325 89 325 89 350.5 122 c 128,-1,7
 376 155 376 155 376 228 c 2,8,-1
 376 496 l 1,9,-1
 502 496 l 1,10,-1
 502 164 l 2,11,12
 502 127 502 127 512.5 115.5 c 128,-1,13
 523 104 523 104 556 104 c 2,14,-1
 569 104 l 1,15,-1
 569 0 l 1,16,-1
 510 0 l 2,17,18
 452 0 452 0 424 15 c 128,-1,19
 396 30 396 30 384 63 c 1,20,21
 359 22 359 22 333.5 5 c 128,-1,22
 308 -12 308 -12 272 -12 c 0,23,24
 222 -12 222 -12 186 27 c 1,25,-1
 186 -162 l 1,26,-1
 60 -162 l 1,27,-1
 60 496 l 1,0,-1
EndSplineSet
EndChar
StartChar: pi
Encoding: 960 960 228
Width: 615
GlyphClass: 1
Flags: W
LayerCount: 2
Fore
SplineSet
102 393 m 1,0,-1
 14 393 l 1,1,-1
 14 496 l 1,2,-1
 580 496 l 1,3,-1
 580 393 l 1,4,-1
 494 393 l 1,5,-1
 494 145 l 2,6,7
 494 112 494 112 504 102.5 c 128,-1,8
 514 93 514 93 547 93 c 2,9,-1
 580 93 l 1,10,-1
 580 0 l 1,11,-1
 513 0 l 2,12,13
 461 0 461 0 434 9.5 c 128,-1,14
 407 19 407 19 395 44.5 c 128,-1,15
 383 70 383 70 383 120 c 2,16,-1
 383 393 l 1,17,-1
 212 393 l 1,18,-1
 212 0 l 1,19,-1
 102 0 l 1,20,-1
 102 393 l 1,0,-1
EndSplineSet
EndChar
StartChar: uni1E9E
Encoding: 7838 7838 82
Width: 676
GlyphClass: 1
Flags: W
LayerCount: 2
Fore
SplineSet
322 21.5 m 128,-1,1
 274 55 274 55 255 106 c 1,2,-1
 360 145 l 1,3,4
 379 92 379 92 439 92 c 0,5,6
 473 92 473 92 497 117.5 c 128,-1,7
 521 143 521 143 521 188 c 0,8,9
 521 234 521 234 496 258 c 128,-1,10
 471 282 471 282 434 282 c 0,11,12
 412 282 412 282 391 274 c 1,13,-1
 343 356 l 1,14,-1
 500 564 l 1,15,16
 419 577 419 577 368 577 c 0,17,18
 280 577 280 577 238 539.5 c 128,-1,19
 196 502 196 502 196 422 c 2,20,-1
 196 0 l 1,21,-1
 63 0 l 1,22,-1
 63 448 l 2,23,24
 63 565 63 565 129.5 622.5 c 128,-1,25
 196 680 196 680 337 680 c 0,26,27
 469 680 469 680 610 646 c 1,28,-1
 610 543 l 1,29,-1
 477 367 l 1,30,31
 556 362 556 362 603 311 c 128,-1,32
 650 260 650 260 650 185 c 0,33,34
 650 126 650 126 622 81 c 128,-1,35
 594 36 594 36 548 12 c 128,-1,36
 502 -12 502 -12 449 -12 c 0,37,0
 370 -12 370 -12 322 21.5 c 128,-1,1
EndSplineSet
EndChar
StartChar: endash
Encoding: 8211 8211 274
Width: 502
GlyphClass: 1
Flags: W
LayerCount: 2
Fore
SplineSet
44 303 m 1,0,-1
 459 303 l 1,1,-1
 459 194 l 1,2,-1
 44 194 l 1,3,-1
 44 303 l 1,0,-1
EndSplineSet
EndChar
StartChar: emdash
Encoding: 8212 8212 275
Width: 830
GlyphClass: 1
Flags: W
LayerCount: 2
Fore
SplineSet
44 303 m 1,0,-1
 787 303 l 1,1,-1
 787 194 l 1,2,-1
 44 194 l 1,3,-1
 44 303 l 1,0,-1
EndSplineSet
EndChar
StartChar: quoteleft
Encoding: 8216 8216 287
Width: 261
GlyphClass: 1
Flags: W
LayerCount: 2
Fore
SplineSet
71 394.5 m 128,-1,1
 46 420 46 420 46 455 c 0,2,3
 46 472 46 472 52 487 c 2,4,-1
 123 668 l 1,5,-1
 199 668 l 1,6,-1
 149 537 l 1,7,8
 178 531 178 531 196.5 508 c 128,-1,9
 215 485 215 485 215 454 c 0,10,11
 215 419 215 419 190.5 394 c 128,-1,12
 166 369 166 369 131 369 c 256,13,0
 96 369 96 369 71 394.5 c 128,-1,1
EndSplineSet
EndChar
StartChar: quoteright
Encoding: 8217 8217 288
Width: 261
GlyphClass: 1
Flags: W
LayerCount: 2
Fore
SplineSet
64.5 542 m 128,-1,1
 46 565 46 565 46 596 c 0,2,3
 46 631 46 631 71 655.5 c 128,-1,4
 96 680 96 680 130 680 c 0,5,6
 165 680 165 680 190 655 c 128,-1,7
 215 630 215 630 215 595 c 0,8,9
 215 577 215 577 209 563 c 2,10,-1
 138 381 l 1,11,-1
 62 381 l 1,12,-1
 112 513 l 1,13,0
 83 519 83 519 64.5 542 c 128,-1,1
EndSplineSet
EndChar
StartChar: quotesinglbase
Encoding: 8218 8218 283
Width: 261
GlyphClass: 1
Flags: W
LayerCount: 2
Fore
SplineSet
64.5 19.5 m 128,-1,1
 46 43 46 43 46 73 c 0,2,3
 46 108 46 108 70.5 133 c 128,-1,4
 95 158 95 158 130 158 c 256,5,6
 165 158 165 158 190 133 c 128,-1,7
 215 108 215 108 215 73 c 0,8,9
 215 55 215 55 209 40 c 2,10,-1
 138 -141 l 1,11,-1
 62 -141 l 1,12,-1
 112 -10 l 1,13,0
 83 -4 83 -4 64.5 19.5 c 128,-1,1
EndSplineSet
EndChar
StartChar: quotedblleft
Encoding: 8220 8220 285
Width: 459
GlyphClass: 1
Flags: W
LayerCount: 2
Fore
SplineSet
269 394.5 m 128,-1,1
 244 420 244 420 244 455 c 0,2,3
 244 472 244 472 250 487 c 2,4,-1
 321 668 l 1,5,-1
 398 668 l 1,6,-1
 347 537 l 1,7,8
 376 531 376 531 395 507.5 c 128,-1,9
 414 484 414 484 414 454 c 0,10,11
 414 419 414 419 389 394 c 128,-1,12
 364 369 364 369 329 369 c 256,13,0
 294 369 294 369 269 394.5 c 128,-1,1
71 394.5 m 128,-1,15
 46 420 46 420 46 455 c 0,16,17
 46 472 46 472 52 487 c 2,18,-1
 123 668 l 1,19,-1
 199 668 l 1,20,-1
 149 537 l 1,21,22
 178 531 178 531 196.5 508 c 128,-1,23
 215 485 215 485 215 454 c 0,24,25
 215 419 215 419 190.5 394 c 128,-1,26
 166 369 166 369 131 369 c 256,27,14
 96 369 96 369 71 394.5 c 128,-1,15
EndSplineSet
EndChar
StartChar: quotedblright
Encoding: 8221 8221 286
Width: 459
GlyphClass: 1
Flags: W
LayerCount: 2
Fore
SplineSet
263 542.5 m 128,-1,1
 244 566 244 566 244 596 c 0,2,3
 244 631 244 631 269 655.5 c 128,-1,4
 294 680 294 680 329 680 c 256,5,6
 364 680 364 680 389 655 c 128,-1,7
 414 630 414 630 414 595 c 0,8,9
 414 581 414 581 408 563 c 2,10,-1
 337 381 l 1,11,-1
 260 381 l 1,12,-1
 311 513 l 1,13,0
 282 519 282 519 263 542.5 c 128,-1,1
64.5 542 m 128,-1,15
 46 565 46 565 46 596 c 0,16,17
 46 631 46 631 71 655.5 c 128,-1,18
 96 680 96 680 130 680 c 0,19,20
 165 680 165 680 190 655 c 128,-1,21
 215 630 215 630 215 595 c 0,22,23
 215 577 215 577 209 563 c 2,24,-1
 138 381 l 1,25,-1
 62 381 l 1,26,-1
 112 513 l 1,27,14
 83 519 83 519 64.5 542 c 128,-1,15
EndSplineSet
EndChar
StartChar: quotedblbase
Encoding: 8222 8222 284
Width: 459
GlyphClass: 1
Flags: W
LayerCount: 2
Fore
SplineSet
263 19.5 m 128,-1,1
 244 43 244 43 244 73 c 0,2,3
 244 108 244 108 269 133 c 128,-1,4
 294 158 294 158 329 158 c 256,5,6
 364 158 364 158 389 133 c 128,-1,7
 414 108 414 108 414 73 c 0,8,9
 414 60 414 60 408 40 c 2,10,-1
 337 -141 l 1,11,-1
 260 -141 l 1,12,-1
 311 -10 l 1,13,0
 282 -4 282 -4 263 19.5 c 128,-1,1
64.5 19.5 m 128,-1,15
 46 43 46 43 46 73 c 0,16,17
 46 108 46 108 70.5 133 c 128,-1,18
 95 158 95 158 130 158 c 256,19,20
 165 158 165 158 190 133 c 128,-1,21
 215 108 215 108 215 73 c 0,22,23
 215 55 215 55 209 40 c 2,24,-1
 138 -141 l 1,25,-1
 62 -141 l 1,26,-1
 112 -10 l 1,27,14
 83 -4 83 -4 64.5 19.5 c 128,-1,15
EndSplineSet
EndChar
StartChar: dagger
Encoding: 8224 8224 307
Width: 572
GlyphClass: 1
Flags: W
LayerCount: 2
Fore
SplineSet
226 394 m 1,0,-1
 40 394 l 1,1,-1
 40 496 l 1,2,-1
 226 496 l 1,3,-1
 226 668 l 1,4,-1
 346 668 l 1,5,-1
 346 496 l 1,6,-1
 532 496 l 1,7,-1
 532 394 l 1,8,-1
 346 394 l 1,9,-1
 346 0 l 1,10,-1
 226 0 l 1,11,-1
 226 394 l 1,0,-1
EndSplineSet
EndChar
StartChar: daggerdbl
Encoding: 8225 8225 309
Width: 573
GlyphClass: 1
Flags: W
LayerCount: 2
Fore
SplineSet
227 173 m 1,0,-1
 41 173 l 1,1,-1
 41 274 l 1,2,-1
 227 274 l 1,3,-1
 227 394 l 1,4,-1
 41 394 l 1,5,-1
 41 496 l 1,6,-1
 227 496 l 1,7,-1
 227 668 l 1,8,-1
 346 668 l 1,9,-1
 346 496 l 1,10,-1
 533 496 l 1,11,-1
 533 394 l 1,12,-1
 346 394 l 1,13,-1
 346 274 l 1,14,-1
 533 274 l 1,15,-1
 533 173 l 1,16,-1
 346 173 l 1,17,-1
 346 0 l 1,18,-1
 227 0 l 1,19,-1
 227 173 l 1,0,-1
EndSplineSet
EndChar
StartChar: perthousand
Encoding: 8240 8240 342
Width: 1380
GlyphClass: 1
Flags: W
LayerCount: 2
Fore
SplineSet
655 668 m 1,0,-1
 766 668 l 1,1,-1
 299 0 l 1,2,-1
 187 0 l 1,3,-1
 655 668 l 1,0,-1
126 322.5 m 128,-1,5
 82 348 82 348 56.5 392 c 128,-1,6
 31 436 31 436 31 488 c 256,7,8
 31 540 31 540 56.5 584 c 128,-1,9
 82 628 82 628 126 654 c 128,-1,10
 170 680 170 680 222 680 c 256,11,12
 274 680 274 680 318 654 c 128,-1,13
 362 628 362 628 387.5 584 c 128,-1,14
 413 540 413 540 413 488 c 256,15,16
 413 436 413 436 387.5 392 c 128,-1,17
 362 348 362 348 318 322.5 c 128,-1,18
 274 297 274 297 222 297 c 256,19,4
 170 297 170 297 126 322.5 c 128,-1,5
286 424.5 m 128,-1,21
 312 451 312 451 312 488 c 0,22,23
 312 526 312 526 286 552.5 c 128,-1,24
 260 579 260 579 222 579 c 0,25,26
 185 579 185 579 159 552.5 c 128,-1,27
 133 526 133 526 133 488 c 0,28,29
 133 451 133 451 159 424.5 c 128,-1,30
 185 398 185 398 222 398 c 0,31,20
 260 398 260 398 286 424.5 c 128,-1,21
638 14 m 128,-1,33
 594 40 594 40 568.5 84 c 128,-1,34
 543 128 543 128 543 180 c 256,35,36
 543 232 543 232 568.5 276 c 128,-1,37
 594 320 594 320 638 346 c 128,-1,38
 682 372 682 372 734 372 c 256,39,40
 786 372 786 372 830 346 c 128,-1,41
 874 320 874 320 899.5 276 c 128,-1,42
 925 232 925 232 925 180 c 256,43,44
 925 128 925 128 899.5 84 c 128,-1,45
 874 40 874 40 830 14 c 128,-1,46
 786 -12 786 -12 734 -12 c 256,47,32
 682 -12 682 -12 638 14 c 128,-1,33
797.5 115.5 m 128,-1,49
 824 142 824 142 824 180 c 256,50,51
 824 218 824 218 798 244 c 128,-1,52
 772 270 772 270 734 270 c 0,53,54
 697 270 697 270 670.5 244 c 128,-1,55
 644 218 644 218 644 180 c 256,56,57
 644 142 644 142 670.5 115.5 c 128,-1,58
 697 89 697 89 734 89 c 256,59,48
 771 89 771 89 797.5 115.5 c 128,-1,49
1062 14 m 128,-1,61
 1018 40 1018 40 992 84 c 128,-1,62
 966 128 966 128 966 180 c 256,63,64
 966 232 966 232 992 276 c 128,-1,65
 1018 320 1018 320 1062 346 c 128,-1,66
 1106 372 1106 372 1158 372 c 256,67,68
 1210 372 1210 372 1253.5 346 c 128,-1,69
 1297 320 1297 320 1323 276 c 128,-1,70
 1349 232 1349 232 1349 180 c 256,71,72
 1349 128 1349 128 1323 84 c 128,-1,73
 1297 40 1297 40 1253.5 14 c 128,-1,74
 1210 -12 1210 -12 1158 -12 c 256,75,60
 1106 -12 1106 -12 1062 14 c 128,-1,61
1221 115.5 m 128,-1,77
 1247 142 1247 142 1247 180 c 0,78,79
 1247 217 1247 217 1221 243.5 c 128,-1,80
 1195 270 1195 270 1158 270 c 256,81,82
 1121 270 1121 270 1094.5 244 c 128,-1,83
 1068 218 1068 218 1068 180 c 256,84,85
 1068 142 1068 142 1094.5 115.5 c 128,-1,86
 1121 89 1121 89 1158 89 c 256,87,76
 1195 89 1195 89 1221 115.5 c 128,-1,77
EndSplineSet
EndChar
StartChar: Euro
Encoding: 8364 8364 314
Width: 674
GlyphClass: 1
Flags: W
LayerCount: 2
Fore
SplineSet
201 56 m 128,-1,1
 129 124 129 124 107 235 c 1,2,-1
 10 235 l 1,3,-1
 45 300 l 1,4,-1
 98 300 l 1,5,6
 97 312 97 312 97 335 c 0,7,8
 97 359 97 359 98 370 c 1,9,-1
 9 370 l 1,10,-1
 44 435 l 1,11,-1
 107 435 l 1,12,13
 132 553 132 553 210.5 616.5 c 128,-1,14
 289 680 289 680 395 680 c 0,15,16
 477 680 477 680 540.5 639 c 128,-1,17
 604 598 604 598 638 526 c 1,18,-1
 529 487 l 1,19,20
 509 527 509 527 472.5 548.5 c 128,-1,21
 436 570 436 570 390 570 c 0,22,23
 334 570 334 570 294 534.5 c 128,-1,24
 254 499 254 499 236 435 c 1,25,-1
 447 435 l 1,26,-1
 411 370 l 1,27,-1
 225 370 l 1,28,29
 224 359 224 359 224 335 c 0,30,31
 224 312 224 312 225 300 c 1,32,-1
 372 300 l 1,33,-1
 337 235 l 1,34,-1
 237 235 l 1,35,36
 255 171 255 171 295 134.5 c 128,-1,37
 335 98 335 98 394 98 c 0,38,39
 439 98 439 98 476 118.5 c 128,-1,40
 513 139 513 139 533 180 c 1,41,-1
 641 141 l 1,42,43
 606 68 606 68 540.5 28 c 128,-1,44
 475 -12 475 -12 390 -12 c 0,45,0
 273 -12 273 -12 201 56 c 128,-1,1
EndSplineSet
EndChar
StartChar: uni20B9
Encoding: 8377 8377 315
Width: 605
GlyphClass: 1
Flags: W
LayerCount: 2
Fore
SplineSet
77 289 m 1,0,-1
 77 349 l 1,1,-1
 206 349 l 2,2,3
 311 349 311 349 327 424 c 1,4,-1
 77 424 l 1,5,-1
 77 489 l 1,6,-1
 327 489 l 1,7,8
 311 563 311 563 206 563 c 2,9,-1
 77 563 l 1,10,-1
 77 668 l 1,11,-1
 552 668 l 1,12,-1
 552 603 l 1,13,-1
 400 603 l 1,14,15
 450 561 450 561 460 489 c 1,16,-1
 552 489 l 1,17,-1
 552 424 l 1,18,-1
 460 424 l 1,19,20
 451 351 451 351 402.5 308.5 c 128,-1,21
 354 266 354 266 275 253 c 1,22,-1
 525 0 l 1,23,-1
 361 0 l 1,24,-1
 77 289 l 1,0,-1
EndSplineSet
EndChar
StartChar: uni2113
Encoding: 8467 8467 308
Width: 483
GlyphClass: 1
Flags: W
LayerCount: 2
Fore
SplineSet
111 155 m 2,1,-1
 111 169 l 1,2,-1
 46 122 l 1,3,-1
 46 222 l 1,4,-1
 111 270 l 1,5,-1
 111 473 l 2,6,7
 111 680 111 680 284 680 c 0,8,9
 356 680 356 680 396 641 c 128,-1,10
 436 602 436 602 436 534 c 0,11,12
 436 457 436 457 387.5 395.5 c 128,-1,13
 339 334 339 334 236 259 c 1,14,-1
 236 175 l 2,15,16
 236 129 236 129 252 110 c 128,-1,17
 268 91 268 91 300 91 c 0,18,19
 342 91 342 91 383 125 c 1,20,-1
 432 48 l 1,21,22
 405 23 405 23 364.5 5.5 c 128,-1,23
 324 -12 324 -12 276 -12 c 0,24,0
 111 -12 111 -12 111 155 c 2,1,-1
304.5 436.5 m 128,-1,26
 328 478 328 478 328 526 c 0,27,28
 328 587 328 587 283 587 c 0,29,30
 258 587 258 587 247 569 c 128,-1,31
 236 551 236 551 236 508 c 2,32,-1
 236 362 l 1,33,25
 281 395 281 395 304.5 436.5 c 128,-1,26
EndSplineSet
EndChar
StartChar: trademark
Encoding: 8482 8482 303
Width: 925
GlyphClass: 1
Flags: W
LayerCount: 2
Fore
SplineSet
412 668 m 1,0,-1
 559 668 l 1,1,-1
 636 416 l 1,2,-1
 713 668 l 1,3,-1
 861 668 l 1,4,-1
 861 303 l 1,5,-1
 769 303 l 1,6,-1
 769 569 l 1,7,-1
 680 303 l 1,8,-1
 593 303 l 1,9,-1
 503 569 l 1,10,-1
 503 303 l 1,11,-1
 412 303 l 1,12,-1
 412 668 l 1,0,-1
155 588 m 1,13,-1
 35 588 l 1,14,-1
 35 668 l 1,15,-1
 367 668 l 1,16,-1
 367 588 l 1,17,-1
 247 588 l 1,18,-1
 247 303 l 1,19,-1
 155 303 l 1,20,-1
 155 588 l 1,13,-1
EndSplineSet
EndChar
StartChar: estimated
Encoding: 8494 8494 310
Width: 611
GlyphClass: 1
Flags: W
LayerCount: 2
Fore
SplineSet
178 21.5 m 128,-1,1
 118 55 118 55 82 115.5 c 128,-1,2
 46 176 46 176 46 252 c 0,3,4
 46 319 46 319 80.5 378 c 128,-1,5
 115 437 115 437 174.5 472.5 c 128,-1,6
 234 508 234 508 306 508 c 0,7,8
 376 508 376 508 435.5 473 c 128,-1,9
 495 438 495 438 530 378.5 c 128,-1,10
 565 319 565 319 565 249 c 1,11,-1
 171 249 l 1,12,-1
 171 94 l 1,13,14
 198 70 198 70 232.5 56.5 c 128,-1,15
 267 43 267 43 306 43 c 0,16,17
 352 43 352 43 393 62.5 c 128,-1,18
 434 82 434 82 462 116 c 1,19,-1
 516 97 l 1,20,21
 480 46 480 46 425 17 c 128,-1,22
 370 -12 370 -12 306 -12 c 0,23,0
 238 -12 238 -12 178 21.5 c 128,-1,1
440 301 m 1,24,-1
 440 401 l 1,25,26
 414 426 414 426 379 439.5 c 128,-1,27
 344 453 344 453 306 453 c 0,28,29
 267 453 267 453 232 439.5 c 128,-1,30
 197 426 197 426 171 401 c 1,31,-1
 171 301 l 1,32,-1
 440 301 l 1,24,-1
EndSplineSet
EndChar
StartChar: partialdiff
Encoding: 8706 8706 340
Width: 593
GlyphClass: 1
Flags: W
LayerCount: 2
Fore
SplineSet
169 15 m 128,-1,1
 113 42 113 42 80 96 c 128,-1,2
 47 150 47 150 47 227 c 0,3,4
 47 299 47 299 77 353 c 128,-1,5
 107 407 107 407 158.5 436.5 c 128,-1,6
 210 466 210 466 273 466 c 0,7,8
 326 466 326 466 366 445 c 128,-1,9
 406 424 406 424 427 387 c 1,10,11
 414 486 414 486 342.5 531 c 128,-1,12
 271 576 271 576 163 576 c 0,13,14
 142 576 142 576 131 575 c 1,15,-1
 131 680 l 1,16,17
 331 680 331 680 438.5 592.5 c 128,-1,18
 546 505 546 505 546 298 c 0,19,20
 546 148 546 148 479.5 68 c 128,-1,21
 413 -12 413 -12 291 -12 c 0,22,0
 225 -12 225 -12 169 15 c 128,-1,1
381 127 m 128,-1,24
 416 165 416 165 416 227 c 256,25,26
 416 289 416 289 381 326.5 c 128,-1,27
 346 364 346 364 295 364 c 256,28,29
 244 364 244 364 208.5 326.5 c 128,-1,30
 173 289 173 289 173 227 c 256,31,32
 173 165 173 165 208.5 127 c 128,-1,33
 244 89 244 89 295 89 c 256,34,23
 346 89 346 89 381 127 c 128,-1,24
EndSplineSet
EndChar
StartChar: summation
Encoding: 8721 8721 338
Width: 605
GlyphClass: 1
Flags: W
LayerCount: 2
Fore
SplineSet
46 -52 m 1,0,-1
 286 254 l 1,1,-1
 46 558 l 1,2,-1
 46 668 l 1,3,-1
 560 668 l 1,4,-1
 560 558 l 1,5,-1
 189 558 l 1,6,-1
 430 254 l 1,7,-1
 189 -52 l 1,8,-1
 560 -52 l 1,9,-1
 560 -162 l 1,10,-1
 46 -162 l 1,11,-1
 46 -52 l 1,0,-1
EndSplineSet
EndChar
StartChar: minus
Encoding: 8722 8722 321
Width: 597
GlyphClass: 1
Flags: W
LayerCount: 2
Fore
SplineSet
46 303 m 1,0,-1
 552 303 l 1,1,-1
 552 194 l 1,2,-1
 46 194 l 1,3,-1
 46 303 l 1,0,-1
EndSplineSet
EndChar
StartChar: uni2215
Encoding: 8725 8725 319
Width: 630
GlyphClass: 1
Flags: W
LayerCount: 2
Fore
SplineSet
483 668 m 1,0,-1
 615 668 l 1,1,-1
 147 0 l 1,2,-1
 15 0 l 1,3,-1
 483 668 l 1,0,-1
EndSplineSet
EndChar
StartChar: radical
Encoding: 8730 8730 339
Width: 659
GlyphClass: 1
Flags: W
LayerCount: 2
Fore
SplineSet
174 113 m 1,0,-1
 46 113 l 1,1,-1
 46 225 l 1,2,-1
 251 225 l 1,3,-1
 340 3 l 1,4,-1
 492 668 l 1,5,-1
 614 668 l 1,6,-1
 421 -162 l 1,7,-1
 288 -162 l 1,8,-1
 174 113 l 1,0,-1
EndSplineSet
EndChar
StartChar: infinity
Encoding: 8734 8734 335
Width: 759
GlyphClass: 1
Flags: W
LayerCount: 2
Fore
SplineSet
93.5 143.5 m 128,-1,1
 46 187 46 187 46 256 c 256,2,3
 46 325 46 325 93.5 368.5 c 128,-1,4
 141 412 141 412 214 412 c 0,5,6
 264 412 264 412 303.5 389.5 c 128,-1,7
 343 367 343 367 380 327 c 1,8,9
 417 367 417 367 456 389.5 c 128,-1,10
 495 412 495 412 546 412 c 0,11,12
 618 412 618 412 665.5 368.5 c 128,-1,13
 713 325 713 325 713 256 c 256,14,15
 713 187 713 187 665.5 143.5 c 128,-1,16
 618 100 618 100 546 100 c 0,17,18
 495 100 495 100 456 122.5 c 128,-1,19
 417 145 417 145 380 185 c 1,20,21
 343 145 343 145 303.5 122.5 c 128,-1,22
 264 100 264 100 214 100 c 0,23,0
 141 100 141 100 93.5 143.5 c 128,-1,1
272 210 m 128,-1,25
 296 225 296 225 321 256 c 1,26,27
 296 287 296 287 272 302 c 128,-1,28
 248 317 248 317 219 317 c 0,29,30
 189 317 189 317 170 299.5 c 128,-1,31
 151 282 151 282 151 256 c 256,32,33
 151 230 151 230 170 212.5 c 128,-1,34
 189 195 189 195 219 195 c 0,35,24
 248 195 248 195 272 210 c 128,-1,25
589 212.5 m 128,-1,37
 608 230 608 230 608 256 c 256,38,39
 608 282 608 282 589 299.5 c 128,-1,40
 570 317 570 317 540 317 c 0,41,42
 512 317 512 317 488 302 c 128,-1,43
 464 287 464 287 439 256 c 1,44,45
 464 225 464 225 488 210 c 128,-1,46
 512 195 512 195 540 195 c 0,47,36
 570 195 570 195 589 212.5 c 128,-1,37
EndSplineSet
EndChar
StartChar: integral
Encoding: 8747 8747 336
Width: 475
GlyphClass: 1
Flags: W
LayerCount: 2
Fore
SplineSet
69 -151.5 m 128,-1,1
 42 -129 42 -129 42 -97 c 0,2,3
 42 -72 42 -72 57 -56.5 c 128,-1,4
 72 -41 72 -41 98 -41 c 0,5,6
 123 -41 123 -41 138 -56.5 c 128,-1,7
 153 -72 153 -72 153 -98 c 0,8,9
 153 -107 153 -107 150 -116 c 1,10,11
 164 -109 164 -109 170.5 -88.5 c 128,-1,12
 177 -68 177 -68 178 -24 c 2,13,-1
 183 446 l 2,14,15
 187 680 187 680 332 680 c 0,16,17
 379 680 379 680 406 658 c 128,-1,18
 433 636 433 636 433 605 c 0,19,20
 433 580 433 580 417.5 564.5 c 128,-1,21
 402 549 402 549 377 549 c 0,22,23
 351 549 351 549 336.5 564 c 128,-1,24
 322 579 322 579 322 605 c 0,25,26
 322 615 322 615 325 625 c 1,27,28
 311 617 311 617 304.5 596.5 c 128,-1,29
 298 576 298 576 297 532 c 2,30,-1
 292 62 l 2,31,32
 291 -66 291 -66 250 -120 c 128,-1,33
 209 -174 209 -174 143 -174 c 0,34,0
 96 -174 96 -174 69 -151.5 c 128,-1,1
EndSplineSet
EndChar
StartChar: approxequal
Encoding: 8776 8776 331
Width: 539
GlyphClass: 1
Flags: W
LayerCount: 2
Fore
SplineSet
76 198.5 m 128,-1,1
 106 235 106 235 166 235 c 0,2,3
 192 235 192 235 217 226.5 c 128,-1,4
 242 218 242 218 276 202 c 0,5,6
 302 188 302 188 322 181 c 128,-1,7
 342 174 342 174 360 174 c 0,8,9
 409 174 409 174 410 239 c 1,10,-1
 500 209 l 1,11,12
 493 141 493 141 463 104.5 c 128,-1,13
 433 68 433 68 373 68 c 0,14,15
 347 68 347 68 323 76.5 c 128,-1,16
 299 85 299 85 263 102 c 0,17,18
 233 116 233 116 215 123 c 128,-1,19
 197 130 197 130 179 130 c 0,20,21
 130 130 130 130 129 64 c 1,22,-1
 39 94 l 1,23,0
 46 162 46 162 76 198.5 c 128,-1,1
76 399.5 m 128,-1,25
 106 436 106 436 166 436 c 0,26,27
 192 436 192 436 216 427.5 c 128,-1,28
 240 419 240 419 276 402 c 0,29,30
 306 388 306 388 324 381 c 128,-1,31
 342 374 342 374 360 374 c 0,32,33
 409 374 409 374 410 440 c 1,34,-1
 500 410 l 1,35,36
 493 342 493 342 463 305.5 c 128,-1,37
 433 269 433 269 373 269 c 0,38,39
 347 269 347 269 323 277.5 c 128,-1,40
 299 286 299 286 263 303 c 0,41,42
 233 317 233 317 215 324 c 128,-1,43
 197 331 197 331 179 331 c 0,44,45
 130 331 130 331 129 265 c 1,46,-1
 39 295 l 1,47,24
 46 363 46 363 76 399.5 c 128,-1,25
EndSplineSet
EndChar
StartChar: notequal
Encoding: 8800 8800 325
Width: 616
GlyphClass: 1
Flags: W
LayerCount: 2
Fore
SplineSet
142 106 m 1,0,-1
 55 106 l 1,1,-1
 55 215 l 1,2,-1
 219 215 l 1,3,-1
 273 293 l 1,4,-1
 55 293 l 1,5,-1
 55 402 l 1,6,-1
 349 402 l 1,7,-1
 415 496 l 1,8,-1
 547 496 l 1,9,-1
 481 402 l 1,10,-1
 561 402 l 1,11,-1
 561 293 l 1,12,-1
 404 293 l 1,13,-1
 351 215 l 1,14,-1
 561 215 l 1,15,-1
 561 106 l 1,16,-1
 275 106 l 1,17,-1
 200 0 l 1,18,-1
 68 0 l 1,19,-1
 142 106 l 1,0,-1
EndSplineSet
EndChar
StartChar: lessequal
Encoding: 8804 8804 329
Width: 588
GlyphClass: 1
Flags: W
LayerCount: 2
Fore
SplineSet
46 263 m 1,0,-1
 46 367 l 1,1,-1
 542 508 l 1,2,-1
 542 394 l 1,3,-1
 193 315 l 1,4,-1
 542 236 l 1,5,-1
 542 122 l 1,6,-1
 46 263 l 1,0,-1
46 109 m 1,7,-1
 542 109 l 1,8,-1
 542 0 l 1,9,-1
 46 0 l 1,10,-1
 46 109 l 1,7,-1
EndSplineSet
EndChar
StartChar: greaterequal
Encoding: 8805 8805 328
Width: 588
GlyphClass: 1
Flags: W
LayerCount: 2
Fore
SplineSet
46 236 m 1,0,-1
 395 315 l 1,1,-1
 46 394 l 1,2,-1
 46 508 l 1,3,-1
 542 367 l 1,4,-1
 542 263 l 1,5,-1
 46 122 l 1,6,-1
 46 236 l 1,0,-1
46 109 m 1,7,-1
 542 109 l 1,8,-1
 542 0 l 1,9,-1
 46 0 l 1,10,-1
 46 109 l 1,7,-1
EndSplineSet
EndChar
StartChar: lozenge
Encoding: 9674 9674 343
Width: 589
GlyphClass: 1
Flags: W
LayerCount: 2
Fore
SplineSet
46 314 m 1,0,-1
 295 711 l 1,1,-1
 543 314 l 1,2,-1
 295 -84 l 1,3,-1
 46 314 l 1,0,-1
425 314 m 1,4,-1
 295 522 l 1,5,-1
 164 314 l 1,6,-1
 295 105 l 1,7,-1
 425 314 l 1,4,-1
EndSplineSet
EndChar
StartChar: musicalnote
Encoding: 9834 9834 296
Width: 632
GlyphClass: 1
Flags: W
LayerCount: 2
Fore
SplineSet
115.5 23 m 128,-1,1
 83 57 83 57 83 105 c 0,2,3
 83 152 83 152 116.5 186 c 128,-1,4
 150 220 150 220 198 220 c 0,5,6
 232 220 232 220 259 202 c 1,7,-1
 259 668 l 1,8,-1
 313 668 l 1,9,10
 316 638 316 638 330.5 614 c 128,-1,11
 345 590 345 590 366.5 570 c 128,-1,12
 388 550 388 550 433 514 c 0,13,14
 488 470 488 470 520.5 425.5 c 128,-1,15
 553 381 553 381 553 327 c 0,16,17
 553 274 553 274 496 205 c 1,18,-1
 491 207 l 1,19,20
 476 285 476 285 429 337.5 c 128,-1,21
 382 390 382 390 313 417 c 1,22,-1
 313 125 l 2,23,24
 313 60 313 60 280 24.5 c 128,-1,25
 247 -11 247 -11 195 -11 c 0,26,0
 148 -11 148 -11 115.5 23 c 128,-1,1
EndSplineSet
EndChar
StartChar: acutecomb.case
Encoding: 65553 -1 352
Width: 0
GlyphClass: 4
Flags: W
AnchorPoint: "Anchor-5" 94 877 basemark 0
AnchorPoint: "Anchor-5" 94 668 mark 0
AnchorPoint: "Anchor-1" 94 668 mark 0
LayerCount: 2
Fore
SplineSet
197 875 m 0,1,2
 218 875 218 875 231.5 862 c 128,-1,3
 245 849 245 849 245 829 c 0,4,5
 245 815 245 815 237 803 c 128,-1,6
 229 791 229 791 207 775 c 2,7,-1
 147 736 l 1,8,-1
 43 736 l 1,9,-1
 143 846 l 2,10,0
 171 875 171 875 197 875 c 0,1,2
EndSplineSet
EndChar
StartChar: gravecomb.case
Encoding: 65552 -1 350
Width: 0
GlyphClass: 4
Flags: W
AnchorPoint: "Anchor-5" 194 877 basemark 0
AnchorPoint: "Anchor-5" 194 668 mark 0
AnchorPoint: "Anchor-1" 194 668 mark 0
LayerCount: 2
Fore
SplineSet
51 803 m 128,-1,1
 43 815 43 815 43 829 c 0,2,3
 43 849 43 849 56.5 862 c 128,-1,4
 70 875 70 875 90 875 c 0,5,6
 117 875 117 875 145 846 c 2,7,-1
 245 736 l 1,8,-1
 141 736 l 1,9,-1
 81 775 l 2,10,0
 59 791 59 791 51 803 c 128,-1,1
EndSplineSet
EndChar
StartChar: one.tf
Encoding: 65540 -1 240
Width: 632
GlyphClass: 1
Flags: W
LayerCount: 2
Fore
SplineSet
104 106 m 1,0,-1
 266 106 l 1,1,-1
 266 470 l 1,2,-1
 104 470 l 1,3,-1
 104 571 l 1,4,5
 161 571 161 571 196.5 577.5 c 128,-1,6
 232 584 232 584 257.5 605 c 128,-1,7
 283 626 283 626 299 668 c 1,8,-1
 391 668 l 1,9,-1
 391 106 l 1,10,-1
 531 106 l 1,11,-1
 531 0 l 1,12,-1
 104 0 l 1,13,-1
 104 106 l 1,0,-1
EndSplineSet
Substitution2: "'pnum' Proportional Numbers in Latin lookup 9 subtable" one
AlternateSubs2: "'aalt' Access All Alternates in Latin lookup 0 subtable" one
EndChar
StartChar: uni0307.case
Encoding: 65550 -1 347
Width: 0
GlyphClass: 4
Flags: W
AnchorPoint: "Anchor-5" 110 861 basemark 0
AnchorPoint: "Anchor-5" 110 668 mark 0
AnchorPoint: "Anchor-1" 110 668 mark 0
LayerCount: 2
Fore
SplineSet
62.5 747.5 m 128,-1,1
 43 767 43 767 43 795 c 0,2,3
 43 822 43 822 62.5 841.5 c 128,-1,4
 82 861 82 861 110 861 c 256,5,6
 138 861 138 861 157.5 841.5 c 128,-1,7
 177 822 177 822 177 795 c 0,8,9
 177 767 177 767 157.5 747.5 c 128,-1,10
 138 728 138 728 110 728 c 256,11,0
 82 728 82 728 62.5 747.5 c 128,-1,1
EndSplineSet
EndChar
StartChar: uni0307.large
Encoding: 65551 -1 348
Width: 0
GlyphClass: 4
Flags: W
AnchorPoint: "Anchor-5" 122 741 basemark 0
AnchorPoint: "Anchor-5" 122 496 mark 0
AnchorPoint: "Anchor-1" 122 496 mark 0
LayerCount: 2
Fore
SplineSet
66 606 m 128,-1,1
 43 629 43 629 43 662 c 256,2,3
 43 695 43 695 66 718 c 128,-1,4
 89 741 89 741 122 741 c 256,5,6
 155 741 155 741 178 718 c 128,-1,7
 201 695 201 695 201 662 c 256,8,9
 201 629 201 629 178 606 c 128,-1,10
 155 583 155 583 122 583 c 256,11,0
 89 583 89 583 66 606 c 128,-1,1
EndSplineSet
EndChar
StartChar: uni030A.case
Encoding: 65559 -1 363
Width: 0
GlyphClass: 4
Flags: W
AnchorPoint: "Anchor-5" 166 852 basemark 0
AnchorPoint: "Anchor-5" 166 668 mark 0
AnchorPoint: "Anchor-1" 166 668 mark 0
LayerCount: 2
Fore
SplineSet
78.5 642 m 128,-1,1
 43 678 43 678 43 729 c 256,2,3
 43 780 43 780 78.5 816 c 128,-1,4
 114 852 114 852 166 852 c 256,5,6
 218 852 218 852 253.5 816 c 128,-1,7
 289 780 289 780 289 729 c 256,8,9
 289 678 289 678 253.5 642 c 128,-1,10
 218 606 218 606 166 606 c 256,11,0
 114 606 114 606 78.5 642 c 128,-1,1
201 694.5 m 128,-1,13
 215 709 215 709 215 729 c 256,14,15
 215 749 215 749 201 763.5 c 128,-1,16
 187 778 187 778 166 778 c 0,17,18
 146 778 146 778 131.5 763.5 c 128,-1,19
 117 749 117 749 117 729 c 256,20,21
 117 709 117 709 131.5 694.5 c 128,-1,22
 146 680 146 680 166 680 c 0,23,12
 187 680 187 680 201 694.5 c 128,-1,13
EndSplineSet
EndChar
StartChar: uni030C.alt
Encoding: 65555 -1 355
Width: 0
GlyphClass: 4
Flags: W
AnchorPoint: "Anchor-3" 23 496 mark 0
LayerCount: 2
Fore
SplineSet
84.5 706.5 m 128,-1,1
 98 718 98 718 116 718 c 0,2,3
 138 718 138 718 151 704 c 128,-1,4
 164 690 164 690 164 671 c 0,5,6
 164 657 164 657 154 633 c 2,7,-1
 111 530 l 1,8,-1
 43 530 l 1,9,-1
 68 678 l 2,10,0
 71 695 71 695 84.5 706.5 c 128,-1,1
EndSplineSet
EndChar
StartChar: uni0328.alt
Encoding: 65562 -1 372
Width: 0
GlyphClass: 4
Flags: W
AnchorPoint: "Anchor-2" 240 10 mark 0
LayerCount: 2
Fore
SplineSet
73 -147.5 m 128,-1,1
 43 -121 43 -121 43 -81 c 0,2,3
 43 -39 43 -39 68.5 -9.5 c 128,-1,4
 94 20 94 20 128 35 c 1,5,-1
 224 35 l 1,6,7
 190 14 190 14 168.5 -9.5 c 128,-1,8
 147 -33 147 -33 147 -63 c 0,9,10
 147 -85 147 -85 160.5 -95 c 128,-1,11
 174 -105 174 -105 194 -105 c 0,12,13
 217 -105 217 -105 239 -96 c 1,14,-1
 239 -163 l 1,15,16
 225 -168 225 -168 204 -171 c 128,-1,17
 183 -174 183 -174 166 -174 c 0,18,0
 103 -174 103 -174 73 -147.5 c 128,-1,1
EndSplineSet
EndChar
StartChar: uni0328.case
Encoding: 65563 -1 373
Width: 0
GlyphClass: 4
Flags: W
AnchorPoint: "Anchor-2" 239 10 mark 0
LayerCount: 2
Fore
SplineSet
75 -148.5 m 128,-1,1
 43 -123 43 -123 43 -87 c 0,2,3
 43 -53 43 -53 66 -28.5 c 128,-1,4
 89 -4 89 -4 130 10 c 1,5,-1
 239 0 l 1,6,7
 201 -9 201 -9 174 -27.5 c 128,-1,8
 147 -46 147 -46 147 -70 c 0,9,10
 147 -88 147 -88 160.5 -96.5 c 128,-1,11
 174 -105 174 -105 194 -105 c 0,12,13
 217 -105 217 -105 239 -96 c 1,14,-1
 239 -163 l 1,15,16
 226 -168 226 -168 205.5 -171 c 128,-1,17
 185 -174 185 -174 168 -174 c 0,18,0
 107 -174 107 -174 75 -148.5 c 128,-1,1
EndSplineSet
EndChar
